SplineFontDB: 3.2
FontName: hoduno-icon
FullName: hoduno logo and icons
FamilyName: hoduno
Weight: Book
Copyright: 2023 hoduno, using MuseModerno font and Icomoon icons.
Version: 1.0
ItalicAngle: 0
UnderlinePosition: 0
UnderlineWidth: 0
Ascent: 960
Descent: 64
InvalidEm: 0
sfntRevision: 0x00000000
LayerCount: 2
Layer: 0 1 "Back" 1
Layer: 1 1 "Fore" 0
XUID: [1021 84 -191449623 9606111]
StyleMap: 0x0040
FSType: 0
OS2Version: 4
OS2_WeightWidthSlopeOnly: 0
OS2_UseTypoMetrics: 0
CreationTime: 1676440146
ModificationTime: 1676490663
PfmFamily: 81
TTFWeight: 400
TTFWidth: 5
LineGap: 0
VLineGap: 0
Panose: 0 0 0 0 0 0 0 0 0 0
OS2TypoAscent: 960
OS2TypoAOffset: 0
OS2TypoDescent: -64
OS2TypoDOffset: 0
OS2TypoLinegap: 64
OS2WinAscent: 960
OS2WinAOffset: 0
OS2WinDescent: 64
OS2WinDOffset: 0
HheadAscent: 960
HheadAOffset: 0
HheadDescent: -64
HheadDOffset: 0
OS2SubXSize: 665
OS2SubYSize: 716
OS2SubXOff: 0
OS2SubYOff: 143
OS2SupXSize: 665
OS2SupYSize: 716
OS2SupXOff: 0
OS2SupYOff: 491
OS2StrikeYSize: 51
OS2StrikeYPos: 265
OS2CapHeight: 700
OS2XHeight: 510
OS2Vendor: 'PfEd'
OS2CodePages: 00000001.00000000
OS2UnicodeRanges: 00000001.10000000.00000000.00000000
Lookup: 1 0 0 "'aalt' Access All Alternates in Latin lookup 0" { "'aalt' Access All Alternates in Latin lookup 0 subtable"  } ['aalt' ('DFLT' <'dflt' > 'latn' <'AZE ' 'CAT ' 'CRT ' 'KAZ ' 'MOL ' 'ROM ' 'TAT ' 'TRK ' 'dflt' > ) ]
Lookup: 3 0 0 "'aalt' Access All Alternates in Latin lookup 1" { "'aalt' Access All Alternates in Latin lookup 1 subtable"  } ['aalt' ('DFLT' <'dflt' > 'latn' <'AZE ' 'CAT ' 'CRT ' 'KAZ ' 'MOL ' 'ROM ' 'TAT ' 'TRK ' 'dflt' > ) ]

StartChar: uni0000
Encoding: 0 0 0
Width: 0
GlyphClass: 1
Flags: W
LayerCount: 2
Fore
SplineSet
0 0 m 1,0,-1
 0 0 l 1,1,-1
 0 0 l 1,2,-1
 0 0 l 1,0,-1
EndSplineSet
Validated: 1
EndChar

StartChar: uni0001
Encoding: 1 1 1
Width: 0
GlyphClass: 1
Flags: W
LayerCount: 2
Fore
SplineSet
0 0 m 1,0,-1
 0 0 l 1,1,-1
 0 0 l 1,2,-1
 0 0 l 1,0,-1
EndSplineSet
Validated: 1
EndChar

StartChar: space
Encoding: 32 32 2
Width: 512
GlyphClass: 1
Flags: W
LayerCount: 2
Fore
SplineSet
0 0 m 1,0,-1
 0 0 l 1,1,-1
 0 0 l 1,2,-1
 0 0 l 1,0,-1
EndSplineSet
Validated: 1
EndChar

StartChar: exclam
Encoding: 33 33 3
Width: 260
GlyphClass: 1
Flags: W
LayerCount: 2
Fore
SplineSet
84 221 m 1,0,-1
 84 700 l 1,1,-1
 176 700 l 1,2,-1
 176 221 l 1,3,-1
 84 221 l 1,0,-1
130 -10 m 0,4,5
 103 -10 103 -10 83.5 9.5 c 128,-1,6
 64 29 64 29 64 56 c 256,7,8
 64 83 64 83 83.5 102.5 c 128,-1,9
 103 122 103 122 130 122 c 256,10,11
 157 122 157 122 176.5 102.5 c 128,-1,12
 196 83 196 83 196 56 c 0,13,14
 196 38 196 38 187.5 23 c 128,-1,15
 179 8 179 8 164 -1 c 128,-1,16
 149 -10 149 -10 130 -10 c 0,4,5
EndSplineSet
Validated: 1
Substitution2: "'case' Case-Sensitive Forms in Latin lookup 35 subtable" exclam.case
Substitution2: "'aalt' Access All Alternates in Latin lookup 0 subtable" exclam.case
EndChar

StartChar: quotedbl
Encoding: 34 34 4
Width: 435
GlyphClass: 1
Flags: W
LayerCount: 2
Fore
SplineSet
273 407 m 1,0,-1
 273 700 l 1,1,-1
 365 700 l 1,2,-1
 365 407 l 1,3,-1
 273 407 l 1,0,-1
70 407 m 1,4,-1
 70 700 l 1,5,-1
 162 700 l 1,6,-1
 162 407 l 1,7,-1
 70 407 l 1,4,-1
EndSplineSet
Validated: 1
EndChar

StartChar: numbersign
Encoding: 35 35 5
Width: 720
GlyphClass: 1
Flags: W
LayerCount: 2
Fore
SplineSet
145 0 m 1,0,-1
 171 182 l 1,1,-1
 24 182 l 1,2,-1
 24 257 l 1,3,-1
 180 257 l 1,4,-1
 207 448 l 1,5,-1
 58 448 l 1,6,-1
 58 523 l 1,7,-1
 216 523 l 1,8,-1
 241 700 l 1,9,-1
 319 700 l 1,10,-1
 294 523 l 1,11,-1
 462 523 l 1,12,-1
 487 700 l 1,13,-1
 564 700 l 1,14,-1
 539 523 l 1,15,-1
 688 523 l 1,16,-1
 688 448 l 1,17,-1
 530 448 l 1,18,-1
 504 257 l 1,19,-1
 654 257 l 1,20,-1
 654 182 l 1,21,-1
 494 182 l 1,22,-1
 469 0 l 1,23,-1
 391 0 l 1,24,-1
 416 182 l 1,25,-1
 248 182 l 1,26,-1
 223 0 l 1,27,-1
 145 0 l 1,0,-1
258 257 m 1,28,-1
 425 257 l 1,29,-1
 453 448 l 1,30,-1
 285 448 l 1,31,-1
 258 257 l 1,28,-1
EndSplineSet
Validated: 1
EndChar

StartChar: dollar
Encoding: 36 36 6
Width: 626
GlyphClass: 1
Flags: W
LayerCount: 2
Fore
SplineSet
280 -119 m 1,0,-1
 280 45 l 1,1,-1
 349 45 l 1,2,-1
 349 -119 l 1,3,-1
 280 -119 l 1,0,-1
280 660 m 1,4,-1
 280 819 l 1,5,-1
 349 819 l 1,6,-1
 349 660 l 1,7,-1
 280 660 l 1,4,-1
73 0 m 1,8,-1
 73 85 l 1,9,-1
 376 85 l 2,10,11
 411 85 411 85 436 101.5 c 128,-1,12
 461 118 461 118 475 144 c 128,-1,13
 489 170 489 170 489 199 c 0,14,15
 489 229 489 229 475.5 254.5 c 128,-1,16
 462 280 462 280 437.5 295.5 c 128,-1,17
 413 311 413 311 378 311 c 2,18,-1
 246 311 l 2,19,20
 187 311 187 311 142 335.5 c 128,-1,21
 97 360 97 360 71.5 403.5 c 128,-1,22
 46 447 46 447 46 502 c 0,23,24
 46 558 46 558 70.5 603 c 128,-1,25
 95 648 95 648 139.5 674 c 128,-1,26
 184 700 184 700 242 700 c 2,27,-1
 539 700 l 1,28,-1
 539 615 l 1,29,-1
 251 615 l 2,30,31
 218 615 218 615 193 599.5 c 128,-1,32
 168 584 168 584 155 559.5 c 128,-1,33
 142 535 142 535 142 507 c 0,34,35
 142 480 142 480 154.5 455.5 c 128,-1,36
 167 431 167 431 191.5 416 c 128,-1,37
 216 401 216 401 248 401 c 2,38,-1
 383 401 l 2,39,40
 446 401 446 401 491 376 c 128,-1,41
 536 351 536 351 560 308 c 128,-1,42
 584 265 584 265 584 210 c 0,43,44
 584 149 584 149 559.5 101.5 c 128,-1,45
 535 54 535 54 490 27 c 128,-1,46
 445 0 445 0 387 0 c 2,47,-1
 73 0 l 1,8,-1
EndSplineSet
Validated: 5
Substitution2: "'rvrn' Required Variation Alternates in Latin lookup 42 subtable" dollar.REV_BRACKET.800
EndChar

StartChar: percent
Encoding: 37 37 7
Width: 910
GlyphClass: 1
Flags: W
LayerCount: 2
Fore
SplineSet
692 -12 m 256,0,1
 647 -12 647 -12 608.5 8 c 128,-1,2
 570 28 570 28 547 63 c 128,-1,3
 524 98 524 98 524 144 c 2,4,-1
 524 216 l 2,5,6
 524 262 524 262 547 297 c 128,-1,7
 570 332 570 332 608.5 352 c 128,-1,8
 647 372 647 372 692 372 c 256,9,10
 737 372 737 372 775 352 c 128,-1,11
 813 332 813 332 836 297 c 128,-1,12
 859 262 859 262 859 216 c 2,13,-1
 859 144 l 2,14,15
 859 98 859 98 836 63 c 128,-1,16
 813 28 813 28 775 8 c 128,-1,17
 737 -12 737 -12 692 -12 c 256,0,1
218 328 m 0,18,19
 174 328 174 328 135.5 348 c 128,-1,20
 97 368 97 368 74 403.5 c 128,-1,21
 51 439 51 439 51 484 c 2,22,-1
 51 556 l 2,23,24
 51 602 51 602 74 637.5 c 128,-1,25
 97 673 97 673 135.5 692.5 c 128,-1,26
 174 712 174 712 218 712 c 0,27,28
 264 712 264 712 302 692.5 c 128,-1,29
 340 673 340 673 363 637.5 c 128,-1,30
 386 602 386 602 386 556 c 2,31,-1
 386 484 l 2,32,33
 386 439 386 439 363 403.5 c 128,-1,34
 340 368 340 368 302 348 c 128,-1,35
 264 328 264 328 218 328 c 0,18,19
219 395 m 0,36,37
 243 395 243 395 264.5 407 c 128,-1,38
 286 419 286 419 299.5 440.5 c 128,-1,39
 313 462 313 462 313 492 c 2,40,-1
 313 549 l 2,41,42
 313 579 313 579 299.5 600.5 c 128,-1,43
 286 622 286 622 264.5 634 c 128,-1,44
 243 646 243 646 219 646 c 0,45,46
 194 646 194 646 172.5 634 c 128,-1,47
 151 622 151 622 137.5 600.5 c 128,-1,48
 124 579 124 579 124 549 c 2,49,-1
 124 492 l 2,50,51
 124 462 124 462 137.5 440.5 c 128,-1,52
 151 419 151 419 172.5 407 c 128,-1,53
 194 395 194 395 219 395 c 0,36,37
692 55 m 256,54,55
 717 55 717 55 738.5 67 c 128,-1,56
 760 79 760 79 773.5 100.5 c 128,-1,57
 787 122 787 122 787 152 c 2,58,-1
 787 208 l 2,59,60
 787 238 787 238 773.5 260 c 128,-1,61
 760 282 760 282 738.5 294 c 128,-1,62
 717 306 717 306 692 306 c 256,63,64
 667 306 667 306 645.5 294 c 128,-1,65
 624 282 624 282 610.5 260 c 128,-1,66
 597 238 597 238 597 208 c 2,67,-1
 597 152 l 2,68,69
 597 122 597 122 610.5 100.5 c 128,-1,70
 624 79 624 79 645.5 67 c 128,-1,71
 667 55 667 55 692 55 c 256,54,55
175 0 m 1,72,-1
 642 700 l 1,73,-1
 718 700 l 1,74,-1
 251 0 l 1,75,-1
 175 0 l 1,72,-1
EndSplineSet
Validated: 1
EndChar

StartChar: ampersand
Encoding: 38 38 8
Width: 830
GlyphClass: 1
Flags: W
LayerCount: 2
Fore
SplineSet
668 -216 m 0,0,1
 626 -216 626 -216 591 -198 c 128,-1,2
 556 -180 556 -180 536 -148 c 128,-1,3
 516 -116 516 -116 516 -74 c 0,4,5
 516 -33 516 -33 536 -2.5 c 128,-1,6
 556 28 556 28 588.5 47.5 c 128,-1,7
 621 67 621 67 657 72 c 1,8,9
 653 76 653 76 644 83.5 c 128,-1,10
 635 91 635 91 615 108 c 2,11,-1
 557 155 l 1,12,13
 527 101 527 101 487 63.5 c 128,-1,14
 447 26 447 26 397 7 c 128,-1,15
 347 -12 347 -12 285 -12 c 0,16,17
 209 -12 209 -12 152.5 17.5 c 128,-1,18
 96 47 96 47 64 99.5 c 128,-1,19
 32 152 32 152 32 222 c 0,20,21
 32 268 32 268 51 312 c 128,-1,22
 70 356 70 356 106.5 392.5 c 128,-1,23
 143 429 143 429 196 452 c 1,24,25
 181 466 181 466 166 484.5 c 128,-1,26
 151 503 151 503 141.5 525 c 128,-1,27
 132 547 132 547 132 571 c 0,28,29
 132 609 132 609 152 641.5 c 128,-1,30
 172 674 172 674 206.5 693.5 c 128,-1,31
 241 713 241 713 285 713 c 0,32,33
 331 713 331 713 364.5 695 c 128,-1,34
 398 677 398 677 417 645.5 c 128,-1,35
 436 614 436 614 436 572 c 0,36,37
 436 529 436 529 409.5 494.5 c 128,-1,38
 383 460 383 460 336 438 c 1,39,-1
 526 283 l 1,40,-1
 531 292 l 1,41,42
 555 347 555 347 575 382.5 c 128,-1,43
 595 418 595 418 616 439 c 128,-1,44
 637 460 637 460 664 468.5 c 128,-1,45
 691 477 691 477 728 477 c 2,46,-1
 777 477 l 1,47,-1
 777 404 l 1,48,-1
 732 404 l 2,49,50
 707 404 707 404 690.5 397 c 128,-1,51
 674 390 674 390 660 372 c 128,-1,52
 646 354 646 354 631 322 c 128,-1,53
 616 290 616 290 594 241 c 2,54,-1
 590 231 l 1,55,-1
 640 191 l 2,56,57
 708 138 708 138 748 95.5 c 128,-1,58
 788 53 788 53 806 15 c 128,-1,59
 824 -23 824 -23 824 -63 c 0,60,61
 824 -106 824 -106 804.5 -141 c 128,-1,62
 785 -176 785 -176 750 -196 c 128,-1,63
 715 -216 715 -216 668 -216 c 0,0,1
291 70 m 0,64,65
 335 70 335 70 370.5 84.5 c 128,-1,66
 406 99 406 99 436 129.5 c 128,-1,67
 466 160 466 160 493 208 c 1,68,-1
 255 403 l 1,69,70
 214 385 214 385 184.5 358 c 128,-1,71
 155 331 155 331 140 299 c 128,-1,72
 125 267 125 267 125 230 c 0,73,74
 125 186 125 186 146 149.5 c 128,-1,75
 167 113 167 113 204.5 91.5 c 128,-1,76
 242 70 242 70 291 70 c 0,64,65
669 -143 m 0,77,78
 700 -143 700 -143 720.5 -121.5 c 128,-1,79
 741 -100 741 -100 741 -64 c 0,80,81
 741 -45 741 -45 734 -25 c 128,-1,82
 727 -5 727 -5 709 13 c 1,83,84
 678 11 678 11 653 0 c 128,-1,85
 628 -11 628 -11 613.5 -30.5 c 128,-1,86
 599 -50 599 -50 599 -77 c 0,87,88
 599 -106 599 -106 619 -124.5 c 128,-1,89
 639 -143 639 -143 669 -143 c 0,77,78
278 486 m 1,90,91
 299 496 299 496 316 509 c 128,-1,92
 333 522 333 522 343 538 c 128,-1,93
 353 554 353 554 353 573 c 0,94,95
 353 600 353 600 334.5 619.5 c 128,-1,96
 316 639 316 639 283 639 c 0,97,98
 262 639 262 639 246.5 629.5 c 128,-1,99
 231 620 231 620 223 605 c 128,-1,100
 215 590 215 590 215 573 c 0,101,102
 215 554 215 554 224.5 538.5 c 128,-1,103
 234 523 234 523 249 510 c 128,-1,104
 264 497 264 497 278 486 c 1,90,91
EndSplineSet
Validated: 1
Substitution2: "'ss01' Style Set 1 in Latin lookup 39 subtable" ampersand.ss01
Substitution2: "'aalt' Access All Alternates in Latin lookup 0 subtable" ampersand.ss01
EndChar

StartChar: quotesingle
Encoding: 39 39 9
Width: 232
GlyphClass: 1
Flags: W
LayerCount: 2
Fore
SplineSet
70 407 m 1,0,-1
 70 700 l 1,1,-1
 162 700 l 1,2,-1
 162 407 l 1,3,-1
 70 407 l 1,0,-1
EndSplineSet
Validated: 1
EndChar

StartChar: parenleft
Encoding: 40 40 10
Width: 346
GlyphClass: 1
Flags: W
LayerCount: 2
Fore
SplineSet
241 -180 m 1,0,1
 177 -103 177 -103 133.5 10.5 c 128,-1,2
 90 124 90 124 90 275 c 256,3,4
 90 426 90 426 133.5 540 c 128,-1,5
 177 654 177 654 241 730 c 1,6,-1
 346 730 l 1,7,8
 278 654 278 654 232 540 c 128,-1,9
 186 426 186 426 186 275 c 256,10,11
 186 124 186 124 232 10.5 c 128,-1,12
 278 -103 278 -103 346 -180 c 1,13,-1
 241 -180 l 1,0,1
EndSplineSet
Validated: 1
Substitution2: "'case' Case-Sensitive Forms in Latin lookup 35 subtable" parenleft.case
Substitution2: "'aalt' Access All Alternates in Latin lookup 0 subtable" parenleft.case
EndChar

StartChar: parenright
Encoding: 41 41 11
Width: 346
GlyphClass: 1
Flags: W
LayerCount: 2
Fore
SplineSet
0 -180 m 1,0,1
 68 -103 68 -103 114 10.5 c 128,-1,2
 160 124 160 124 160 275 c 256,3,4
 160 426 160 426 114 540 c 128,-1,5
 68 654 68 654 0 730 c 1,6,-1
 105 730 l 1,7,8
 169 654 169 654 212.5 540 c 128,-1,9
 256 426 256 426 256 275 c 256,10,11
 256 124 256 124 212.5 10.5 c 128,-1,12
 169 -103 169 -103 105 -180 c 1,13,-1
 0 -180 l 1,0,1
EndSplineSet
Validated: 1
Substitution2: "'case' Case-Sensitive Forms in Latin lookup 35 subtable" parenright.case
Substitution2: "'aalt' Access All Alternates in Latin lookup 0 subtable" parenright.case
EndChar

StartChar: asterisk
Encoding: 42 42 12
Width: 453
GlyphClass: 1
Flags: W
LayerCount: 2
Fore
SplineSet
193 328 m 1,0,-1
 193 457 l 1,1,-1
 81 393 l 1,2,-1
 48 450 l 1,3,-1
 160 514 l 1,4,-1
 48 579 l 1,5,-1
 81 636 l 1,6,-1
 193 572 l 1,7,-1
 193 701 l 1,8,-1
 260 701 l 1,9,-1
 260 572 l 1,10,-1
 372 636 l 1,11,-1
 405 579 l 1,12,-1
 293 514 l 1,13,-1
 405 450 l 1,14,-1
 372 393 l 1,15,-1
 260 457 l 1,16,-1
 260 328 l 1,17,-1
 193 328 l 1,0,-1
EndSplineSet
Validated: 1
EndChar

StartChar: plus
Encoding: 43 43 13
Width: 586
GlyphClass: 1
Flags: W
LayerCount: 2
Fore
SplineSet
249 124 m 1,0,-1
 249 307 l 1,1,-1
 64 307 l 1,2,-1
 64 389 l 1,3,-1
 249 389 l 1,4,-1
 249 573 l 1,5,-1
 336 573 l 1,6,-1
 336 389 l 1,7,-1
 522 389 l 1,8,-1
 522 307 l 1,9,-1
 336 307 l 1,10,-1
 336 124 l 1,11,-1
 249 124 l 1,0,-1
EndSplineSet
Validated: 1
EndChar

StartChar: comma
Encoding: 44 44 14
Width: 208
GlyphClass: 1
Flags: W
LayerCount: 2
Fore
SplineSet
38 -150 m 1,0,-1
 83 -6 l 1,1,2
 61 1 61 1 49.5 19.5 c 128,-1,3
 38 38 38 38 38 57 c 0,4,5
 38 85 38 85 57.5 103.5 c 128,-1,6
 77 122 77 122 104 122 c 0,7,8
 134 122 134 122 152 102 c 128,-1,9
 170 82 170 82 170 54 c 0,10,11
 170 35 170 35 167 18.5 c 128,-1,12
 164 2 164 2 156 -19 c 2,13,-1
 116 -150 l 1,14,-1
 38 -150 l 1,0,-1
EndSplineSet
Validated: 1
EndChar

StartChar: hyphen
Encoding: 45 45 15
Width: 363
GlyphClass: 1
Flags: W
LayerCount: 2
Fore
SplineSet
40 219 m 1,0,-1
 40 303 l 1,1,-1
 323 303 l 1,2,-1
 323 219 l 1,3,-1
 40 219 l 1,0,-1
EndSplineSet
Validated: 1
EndChar

StartChar: period
Encoding: 46 46 16
Width: 208
GlyphClass: 1
Flags: W
LayerCount: 2
Fore
SplineSet
104 -10 m 0,0,1
 77 -10 77 -10 57.5 9.5 c 128,-1,2
 38 29 38 29 38 56 c 256,3,4
 38 83 38 83 57.5 102.5 c 128,-1,5
 77 122 77 122 104 122 c 256,6,7
 131 122 131 122 150.5 102.5 c 128,-1,8
 170 83 170 83 170 56 c 0,9,10
 170 38 170 38 161.5 23 c 128,-1,11
 153 8 153 8 138 -1 c 128,-1,12
 123 -10 123 -10 104 -10 c 0,0,1
EndSplineSet
Validated: 1
EndChar

StartChar: slash
Encoding: 47 47 17
Width: 368
GlyphClass: 1
Flags: W
LayerCount: 2
Fore
SplineSet
-26 -100 m 1,0,-1
 281 730 l 1,1,-1
 369 730 l 1,2,-1
 62 -100 l 1,3,-1
 -26 -100 l 1,0,-1
EndSplineSet
Validated: 1
Substitution2: "'frac' Diagonal Fractions in Latin lookup 23 subtable" fraction
Substitution2: "'aalt' Access All Alternates in Latin lookup 0 subtable" fraction
EndChar

StartChar: zero
Encoding: 48 48 18
Width: 648
GlyphClass: 1
Flags: W
LayerCount: 2
Fore
SplineSet
325 -13 m 0,0,1
 252 -13 252 -13 194.5 19 c 128,-1,2
 137 51 137 51 103.5 106 c 128,-1,3
 70 161 70 161 70 229 c 2,4,-1
 70 471 l 2,5,6
 70 539 70 539 103.5 594 c 128,-1,7
 137 649 137 649 194.5 680.5 c 128,-1,8
 252 712 252 712 325 712 c 0,9,10
 397 712 397 712 454 680 c 128,-1,11
 511 648 511 648 544.5 593.5 c 128,-1,12
 578 539 578 539 578 471 c 2,13,-1
 578 229 l 2,14,15
 578 161 578 161 544.5 106 c 128,-1,16
 511 51 511 51 454 19 c 128,-1,17
 397 -13 397 -13 325 -13 c 0,0,1
325 72 m 0,18,19
 368 72 368 72 403.5 92 c 128,-1,20
 439 112 439 112 460.5 145.5 c 128,-1,21
 482 179 482 179 482 220 c 2,22,-1
 482 480 l 2,23,24
 482 521 482 521 460.5 554.5 c 128,-1,25
 439 588 439 588 403.5 608 c 128,-1,26
 368 628 368 628 325 628 c 256,27,28
 282 628 282 628 245.5 608 c 128,-1,29
 209 588 209 588 187.5 554.5 c 128,-1,30
 166 521 166 521 166 480 c 2,31,-1
 166 220 l 2,32,33
 166 179 166 179 187.5 145.5 c 128,-1,34
 209 112 209 112 245 92 c 128,-1,35
 281 72 281 72 325 72 c 0,18,19
EndSplineSet
Validated: 1
Substitution2: "'ss01' Style Set 1 in Latin lookup 39 subtable" zero.ss01
Substitution2: "'zero' Slashed Zero in Latin lookup 38 subtable" zero.zero
Substitution2: "'onum' Oldstyle Figures in Latin lookup 34 subtable" zero.osf
Substitution2: "'tnum' Tabular Numbers in Latin lookup 33 subtable" zero.tf
Substitution2: "'frac' Diagonal Fractions in Latin lookup 24 subtable" zero.numr
Substitution2: "'dnom' Denominators in Latin lookup 22 subtable" zero.dnom
Substitution2: "'numr' Numerators in Latin lookup 21 subtable" zero.numr
AlternateSubs2: "'aalt' Access All Alternates in Latin lookup 1 subtable" zero.zero zero.osf zero.ss01 zero.tf zero.dnom zero.numr
EndChar

StartChar: one
Encoding: 49 49 19
Width: 458
GlyphClass: 1
Flags: W
LayerCount: 2
Fore
SplineSet
54 0 m 1,0,-1
 54 85 l 1,1,-1
 196 85 l 1,2,-1
 196 615 l 1,3,-1
 61 615 l 1,4,-1
 61 700 l 1,5,-1
 293 700 l 1,6,-1
 293 85 l 1,7,-1
 419 85 l 1,8,-1
 419 0 l 1,9,-1
 54 0 l 1,0,-1
EndSplineSet
Validated: 1
Substitution2: "'ss01' Style Set 1 in Latin lookup 39 subtable" one.ss01
Substitution2: "'onum' Oldstyle Figures in Latin lookup 34 subtable" one.osf
Substitution2: "'tnum' Tabular Numbers in Latin lookup 33 subtable" one.tf
Substitution2: "'frac' Diagonal Fractions in Latin lookup 24 subtable" one.numr
Substitution2: "'dnom' Denominators in Latin lookup 22 subtable" one.dnom
Substitution2: "'numr' Numerators in Latin lookup 21 subtable" one.numr
Substitution2: "'sups' Superscript in Latin lookup 20 subtable" uni00B9
AlternateSubs2: "'aalt' Access All Alternates in Latin lookup 1 subtable" one.osf one.ss01 one.tf one.dnom one.numr uni00B9
EndChar

StartChar: two
Encoding: 50 50 20
Width: 552
GlyphClass: 1
Flags: W
LayerCount: 2
Fore
SplineSet
160 0 m 2,0,1
 123 0 123 0 96 15.5 c 128,-1,2
 69 31 69 31 55 56 c 128,-1,3
 41 81 41 81 41 112 c 0,4,5
 41 142 41 142 56 170.5 c 128,-1,6
 71 199 71 199 98 218 c 2,7,-1
 326 381 l 2,8,9
 359 405 359 405 376 436 c 128,-1,10
 393 467 393 467 393 499 c 0,11,12
 393 533 393 533 377 558.5 c 128,-1,13
 361 584 361 584 330.5 599.5 c 128,-1,14
 300 615 300 615 256 615 c 2,15,-1
 75 615 l 1,16,-1
 75 700 l 1,17,-1
 266 700 l 2,18,19
 337 700 337 700 386.5 672.5 c 128,-1,20
 436 645 436 645 462.5 599.5 c 128,-1,21
 489 554 489 554 489 499 c 256,22,23
 489 444 489 444 463.5 396.5 c 128,-1,24
 438 349 438 349 384 312 c 2,25,-1
 157 154 l 2,26,27
 147 148 147 148 141.5 138.5 c 128,-1,28
 136 129 136 129 136 119 c 0,29,30
 136 104 136 104 146.5 94.5 c 128,-1,31
 157 85 157 85 176 85 c 2,32,-1
 506 85 l 1,33,-1
 506 0 l 1,34,-1
 160 0 l 2,0,1
EndSplineSet
Validated: 1
Substitution2: "'onum' Oldstyle Figures in Latin lookup 34 subtable" two.osf
Substitution2: "'tnum' Tabular Numbers in Latin lookup 33 subtable" two.tf
Substitution2: "'frac' Diagonal Fractions in Latin lookup 24 subtable" two.numr
Substitution2: "'dnom' Denominators in Latin lookup 22 subtable" two.dnom
Substitution2: "'numr' Numerators in Latin lookup 21 subtable" two.numr
Substitution2: "'sups' Superscript in Latin lookup 20 subtable" uni00B2
AlternateSubs2: "'aalt' Access All Alternates in Latin lookup 1 subtable" two.osf two.tf two.dnom two.numr uni00B2
EndChar

StartChar: three
Encoding: 51 51 21
Width: 555
GlyphClass: 1
Flags: W
LayerCount: 2
Fore
SplineSet
54 0 m 1,0,-1
 54 85 l 1,1,-1
 288 85 l 2,2,3
 323 85 323 85 348.5 101 c 128,-1,4
 374 117 374 117 388 143 c 128,-1,5
 402 169 402 169 402 199 c 0,6,7
 402 230 402 230 388 256.5 c 128,-1,8
 374 283 374 283 347 299.5 c 128,-1,9
 320 316 320 316 283 316 c 2,10,-1
 90 316 l 1,11,-1
 90 401 l 1,12,-1
 290 401 l 2,13,14
 325 401 325 401 350 416 c 128,-1,15
 375 431 375 431 388.5 455.5 c 128,-1,16
 402 480 402 480 402 508 c 256,17,18
 402 536 402 536 388.5 560.5 c 128,-1,19
 375 585 375 585 350 600 c 128,-1,20
 325 615 325 615 290 615 c 2,21,-1
 54 615 l 1,22,-1
 54 700 l 1,23,-1
 303 700 l 2,24,25
 360 700 360 700 404 673.5 c 128,-1,26
 448 647 448 647 473 603.5 c 128,-1,27
 498 560 498 560 498 509 c 256,28,29
 498 458 498 458 473 418.5 c 128,-1,30
 448 379 448 379 404 355 c 1,31,32
 435 341 435 341 456 316 c 128,-1,33
 477 291 477 291 487.5 261 c 128,-1,34
 498 231 498 231 498 199 c 0,35,36
 498 146 498 146 473 100.5 c 128,-1,37
 448 55 448 55 404 27.5 c 128,-1,38
 360 0 360 0 302 0 c 2,39,-1
 54 0 l 1,0,-1
EndSplineSet
Validated: 1
Substitution2: "'onum' Oldstyle Figures in Latin lookup 34 subtable" three.osf
Substitution2: "'tnum' Tabular Numbers in Latin lookup 33 subtable" three.tf
Substitution2: "'frac' Diagonal Fractions in Latin lookup 24 subtable" three.numr
Substitution2: "'dnom' Denominators in Latin lookup 22 subtable" three.dnom
Substitution2: "'numr' Numerators in Latin lookup 21 subtable" three.numr
Substitution2: "'sups' Superscript in Latin lookup 20 subtable" uni00B3
AlternateSubs2: "'aalt' Access All Alternates in Latin lookup 1 subtable" three.osf three.tf three.dnom three.numr uni00B3
EndChar

StartChar: four
Encoding: 52 52 22
Width: 643
GlyphClass: 1
Flags: W
LayerCount: 2
Fore
SplineSet
404 0 m 1,0,-1
 404 159 l 1,1,-1
 169 159 l 2,2,3
 134 159 134 159 106.5 175.5 c 128,-1,4
 79 192 79 192 63 219 c 128,-1,5
 47 246 47 246 47 278 c 0,6,7
 47 296 47 296 52 313.5 c 128,-1,8
 57 331 57 331 64 346 c 2,9,-1
 260 700 l 1,10,-1
 368 700 l 1,11,-1
 152 314 l 2,12,13
 147 305 147 305 145 298 c 128,-1,14
 143 291 143 291 143 283 c 0,15,16
 143 267 143 267 152.5 255.5 c 128,-1,17
 162 244 162 244 181 244 c 2,18,-1
 404 244 l 1,19,-1
 404 497 l 1,20,-1
 499 497 l 1,21,-1
 499 244 l 1,22,-1
 595 244 l 1,23,-1
 595 159 l 1,24,-1
 499 159 l 1,25,-1
 499 0 l 1,26,-1
 404 0 l 1,0,-1
EndSplineSet
Validated: 1
Substitution2: "'onum' Oldstyle Figures in Latin lookup 34 subtable" four.osf
Substitution2: "'tnum' Tabular Numbers in Latin lookup 33 subtable" four.tf
Substitution2: "'frac' Diagonal Fractions in Latin lookup 24 subtable" four.numr
Substitution2: "'dnom' Denominators in Latin lookup 22 subtable" four.dnom
Substitution2: "'numr' Numerators in Latin lookup 21 subtable" four.numr
Substitution2: "'sups' Superscript in Latin lookup 20 subtable" uni2074
AlternateSubs2: "'aalt' Access All Alternates in Latin lookup 1 subtable" four.osf four.tf four.dnom four.numr uni2074
EndChar

StartChar: five
Encoding: 53 53 23
Width: 556
GlyphClass: 1
Flags: W
LayerCount: 2
Fore
SplineSet
55 0 m 1,0,-1
 55 85 l 1,1,-1
 271 85 l 2,2,3
 313 85 313 85 344.5 104.5 c 128,-1,4
 376 124 376 124 393 156 c 128,-1,5
 410 188 410 188 410 224 c 0,6,7
 410 259 410 259 393.5 289.5 c 128,-1,8
 377 320 377 320 346.5 338.5 c 128,-1,9
 316 357 316 357 275 357 c 2,10,-1
 73 357 l 1,11,-1
 73 700 l 1,12,-1
 460 700 l 1,13,-1
 460 615 l 1,14,-1
 165 615 l 1,15,-1
 165 440 l 1,16,-1
 287 440 l 2,17,18
 352 440 352 440 401 410 c 128,-1,19
 450 380 450 380 477.5 330.5 c 128,-1,20
 505 281 505 281 505 223 c 0,21,22
 505 164 505 164 477 113 c 128,-1,23
 449 62 449 62 399 31 c 128,-1,24
 349 0 349 0 283 0 c 2,25,-1
 55 0 l 1,0,-1
EndSplineSet
Validated: 1
Substitution2: "'onum' Oldstyle Figures in Latin lookup 34 subtable" five.osf
Substitution2: "'tnum' Tabular Numbers in Latin lookup 33 subtable" five.tf
Substitution2: "'frac' Diagonal Fractions in Latin lookup 24 subtable" five.numr
Substitution2: "'dnom' Denominators in Latin lookup 22 subtable" five.dnom
Substitution2: "'numr' Numerators in Latin lookup 21 subtable" five.numr
AlternateSubs2: "'aalt' Access All Alternates in Latin lookup 1 subtable" five.osf five.tf five.dnom five.numr
EndChar

StartChar: six
Encoding: 54 54 24
Width: 621
GlyphClass: 1
Flags: W
LayerCount: 2
Fore
SplineSet
311 -13 m 256,0,1
 236 -13 236 -13 177.5 16.5 c 128,-1,2
 119 46 119 46 85.5 98.5 c 128,-1,3
 52 151 52 151 52 221 c 0,4,5
 52 286 52 286 77.5 346 c 128,-1,6
 103 406 103 406 148 472 c 2,7,-1
 300 700 l 1,8,-1
 411 700 l 1,9,-1
 223 416 l 1,10,11
 246 434 246 434 273.5 442.5 c 128,-1,12
 301 451 301 451 330 451 c 0,13,14
 404 451 404 451 458 419.5 c 128,-1,15
 512 388 512 388 540.5 336 c 128,-1,16
 569 284 569 284 569 221 c 0,17,18
 569 151 569 151 535.5 98.5 c 128,-1,19
 502 46 502 46 444 16.5 c 128,-1,20
 386 -13 386 -13 311 -13 c 256,0,1
311 72 m 256,21,22
 358 72 358 72 395 90 c 128,-1,23
 432 108 432 108 452.5 142 c 128,-1,24
 473 176 473 176 473 222 c 0,25,26
 473 260 473 260 455.5 294 c 128,-1,27
 438 328 438 328 402 348.5 c 128,-1,28
 366 369 366 369 313 369 c 0,29,30
 266 369 266 369 228.5 350.5 c 128,-1,31
 191 332 191 332 169 298.5 c 128,-1,32
 147 265 147 265 147 221 c 0,33,34
 147 175 147 175 168.5 141.5 c 128,-1,35
 190 108 190 108 227 90 c 128,-1,36
 264 72 264 72 311 72 c 256,21,22
EndSplineSet
Validated: 1
Substitution2: "'onum' Oldstyle Figures in Latin lookup 34 subtable" six.osf
Substitution2: "'tnum' Tabular Numbers in Latin lookup 33 subtable" six.tf
Substitution2: "'frac' Diagonal Fractions in Latin lookup 24 subtable" six.numr
Substitution2: "'dnom' Denominators in Latin lookup 22 subtable" six.dnom
Substitution2: "'numr' Numerators in Latin lookup 21 subtable" six.numr
AlternateSubs2: "'aalt' Access All Alternates in Latin lookup 1 subtable" six.osf six.tf six.dnom six.numr
EndChar

StartChar: seven
Encoding: 55 55 25
Width: 523
GlyphClass: 1
Flags: W
LayerCount: 2
Fore
SplineSet
88 0 m 1,0,-1
 376 558 l 2,1,2
 385 576 385 576 385 590 c 0,3,4
 385 601 385 601 377.5 608 c 128,-1,5
 370 615 370 615 352 615 c 2,6,-1
 25 615 l 1,7,-1
 25 700 l 1,8,-1
 365 700 l 2,9,10
 401 700 401 700 427 685.5 c 128,-1,11
 453 671 453 671 467.5 647.5 c 128,-1,12
 482 624 482 624 482 595 c 0,13,14
 482 578 482 578 477.5 560.5 c 128,-1,15
 473 543 473 543 466 528 c 2,16,-1
 196 0 l 1,17,-1
 88 0 l 1,0,-1
EndSplineSet
Validated: 1
Substitution2: "'ss01' Style Set 1 in Latin lookup 39 subtable" seven.ss01
Substitution2: "'onum' Oldstyle Figures in Latin lookup 34 subtable" seven.osf
Substitution2: "'tnum' Tabular Numbers in Latin lookup 33 subtable" seven.tf
Substitution2: "'frac' Diagonal Fractions in Latin lookup 24 subtable" seven.numr
Substitution2: "'dnom' Denominators in Latin lookup 22 subtable" seven.dnom
Substitution2: "'numr' Numerators in Latin lookup 21 subtable" seven.numr
AlternateSubs2: "'aalt' Access All Alternates in Latin lookup 1 subtable" seven.osf seven.ss01 seven.tf seven.dnom seven.numr
EndChar

StartChar: eight
Encoding: 56 56 26
Width: 643
GlyphClass: 1
Flags: W
LayerCount: 2
Fore
SplineSet
321 -12 m 0,0,1
 238 -12 238 -12 179 17 c 128,-1,2
 120 46 120 46 88.5 94.5 c 128,-1,3
 57 143 57 143 57 199 c 0,4,5
 57 233 57 233 69 264.5 c 128,-1,6
 81 296 81 296 106.5 322.5 c 128,-1,7
 132 349 132 349 172 368 c 1,8,9
 123 394 123 394 99 433 c 128,-1,10
 75 472 75 472 75 515 c 0,11,12
 75 568 75 568 104.5 612.5 c 128,-1,13
 134 657 134 657 189 684.5 c 128,-1,14
 244 712 244 712 321 712 c 0,15,16
 399 712 399 712 454 684.5 c 128,-1,17
 509 657 509 657 538 612.5 c 128,-1,18
 567 568 567 568 567 515 c 0,19,20
 567 472 567 472 543.5 433 c 128,-1,21
 520 394 520 394 470 368 c 1,22,23
 511 349 511 349 536.5 322.5 c 128,-1,24
 562 296 562 296 574 264.5 c 128,-1,25
 586 233 586 233 586 199 c 0,26,27
 586 143 586 143 554.5 94.5 c 128,-1,28
 523 46 523 46 464 17 c 128,-1,29
 405 -12 405 -12 321 -12 c 0,0,1
321 72 m 0,30,31
 376 72 376 72 413.5 90.5 c 128,-1,32
 451 109 451 109 470.5 138 c 128,-1,33
 490 167 490 167 490 200 c 0,34,35
 490 254 490 254 446 290 c 128,-1,36
 402 326 402 326 321 326 c 0,37,38
 241 326 241 326 197 290 c 128,-1,39
 153 254 153 254 153 200 c 0,40,41
 153 167 153 167 172.5 138 c 128,-1,42
 192 109 192 109 229.5 90.5 c 128,-1,43
 267 72 267 72 321 72 c 0,30,31
321 408 m 0,44,45
 393 408 393 408 432.5 438 c 128,-1,46
 472 468 472 468 472 517 c 0,47,48
 472 547 472 547 454.5 571.5 c 128,-1,49
 437 596 437 596 403.5 611.5 c 128,-1,50
 370 627 370 627 321 627 c 0,51,52
 273 627 273 627 239.5 611.5 c 128,-1,53
 206 596 206 596 188.5 571.5 c 128,-1,54
 171 547 171 547 171 517 c 0,55,56
 171 468 171 468 210.5 438 c 128,-1,57
 250 408 250 408 321 408 c 0,44,45
EndSplineSet
Validated: 1
Substitution2: "'onum' Oldstyle Figures in Latin lookup 34 subtable" eight.osf
Substitution2: "'tnum' Tabular Numbers in Latin lookup 33 subtable" eight.tf
Substitution2: "'frac' Diagonal Fractions in Latin lookup 24 subtable" eight.numr
Substitution2: "'dnom' Denominators in Latin lookup 22 subtable" eight.dnom
Substitution2: "'numr' Numerators in Latin lookup 21 subtable" eight.numr
AlternateSubs2: "'aalt' Access All Alternates in Latin lookup 1 subtable" eight.osf eight.tf eight.dnom eight.numr
EndChar

StartChar: nine
Encoding: 57 57 27
Width: 621
GlyphClass: 1
Flags: W
LayerCount: 2
Fore
SplineSet
206 0 m 1,0,-1
 398 289 l 1,1,2
 375 270 375 270 348 262 c 128,-1,3
 321 254 321 254 292 254 c 0,4,5
 217 254 217 254 163 284.5 c 128,-1,6
 109 315 109 315 80.5 367 c 128,-1,7
 52 419 52 419 52 480 c 0,8,9
 52 542 52 542 82 595 c 128,-1,10
 112 648 112 648 170 680 c 128,-1,11
 228 712 228 712 310 712 c 0,12,13
 385 712 385 712 443.5 683 c 128,-1,14
 502 654 502 654 535.5 601.5 c 128,-1,15
 569 549 569 549 569 479 c 0,16,17
 569 436 569 436 557.5 396 c 128,-1,18
 546 356 546 356 524.5 316.5 c 128,-1,19
 503 277 503 277 473 233 c 2,20,-1
 317 0 l 1,21,-1
 206 0 l 1,0,-1
309 336 m 0,22,23
 356 336 356 336 393.5 354.5 c 128,-1,24
 431 373 431 373 452 405 c 128,-1,25
 473 437 473 437 473 479 c 0,26,27
 473 525 473 525 452 558.5 c 128,-1,28
 431 592 431 592 394 610 c 128,-1,29
 357 628 357 628 310 628 c 0,30,31
 256 628 256 628 220 607 c 128,-1,32
 184 586 184 586 165.5 552.5 c 128,-1,33
 147 519 147 519 147 481 c 256,34,35
 147 443 147 443 165 410 c 128,-1,36
 183 377 183 377 219 356.5 c 128,-1,37
 255 336 255 336 309 336 c 0,22,23
EndSplineSet
Validated: 1
Substitution2: "'ss01' Style Set 1 in Latin lookup 39 subtable" nine.ss01
Substitution2: "'onum' Oldstyle Figures in Latin lookup 34 subtable" nine.osf
Substitution2: "'tnum' Tabular Numbers in Latin lookup 33 subtable" nine.tf
Substitution2: "'frac' Diagonal Fractions in Latin lookup 24 subtable" nine.numr
Substitution2: "'dnom' Denominators in Latin lookup 22 subtable" nine.dnom
Substitution2: "'numr' Numerators in Latin lookup 21 subtable" nine.numr
AlternateSubs2: "'aalt' Access All Alternates in Latin lookup 1 subtable" nine.osf nine.ss01 nine.tf nine.dnom nine.numr
EndChar

StartChar: semicolon
Encoding: 59 59 29
Width: 208
GlyphClass: 1
Flags: W
LayerCount: 2
Fore
SplineSet
104 388 m 256,0,1
 77 388 77 388 57.5 407.5 c 128,-1,2
 38 427 38 427 38 454 c 256,3,4
 38 481 38 481 57.5 500.5 c 128,-1,5
 77 520 77 520 104 520 c 256,6,7
 131 520 131 520 150.5 500.5 c 128,-1,8
 170 481 170 481 170 454 c 256,9,10
 170 427 170 427 150.5 407.5 c 128,-1,11
 131 388 131 388 104 388 c 256,0,1
38 -150 m 1,12,-1
 83 -6 l 1,13,14
 61 1 61 1 49.5 19.5 c 128,-1,15
 38 38 38 38 38 57 c 0,16,17
 38 85 38 85 57.5 103.5 c 128,-1,18
 77 122 77 122 104 122 c 0,19,20
 134 122 134 122 152 102 c 128,-1,21
 170 82 170 82 170 54 c 0,22,23
 170 35 170 35 167 18.5 c 128,-1,24
 164 2 164 2 156 -19 c 2,25,-1
 116 -150 l 1,26,-1
 38 -150 l 1,12,-1
EndSplineSet
Validated: 1
EndChar

StartChar: less
Encoding: 60 60 30
Width: 568
GlyphClass: 1
Flags: W
LayerCount: 2
Fore
SplineSet
518 106 m 1,0,-1
 50 305 l 1,1,-1
 50 396 l 1,2,-1
 518 595 l 1,3,-1
 518 509 l 1,4,-1
 145 350 l 1,5,-1
 518 193 l 1,6,-1
 518 106 l 1,0,-1
EndSplineSet
Validated: 1
EndChar

StartChar: equal
Encoding: 61 61 31
Width: 586
GlyphClass: 1
Flags: W
LayerCount: 2
Fore
SplineSet
64 422 m 1,0,-1
 64 504 l 1,1,-1
 521 504 l 1,2,-1
 521 422 l 1,3,-1
 64 422 l 1,0,-1
64 194 m 1,4,-1
 64 276 l 1,5,-1
 522 276 l 1,6,-1
 522 194 l 1,7,-1
 64 194 l 1,4,-1
EndSplineSet
Validated: 1
EndChar

StartChar: greater
Encoding: 62 62 32
Width: 568
GlyphClass: 1
Flags: W
LayerCount: 2
Fore
SplineSet
50 106 m 1,0,-1
 50 193 l 1,1,-1
 423 350 l 1,2,-1
 50 509 l 1,3,-1
 50 595 l 1,4,-1
 518 396 l 1,5,-1
 518 305 l 1,6,-1
 50 106 l 1,0,-1
EndSplineSet
Validated: 1
EndChar

StartChar: question
Encoding: 63 63 33
Width: 409
GlyphClass: 1
Flags: W
LayerCount: 2
Fore
SplineSet
109 228 m 1,0,-1
 109 308 l 1,1,2
 164 308 164 308 202 330 c 128,-1,3
 240 352 240 352 260 387.5 c 128,-1,4
 280 423 280 423 280 464 c 256,5,6
 280 505 280 505 260 541 c 128,-1,7
 240 577 240 577 202 599 c 128,-1,8
 164 621 164 621 109 621 c 2,9,-1
 55 621 l 1,10,-1
 55 700 l 1,11,-1
 109 700 l 2,12,13
 190 700 190 700 249 667.5 c 128,-1,14
 308 635 308 635 340.5 581 c 128,-1,15
 373 527 373 527 373 464 c 256,16,17
 373 401 373 401 341 347 c 128,-1,18
 309 293 309 293 249.5 260.5 c 128,-1,19
 190 228 190 228 109 228 c 1,0,-1
136 -10 m 0,20,21
 109 -10 109 -10 89.5 9.5 c 128,-1,22
 70 29 70 29 70 56 c 256,23,24
 70 83 70 83 89.5 102.5 c 128,-1,25
 109 122 109 122 136 122 c 256,26,27
 163 122 163 122 182.5 102.5 c 128,-1,28
 202 83 202 83 202 56 c 0,29,30
 202 38 202 38 193 23 c 128,-1,31
 184 8 184 8 169 -1 c 128,-1,32
 154 -10 154 -10 136 -10 c 0,20,21
EndSplineSet
Validated: 1
Substitution2: "'case' Case-Sensitive Forms in Latin lookup 35 subtable" question.case
Substitution2: "'aalt' Access All Alternates in Latin lookup 0 subtable" question.case
EndChar

StartChar: at
Encoding: 64 64 34
Width: 1044
GlyphClass: 1
Flags: W
LayerCount: 2
Fore
SplineSet
541 -218 m 2,0,1
 434 -217 434 -217 344 -180.5 c 128,-1,2
 254 -144 254 -144 188.5 -80 c 128,-1,3
 123 -16 123 -16 87 68.5 c 128,-1,4
 51 153 51 153 51 250 c 256,5,6
 51 347 51 347 87.5 432 c 128,-1,7
 124 517 124 517 188.5 581 c 128,-1,8
 253 645 253 645 338.5 681.5 c 128,-1,9
 424 718 424 718 522 718 c 256,10,11
 620 718 620 718 705.5 681.5 c 128,-1,12
 791 645 791 645 855.5 581 c 128,-1,13
 920 517 920 517 956.5 432 c 128,-1,14
 993 347 993 347 993 250 c 0,15,16
 993 189 993 189 974.5 140 c 128,-1,17
 956 91 956 91 918 62.5 c 128,-1,18
 880 34 880 34 821 34 c 0,19,20
 772 34 772 34 736.5 58 c 128,-1,21
 701 82 701 82 681 122 c 1,22,23
 654 82 654 82 613 58 c 128,-1,24
 572 34 572 34 521 34 c 0,25,26
 462 34 462 34 412.5 63 c 128,-1,27
 363 92 363 92 333.5 141.5 c 128,-1,28
 304 191 304 191 304 250 c 0,29,30
 304 310 304 310 333.5 359 c 128,-1,31
 363 408 363 408 412.5 437.5 c 128,-1,32
 462 467 462 467 521 467 c 0,33,34
 581 467 581 467 630.5 437.5 c 128,-1,35
 680 408 680 408 709 359 c 128,-1,36
 738 310 738 310 738 250 c 2,37,-1
 738 204 l 2,38,39
 738 178 738 178 749 158 c 128,-1,40
 760 138 760 138 779 127 c 128,-1,41
 798 116 798 116 820 116 c 0,42,43
 854 116 854 116 873 135 c 128,-1,44
 892 154 892 154 900 184.5 c 128,-1,45
 908 215 908 215 908 250 c 0,46,47
 908 329 908 329 878 398.5 c 128,-1,48
 848 468 848 468 795 521 c 128,-1,49
 742 574 742 574 672.5 604 c 128,-1,50
 603 634 603 634 522 634 c 0,51,52
 442 634 442 634 372 604 c 128,-1,53
 302 574 302 574 249 521 c 128,-1,54
 196 468 196 468 166.5 398.5 c 128,-1,55
 137 329 137 329 137 250 c 256,56,57
 137 171 137 171 166 102 c 128,-1,58
 195 33 195 33 249 -19.5 c 128,-1,59
 303 -72 303 -72 377 -102 c 128,-1,60
 451 -132 451 -132 541 -133 c 2,61,-1
 575 -133 l 1,62,-1
 575 -218 l 1,63,-1
 541 -218 l 2,0,1
521 116 m 0,64,65
 560 116 560 116 589.5 135 c 128,-1,66
 619 154 619 154 636 184.5 c 128,-1,67
 653 215 653 215 653 250 c 256,68,69
 653 285 653 285 636 315.5 c 128,-1,70
 619 346 619 346 589.5 365 c 128,-1,71
 560 384 560 384 521 384 c 0,72,73
 483 384 483 384 453 365 c 128,-1,74
 423 346 423 346 406.5 315.5 c 128,-1,75
 390 285 390 285 390 250 c 256,76,77
 390 215 390 215 406.5 184.5 c 128,-1,78
 423 154 423 154 453 135 c 128,-1,79
 483 116 483 116 521 116 c 0,64,65
EndSplineSet
Validated: 1
EndChar

StartChar: A
Encoding: 65 65 35
Width: 699
GlyphClass: 1
Flags: W
LayerCount: 2
Fore
SplineSet
2 0 m 1,0,-1
 240 633 l 2,1,2
 256 674 256 674 284 693 c 128,-1,3
 312 712 312 712 349 712 c 256,4,5
 386 712 386 712 414.5 693.5 c 128,-1,6
 443 675 443 675 458 634 c 2,7,-1
 697 0 l 1,8,-1
 592 0 l 1,9,-1
 531 169 l 1,10,-1
 165 169 l 1,11,-1
 103 0 l 1,12,-1
 2 0 l 1,0,-1
195 254 m 1,13,-1
 502 254 l 1,14,-1
 377 601 l 2,15,16
 372 614 372 614 366 621 c 128,-1,17
 360 628 360 628 349 628 c 0,18,19
 339 628 339 628 333 621 c 128,-1,20
 327 614 327 614 323 601 c 2,21,-1
 195 254 l 1,13,-1
EndSplineSet
Validated: 513
Substitution2: "'ss01' Style Set 1 in Latin lookup 39 subtable" A.ss01
Substitution2: "Single Substitution lookup 29 subtable" ordfeminine
AlternateSubs2: "'aalt' Access All Alternates in Latin lookup 1 subtable" A.ss01 ordfeminine
EndChar

StartChar: B
Encoding: 66 66 36
Width: 696
GlyphClass: 1
Flags: W
LayerCount: 2
Fore
SplineSet
76 0 m 1,0,-1
 76 700 l 1,1,-1
 456 700 l 2,2,3
 509 700 509 700 549 676.5 c 128,-1,4
 589 653 589 653 612 613 c 128,-1,5
 635 573 635 573 635 522 c 0,6,7
 635 487 635 487 620.5 454.5 c 128,-1,8
 606 422 606 422 580 398 c 128,-1,9
 554 374 554 374 518 362 c 1,10,11
 559 352 559 352 589 326 c 128,-1,12
 619 300 619 300 636.5 264 c 128,-1,13
 654 228 654 228 654 186 c 0,14,15
 654 134 654 134 630 92 c 128,-1,16
 606 50 606 50 563.5 25 c 128,-1,17
 521 0 521 0 462 0 c 2,18,-1
 76 0 l 1,0,-1
172 85 m 1,19,-1
 440 85 l 2,20,21
 477 85 477 85 503 101.5 c 128,-1,22
 529 118 529 118 543.5 144.5 c 128,-1,23
 558 171 558 171 558 201 c 0,24,25
 558 232 558 232 543 257.5 c 128,-1,26
 528 283 528 283 501 299.5 c 128,-1,27
 474 316 474 316 437 316 c 2,28,-1
 172 316 l 1,29,-1
 172 85 l 1,19,-1
172 397 m 1,30,-1
 423 397 l 2,31,32
 458 397 458 397 484.5 412.5 c 128,-1,33
 511 428 511 428 525.5 453.5 c 128,-1,34
 540 479 540 479 540 507 c 0,35,36
 540 536 540 536 526 560.5 c 128,-1,37
 512 585 512 585 487 600 c 128,-1,38
 462 615 462 615 429 615 c 2,39,-1
 172 615 l 1,40,-1
 172 397 l 1,30,-1
EndSplineSet
Validated: 1
EndChar

StartChar: C
Encoding: 67 67 37
Width: 514
GlyphClass: 1
Flags: W
LayerCount: 2
Fore
SplineSet
388 0 m 2,0,1
 308 0 308 0 242 27.5 c 128,-1,2
 176 55 176 55 128.5 103 c 128,-1,3
 81 151 81 151 55.5 214.5 c 128,-1,4
 30 278 30 278 30 350 c 256,5,6
 30 422 30 422 55.5 485.5 c 128,-1,7
 81 549 81 549 128.5 597 c 128,-1,8
 176 645 176 645 242 672.5 c 128,-1,9
 308 700 308 700 388 700 c 2,10,-1
 478 700 l 1,11,-1
 478 615 l 1,12,-1
 391 615 l 2,13,14
 334 615 334 615 286 595 c 128,-1,15
 238 575 238 575 202.5 539 c 128,-1,16
 167 503 167 503 147 455 c 128,-1,17
 127 407 127 407 127 350 c 0,18,19
 127 294 127 294 147 245.5 c 128,-1,20
 167 197 167 197 202.5 161 c 128,-1,21
 238 125 238 125 286 105 c 128,-1,22
 334 85 334 85 391 85 c 2,23,-1
 478 85 l 1,24,-1
 478 0 l 1,25,-1
 388 0 l 2,0,1
EndSplineSet
Validated: 1
EndChar

StartChar: D
Encoding: 68 68 38
Width: 707
GlyphClass: 1
Flags: W
LayerCount: 2
Fore
SplineSet
76 0 m 1,0,-1
 76 700 l 1,1,-1
 300 700 l 2,2,3
 412 700 412 700 493.5 655 c 128,-1,4
 575 610 575 610 620 531 c 128,-1,5
 665 452 665 452 665 350 c 256,6,7
 665 248 665 248 620 169 c 128,-1,8
 575 90 575 90 493.5 45 c 128,-1,9
 412 0 412 0 300 0 c 2,10,-1
 76 0 l 1,0,-1
172 85 m 1,11,-1
 301 85 l 2,12,13
 379 85 379 85 439.5 117 c 128,-1,14
 500 149 500 149 535 208.5 c 128,-1,15
 570 268 570 268 570 350 c 0,16,17
 570 433 570 433 535 492 c 128,-1,18
 500 551 500 551 439.5 583 c 128,-1,19
 379 615 379 615 301 615 c 2,20,-1
 172 615 l 1,21,-1
 172 85 l 1,11,-1
EndSplineSet
Validated: 1
EndChar

StartChar: E
Encoding: 69 69 39
Width: 563
GlyphClass: 1
Flags: W
LayerCount: 2
Fore
SplineSet
245 0 m 2,0,1
 187 0 187 0 142.5 27.5 c 128,-1,2
 98 55 98 55 73 100 c 128,-1,3
 48 145 48 145 48 198 c 0,4,5
 48 246 48 246 70.5 288 c 128,-1,6
 93 330 93 330 136 354 c 1,7,8
 94 381 94 381 72 421 c 128,-1,9
 50 461 50 461 50 505 c 0,10,11
 50 559 50 559 75.5 603 c 128,-1,12
 101 647 101 647 145 673.5 c 128,-1,13
 189 700 189 700 242 700 c 2,14,-1
 519 700 l 1,15,-1
 519 615 l 1,16,-1
 253 615 l 2,17,18
 222 615 222 615 198 600 c 128,-1,19
 174 585 174 585 160 560.5 c 128,-1,20
 146 536 146 536 146 505 c 0,21,22
 146 476 146 476 160.5 452 c 128,-1,23
 175 428 175 428 200 413.5 c 128,-1,24
 225 399 225 399 255 399 c 2,25,-1
 482 399 l 1,26,-1
 482 314 l 1,27,-1
 262 314 l 2,28,29
 225 314 225 314 198.5 297.5 c 128,-1,30
 172 281 172 281 157.5 254.5 c 128,-1,31
 143 228 143 228 143 198 c 256,32,33
 143 168 143 168 157 142 c 128,-1,34
 171 116 171 116 197 100.5 c 128,-1,35
 223 85 223 85 258 85 c 2,36,-1
 519 85 l 1,37,-1
 519 0 l 1,38,-1
 245 0 l 2,0,1
EndSplineSet
Validated: 513
Substitution2: "'ss01' Style Set 1 in Latin lookup 39 subtable" E.ss01
Substitution2: "'aalt' Access All Alternates in Latin lookup 0 subtable" E.ss01
EndChar

StartChar: F
Encoding: 70 70 40
Width: 535
GlyphClass: 1
Flags: W
LayerCount: 2
Fore
SplineSet
69 0 m 1,0,-1
 69 518 l 2,1,2
 69 571 69 571 92.5 612 c 128,-1,3
 116 653 116 653 157.5 676.5 c 128,-1,4
 199 700 199 700 251 700 c 2,5,-1
 500 700 l 1,6,-1
 500 615 l 1,7,-1
 262 615 l 2,8,9
 218 615 218 615 191.5 587.5 c 128,-1,10
 165 560 165 560 165 518 c 2,11,-1
 165 376 l 1,12,-1
 463 376 l 1,13,-1
 463 291 l 1,14,-1
 165 291 l 1,15,-1
 165 0 l 1,16,-1
 69 0 l 1,0,-1
EndSplineSet
Validated: 1
EndChar

StartChar: G
Encoding: 71 71 41
Width: 822
GlyphClass: 1
Flags: W
LayerCount: 2
Fore
SplineSet
593 -220 m 0,0,1
 543 -220 543 -220 504.5 -200.5 c 128,-1,2
 466 -181 466 -181 444 -143 c 128,-1,3
 422 -105 422 -105 422 -52 c 0,4,5
 422 -39 422 -39 423 -25.5 c 128,-1,6
 424 -12 424 -12 426 2 c 1,7,8
 344 -3 344 -3 274 21 c 128,-1,9
 204 45 204 45 152 92.5 c 128,-1,10
 100 140 100 140 71 207.5 c 128,-1,11
 42 275 42 275 42 356 c 0,12,13
 42 430 42 430 67 494.5 c 128,-1,14
 92 559 92 559 139 608 c 128,-1,15
 186 657 186 657 252.5 684.5 c 128,-1,16
 319 712 319 712 400 712 c 256,17,18
 481 712 481 712 547 685 c 128,-1,19
 613 658 613 658 660 609.5 c 128,-1,20
 707 561 707 561 732.5 498 c 128,-1,21
 758 435 758 435 758 362 c 2,22,-1
 758 -41 l 2,23,24
 758 -95 758 -95 738 -135.5 c 128,-1,25
 718 -176 718 -176 681.5 -198 c 128,-1,26
 645 -220 645 -220 593 -220 c 0,0,1
587 -134 m 0,27,28
 620 -134 620 -134 641 -110.5 c 128,-1,29
 662 -87 662 -87 662 -43 c 2,30,-1
 662 195 l 1,31,32
 618 169 618 169 589 139.5 c 128,-1,33
 560 110 560 110 543.5 79.5 c 128,-1,34
 527 49 527 49 520 18.5 c 128,-1,35
 513 -12 513 -12 513 -42 c 0,36,37
 513 -71 513 -71 523.5 -91.5 c 128,-1,38
 534 -112 534 -112 551 -123 c 128,-1,39
 568 -134 568 -134 587 -134 c 0,27,28
400 84 m 0,40,41
 416 84 416 84 430 85.5 c 128,-1,42
 444 87 444 87 460 91 c 1,43,44
 474 125 474 125 499.5 160 c 128,-1,45
 525 195 525 195 564.5 229.5 c 128,-1,46
 604 264 604 264 662 294 c 1,47,-1
 662 362 l 2,48,49
 662 419 662 419 642.5 467.5 c 128,-1,50
 623 516 623 516 587.5 551.5 c 128,-1,51
 552 587 552 587 504 607.5 c 128,-1,52
 456 628 456 628 400 628 c 0,53,54
 343 628 343 628 295.5 607.5 c 128,-1,55
 248 587 248 587 212.5 550 c 128,-1,56
 177 513 177 513 157.5 463.5 c 128,-1,57
 138 414 138 414 138 356 c 256,58,59
 138 298 138 298 157.5 248.5 c 128,-1,60
 177 199 177 199 212.5 162 c 128,-1,61
 248 125 248 125 295.5 104.5 c 128,-1,62
 343 84 343 84 400 84 c 0,40,41
EndSplineSet
Validated: 545
Substitution2: "'ss01' Style Set 1 in Latin lookup 39 subtable" G.ss01
Substitution2: "'aalt' Access All Alternates in Latin lookup 0 subtable" G.ss01
EndChar

StartChar: H
Encoding: 72 72 42
Width: 713
GlyphClass: 1
Flags: W
LayerCount: 2
Fore
SplineSet
76 0 m 1,0,-1
 76 700 l 1,1,-1
 172 700 l 1,2,-1
 172 399 l 1,3,-1
 541 399 l 1,4,-1
 541 700 l 1,5,-1
 637 700 l 1,6,-1
 637 0 l 1,7,-1
 541 0 l 1,8,-1
 541 314 l 1,9,-1
 172 314 l 1,10,-1
 172 0 l 1,11,-1
 76 0 l 1,0,-1
EndSplineSet
Validated: 1
EndChar

StartChar: I
Encoding: 73 73 43
Width: 469
GlyphClass: 1
Flags: W
LayerCount: 2
Fore
SplineSet
52 0 m 1,0,-1
 52 85 l 1,1,-1
 187 85 l 1,2,-1
 187 615 l 1,3,-1
 52 615 l 1,4,-1
 52 700 l 1,5,-1
 417 700 l 1,6,-1
 417 615 l 1,7,-1
 283 615 l 1,8,-1
 283 85 l 1,9,-1
 417 85 l 1,10,-1
 417 0 l 1,11,-1
 52 0 l 1,0,-1
EndSplineSet
Validated: 1
EndChar

StartChar: J
Encoding: 74 74 44
Width: 413
GlyphClass: 1
Flags: W
LayerCount: 2
Fore
SplineSet
176 -217 m 0,0,1
 127 -217 127 -217 89.5 -199 c 128,-1,2
 52 -181 52 -181 31 -145 c 128,-1,3
 10 -109 10 -109 10 -57 c 0,4,5
 10 -10 10 -10 29 46 c 128,-1,6
 48 102 48 102 98 163 c 128,-1,7
 148 224 148 224 242 284 c 1,8,-1
 242 615 l 1,9,-1
 91 615 l 1,10,-1
 91 700 l 1,11,-1
 337 700 l 1,12,-1
 337 -41 l 2,13,14
 337 -95 337 -95 317.5 -134.5 c 128,-1,15
 298 -174 298 -174 262 -195.5 c 128,-1,16
 226 -217 226 -217 176 -217 c 0,0,1
169 -131 m 0,17,18
 190 -131 190 -131 206.5 -121.5 c 128,-1,19
 223 -112 223 -112 232 -92 c 128,-1,20
 241 -72 241 -72 241 -43 c 2,21,-1
 241 185 l 1,22,23
 186 144 186 144 155 104.5 c 128,-1,24
 124 65 124 65 112 27.5 c 128,-1,25
 100 -10 100 -10 100 -47 c 0,26,27
 100 -89 100 -89 121 -110 c 128,-1,28
 142 -131 142 -131 169 -131 c 0,17,18
EndSplineSet
Validated: 513
Substitution2: "'ss01' Style Set 1 in Latin lookup 39 subtable" J.ss01
Substitution2: "'aalt' Access All Alternates in Latin lookup 0 subtable" J.ss01
EndChar

StartChar: K
Encoding: 75 75 45
Width: 679
GlyphClass: 1
Flags: W
LayerCount: 2
Fore
SplineSet
76 0 m 1,0,-1
 76 700 l 1,1,-1
 172 700 l 1,2,-1
 172 385 l 1,3,-1
 354 385 l 2,4,5
 396 385 396 385 431 400.5 c 128,-1,6
 466 416 466 416 486.5 446.5 c 128,-1,7
 507 477 507 477 507 519 c 2,8,-1
 507 700 l 1,9,-1
 602 700 l 1,10,-1
 602 520 l 2,11,12
 602 451 602 451 567 400.5 c 128,-1,13
 532 350 532 350 474 324 c 1,14,-1
 565 116 l 2,15,16
 572 100 572 100 582 92.5 c 128,-1,17
 592 85 592 85 610 85 c 2,18,-1
 660 85 l 1,19,-1
 660 0 l 1,20,-1
 595 0 l 2,21,22
 551 0 551 0 522.5 19.5 c 128,-1,23
 494 39 494 39 478 74 c 2,24,-1
 378 302 l 1,25,26
 366 301 366 301 355 300.5 c 128,-1,27
 344 300 344 300 331 300 c 2,28,-1
 172 300 l 1,29,-1
 172 0 l 1,30,-1
 76 0 l 1,0,-1
EndSplineSet
Validated: 513
Substitution2: "'ss03' Style Set 3 in Latin lookup 41 subtable" K.ss03
Substitution2: "'ss02' Style Set 2 in Latin lookup 40 subtable" K.ss02
Substitution2: "'ss01' Style Set 1 in Latin lookup 39 subtable" K.ss01
AlternateSubs2: "'aalt' Access All Alternates in Latin lookup 1 subtable" K.ss01 K.ss02 K.ss03
EndChar

StartChar: L
Encoding: 76 76 46
Width: 472
GlyphClass: 1
Flags: W
LayerCount: 2
Fore
SplineSet
254 0 m 2,0,1
 197 0 197 0 155.5 24.5 c 128,-1,2
 114 49 114 49 91.5 91.5 c 128,-1,3
 69 134 69 134 69 187 c 2,4,-1
 69 700 l 1,5,-1
 165 700 l 1,6,-1
 165 175 l 2,7,8
 165 136 165 136 189.5 110.5 c 128,-1,9
 214 85 214 85 254 85 c 2,10,-1
 442 85 l 1,11,-1
 442 0 l 1,12,-1
 254 0 l 2,0,1
EndSplineSet
Validated: 513
Substitution2: "'ss01' Style Set 1 in Latin lookup 39 subtable" L.ss01
Substitution2: "'aalt' Access All Alternates in Latin lookup 0 subtable" L.ss01
EndChar

StartChar: M
Encoding: 77 77 47
Width: 1089
GlyphClass: 1
Flags: W
LayerCount: 2
Fore
SplineSet
545 -12 m 256,0,1
 491 -12 491 -12 448 13 c 128,-1,2
 405 38 405 38 380.5 81.5 c 128,-1,3
 356 125 356 125 356 183 c 2,4,-1
 356 531 l 2,5,6
 356 558 356 558 343 580 c 128,-1,7
 330 602 330 602 308 615 c 128,-1,8
 286 628 286 628 260 628 c 256,9,10
 234 628 234 628 212.5 615 c 128,-1,11
 191 602 191 602 178.5 580 c 128,-1,12
 166 558 166 558 166 531 c 2,13,-1
 166 0 l 1,14,-1
 70 0 l 1,15,-1
 70 518 l 2,16,17
 70 573 70 573 94 617 c 128,-1,18
 118 661 118 661 161 686.5 c 128,-1,19
 204 712 204 712 260 712 c 0,20,21
 317 712 317 712 360 686.5 c 128,-1,22
 403 661 403 661 427 617 c 128,-1,23
 451 573 451 573 451 518 c 2,24,-1
 451 170 l 2,25,26
 451 142 451 142 464 120.5 c 128,-1,27
 477 99 477 99 498.5 86 c 128,-1,28
 520 73 520 73 545 73 c 256,29,30
 570 73 570 73 591 86 c 128,-1,31
 612 99 612 99 624.5 120.5 c 128,-1,32
 637 142 637 142 637 170 c 2,33,-1
 637 518 l 2,34,35
 637 573 637 573 661.5 617 c 128,-1,36
 686 661 686 661 729 686.5 c 128,-1,37
 772 712 772 712 829 712 c 0,38,39
 885 712 885 712 928 686.5 c 128,-1,40
 971 661 971 661 995 617 c 128,-1,41
 1019 573 1019 573 1019 518 c 2,42,-1
 1019 0 l 1,43,-1
 923 0 l 1,44,-1
 923 531 l 2,45,46
 923 558 923 558 910.5 580 c 128,-1,47
 898 602 898 602 876.5 615 c 128,-1,48
 855 628 855 628 829 628 c 0,49,50
 802 628 802 628 780.5 615 c 128,-1,51
 759 602 759 602 746 580 c 128,-1,52
 733 558 733 558 733 531 c 2,53,-1
 733 183 l 2,54,55
 733 125 733 125 708.5 81.5 c 128,-1,56
 684 38 684 38 641.5 13 c 128,-1,57
 599 -12 599 -12 545 -12 c 256,0,1
EndSplineSet
Validated: 513
Substitution2: "'ss02' Style Set 2 in Latin lookup 40 subtable" M.ss02
Substitution2: "'ss01' Style Set 1 in Latin lookup 39 subtable" M.ss01
AlternateSubs2: "'aalt' Access All Alternates in Latin lookup 1 subtable" M.ss01 M.ss02
EndChar

StartChar: N
Encoding: 78 78 48
Width: 803
GlyphClass: 1
Flags: W
LayerCount: 2
Fore
SplineSet
545 -12 m 256,0,1
 489 -12 489 -12 446.5 13.5 c 128,-1,2
 404 39 404 39 380 83 c 128,-1,3
 356 127 356 127 356 182 c 2,4,-1
 356 531 l 2,5,6
 356 558 356 558 343 580 c 128,-1,7
 330 602 330 602 308 615 c 128,-1,8
 286 628 286 628 260 628 c 256,9,10
 234 628 234 628 212.5 615 c 128,-1,11
 191 602 191 602 178.5 580 c 128,-1,12
 166 558 166 558 166 531 c 2,13,-1
 166 0 l 1,14,-1
 70 0 l 1,15,-1
 70 518 l 2,16,17
 70 573 70 573 94 617 c 128,-1,18
 118 661 118 661 161 686.5 c 128,-1,19
 204 712 204 712 260 712 c 0,20,21
 317 712 317 712 360 686.5 c 128,-1,22
 403 661 403 661 427 617 c 128,-1,23
 451 573 451 573 451 518 c 2,24,-1
 451 169 l 2,25,26
 451 142 451 142 464 120 c 128,-1,27
 477 98 477 98 498.5 85 c 128,-1,28
 520 72 520 72 545 72 c 256,29,30
 570 72 570 72 591 85 c 128,-1,31
 612 98 612 98 624.5 120 c 128,-1,32
 637 142 637 142 637 169 c 2,33,-1
 637 700 l 1,34,-1
 733 700 l 1,35,-1
 733 182 l 2,36,37
 733 127 733 127 709 83 c 128,-1,38
 685 39 685 39 643 13.5 c 128,-1,39
 601 -12 601 -12 545 -12 c 256,0,1
EndSplineSet
Validated: 513
Substitution2: "'ss01' Style Set 1 in Latin lookup 39 subtable" N.ss01
Substitution2: "'aalt' Access All Alternates in Latin lookup 0 subtable" N.ss01
EndChar

StartChar: O
Encoding: 79 79 49
Width: 812
GlyphClass: 1
Flags: W
LayerCount: 2
Fore
SplineSet
406 -13 m 256,0,1
 323 -13 323 -13 256 15.5 c 128,-1,2
 189 44 189 44 141.5 94 c 128,-1,3
 94 144 94 144 68 210 c 128,-1,4
 42 276 42 276 42 351 c 0,5,6
 42 425 42 425 68 491 c 128,-1,7
 94 557 94 557 141.5 607 c 128,-1,8
 189 657 189 657 256 685 c 128,-1,9
 323 713 323 713 406 713 c 256,10,11
 489 713 489 713 556 685 c 128,-1,12
 623 657 623 657 670.5 607 c 128,-1,13
 718 557 718 557 744 491 c 128,-1,14
 770 425 770 425 770 350 c 0,15,16
 770 276 770 276 744 210 c 128,-1,17
 718 144 718 144 670.5 94 c 128,-1,18
 623 44 623 44 556 15.5 c 128,-1,19
 489 -13 489 -13 406 -13 c 256,0,1
406 72 m 0,20,21
 463 72 463 72 512 93 c 128,-1,22
 561 114 561 114 597.5 152 c 128,-1,23
 634 190 634 190 654 240.5 c 128,-1,24
 674 291 674 291 674 351 c 0,25,26
 674 410 674 410 654 461 c 128,-1,27
 634 512 634 512 598 549.5 c 128,-1,28
 562 587 562 587 512.5 607.5 c 128,-1,29
 463 628 463 628 406 628 c 0,30,31
 348 628 348 628 299 607.5 c 128,-1,32
 250 587 250 587 214 549.5 c 128,-1,33
 178 512 178 512 158 461 c 128,-1,34
 138 410 138 410 138 350 c 0,35,36
 138 291 138 291 158 240.5 c 128,-1,37
 178 190 178 190 214 152 c 128,-1,38
 250 114 250 114 299 93 c 128,-1,39
 348 72 348 72 406 72 c 0,20,21
EndSplineSet
Validated: 513
Substitution2: "'ss01' Style Set 1 in Latin lookup 39 subtable" O.ss01
Substitution2: "Single Substitution lookup 29 subtable" ordmasculine
AlternateSubs2: "'aalt' Access All Alternates in Latin lookup 1 subtable" O.ss01 ordmasculine
EndChar

StartChar: P
Encoding: 80 80 50
Width: 648
GlyphClass: 1
Flags: W
LayerCount: 2
Fore
SplineSet
76 0 m 1,0,-1
 76 700 l 1,1,-1
 371 700 l 2,2,3
 437 700 437 700 491 670.5 c 128,-1,4
 545 641 545 641 577 588 c 128,-1,5
 609 535 609 535 609 464 c 0,6,7
 609 396 609 396 577.5 342.5 c 128,-1,8
 546 289 546 289 492 259 c 128,-1,9
 438 229 438 229 369 229 c 2,10,-1
 172 229 l 1,11,-1
 172 0 l 1,12,-1
 76 0 l 1,0,-1
172 314 m 1,13,-1
 358 314 l 2,14,15
 401 314 401 314 436.5 331.5 c 128,-1,16
 472 349 472 349 492.5 383 c 128,-1,17
 513 417 513 417 513 464 c 0,18,19
 513 512 513 512 492 545.5 c 128,-1,20
 471 579 471 579 436 597 c 128,-1,21
 401 615 401 615 359 615 c 2,22,-1
 172 615 l 1,23,-1
 172 314 l 1,13,-1
EndSplineSet
Validated: 1
EndChar

StartChar: Q
Encoding: 81 81 51
Width: 812
GlyphClass: 1
Flags: W
LayerCount: 2
Fore
SplineSet
358 -203 m 1,0,-1
 358 6 l 1,1,-1
 454 6 l 1,2,-1
 454 -203 l 1,3,-1
 358 -203 l 1,0,-1
406 -13 m 256,4,5
 323 -13 323 -13 256 15.5 c 128,-1,6
 189 44 189 44 141.5 94 c 128,-1,7
 94 144 94 144 68 210 c 128,-1,8
 42 276 42 276 42 351 c 0,9,10
 42 425 42 425 68 491 c 128,-1,11
 94 557 94 557 141.5 607 c 128,-1,12
 189 657 189 657 256 685 c 128,-1,13
 323 713 323 713 406 713 c 256,14,15
 489 713 489 713 556 685 c 128,-1,16
 623 657 623 657 670.5 607 c 128,-1,17
 718 557 718 557 744 491 c 128,-1,18
 770 425 770 425 770 350 c 0,19,20
 770 276 770 276 744 210 c 128,-1,21
 718 144 718 144 670.5 94 c 128,-1,22
 623 44 623 44 556 15.5 c 128,-1,23
 489 -13 489 -13 406 -13 c 256,4,5
406 72 m 0,24,25
 463 72 463 72 512 93 c 128,-1,26
 561 114 561 114 597.5 152 c 128,-1,27
 634 190 634 190 654 240.5 c 128,-1,28
 674 291 674 291 674 351 c 0,29,30
 674 410 674 410 654 461 c 128,-1,31
 634 512 634 512 598 549.5 c 128,-1,32
 562 587 562 587 512.5 607.5 c 128,-1,33
 463 628 463 628 406 628 c 0,34,35
 348 628 348 628 299 607.5 c 128,-1,36
 250 587 250 587 214 549.5 c 128,-1,37
 178 512 178 512 158 461 c 128,-1,38
 138 410 138 410 138 350 c 0,39,40
 138 291 138 291 158 240.5 c 128,-1,41
 178 190 178 190 214 152 c 128,-1,42
 250 114 250 114 299 93 c 128,-1,43
 348 72 348 72 406 72 c 0,24,25
EndSplineSet
Validated: 517
Substitution2: "'ss01' Style Set 1 in Latin lookup 39 subtable" Q.ss01
Substitution2: "'aalt' Access All Alternates in Latin lookup 0 subtable" Q.ss01
EndChar

StartChar: R
Encoding: 82 82 52
Width: 678
GlyphClass: 1
Flags: W
LayerCount: 2
Fore
SplineSet
76 0 m 1,0,-1
 76 700 l 1,1,-1
 383 700 l 2,2,3
 449 700 449 700 503 671.5 c 128,-1,4
 557 643 557 643 589 591.5 c 128,-1,5
 621 540 621 540 621 471 c 0,6,7
 621 401 621 401 585.5 347.5 c 128,-1,8
 550 294 550 294 490 268 c 1,9,-1
 565 116 l 2,10,11
 573 100 573 100 582.5 92.5 c 128,-1,12
 592 85 592 85 610 85 c 2,13,-1
 660 85 l 1,14,-1
 660 0 l 1,15,-1
 595 0 l 2,16,17
 556 0 556 0 526.5 20 c 128,-1,18
 497 40 497 40 478 74 c 2,19,-1
 394 245 l 1,20,21
 384 244 384 244 372.5 243.5 c 128,-1,22
 361 243 361 243 349 243 c 2,23,-1
 172 243 l 1,24,-1
 172 0 l 1,25,-1
 76 0 l 1,0,-1
172 328 m 1,26,-1
 370 328 l 2,27,28
 413 328 413 328 448.5 345 c 128,-1,29
 484 362 484 362 504.5 394 c 128,-1,30
 525 426 525 426 525 471 c 0,31,32
 525 517 525 517 504 549 c 128,-1,33
 483 581 483 581 448 598 c 128,-1,34
 413 615 413 615 371 615 c 2,35,-1
 172 615 l 1,36,-1
 172 328 l 1,26,-1
EndSplineSet
Validated: 513
Substitution2: "'ss03' Style Set 3 in Latin lookup 41 subtable" R.ss03
Substitution2: "'ss01' Style Set 1 in Latin lookup 39 subtable" R.ss01
AlternateSubs2: "'aalt' Access All Alternates in Latin lookup 1 subtable" R.ss01 R.ss03
EndChar

StartChar: S
Encoding: 83 83 53
Width: 627
GlyphClass: 1
Flags: W
LayerCount: 2
Fore
SplineSet
73 0 m 1,0,-1
 73 85 l 1,1,-1
 376 85 l 2,2,3
 411 85 411 85 436 101.5 c 128,-1,4
 461 118 461 118 475 144 c 128,-1,5
 489 170 489 170 489 199 c 0,6,7
 489 229 489 229 475.5 254.5 c 128,-1,8
 462 280 462 280 437.5 295.5 c 128,-1,9
 413 311 413 311 378 311 c 2,10,-1
 246 311 l 2,11,12
 187 311 187 311 142 335.5 c 128,-1,13
 97 360 97 360 71.5 403.5 c 128,-1,14
 46 447 46 447 46 502 c 0,15,16
 46 558 46 558 70.5 603 c 128,-1,17
 95 648 95 648 139.5 674 c 128,-1,18
 184 700 184 700 242 700 c 2,19,-1
 539 700 l 1,20,-1
 539 615 l 1,21,-1
 251 615 l 2,22,23
 218 615 218 615 193 599.5 c 128,-1,24
 168 584 168 584 155 559.5 c 128,-1,25
 142 535 142 535 142 507 c 0,26,27
 142 480 142 480 154.5 455.5 c 128,-1,28
 167 431 167 431 191.5 416 c 128,-1,29
 216 401 216 401 248 401 c 2,30,-1
 383 401 l 2,31,32
 446 401 446 401 491 376 c 128,-1,33
 536 351 536 351 560 308 c 128,-1,34
 584 265 584 265 584 210 c 0,35,36
 584 149 584 149 559.5 101.5 c 128,-1,37
 535 54 535 54 490 27 c 128,-1,38
 445 0 445 0 387 0 c 2,39,-1
 73 0 l 1,0,-1
EndSplineSet
Validated: 1
EndChar

StartChar: T
Encoding: 84 84 54
Width: 568
GlyphClass: 1
Flags: W
LayerCount: 2
Fore
SplineSet
421 0 m 2,0,1
 364 0 364 0 322.5 24.5 c 128,-1,2
 281 49 281 49 258.5 91.5 c 128,-1,3
 236 134 236 134 236 187 c 2,4,-1
 236 615 l 1,5,-1
 23 615 l 1,6,-1
 23 700 l 1,7,-1
 545 700 l 1,8,-1
 545 615 l 1,9,-1
 332 615 l 1,10,-1
 332 175 l 2,11,12
 332 136 332 136 356.5 110.5 c 128,-1,13
 381 85 381 85 422 85 c 2,14,-1
 468 85 l 1,15,-1
 468 0 l 1,16,-1
 421 0 l 2,0,1
EndSplineSet
Validated: 513
Substitution2: "'ss01' Style Set 1 in Latin lookup 39 subtable" T.ss01
Substitution2: "'aalt' Access All Alternates in Latin lookup 0 subtable" T.ss01
EndChar

StartChar: U
Encoding: 85 85 55
Width: 701
GlyphClass: 1
Flags: W
LayerCount: 2
Fore
SplineSet
351 -12 m 256,0,1
 270 -12 270 -12 207 22 c 128,-1,2
 144 56 144 56 108.5 120 c 128,-1,3
 73 184 73 184 73 271 c 2,4,-1
 73 700 l 1,5,-1
 169 700 l 1,6,-1
 169 261 l 2,7,8
 169 210 169 210 191 167 c 128,-1,9
 213 124 213 124 254 98.5 c 128,-1,10
 295 73 295 73 351 73 c 256,11,12
 407 73 407 73 448 98.5 c 128,-1,13
 489 124 489 124 510.5 167 c 128,-1,14
 532 210 532 210 532 261 c 2,15,-1
 532 700 l 1,16,-1
 628 700 l 1,17,-1
 628 271 l 2,18,19
 628 184 628 184 592.5 120 c 128,-1,20
 557 56 557 56 494.5 22 c 128,-1,21
 432 -12 432 -12 351 -12 c 256,0,1
EndSplineSet
Validated: 1
EndChar

StartChar: V
Encoding: 86 86 56
Width: 675
GlyphClass: 1
Flags: W
LayerCount: 2
Fore
SplineSet
337 -12 m 0,0,1
 302 -12 302 -12 275 6.5 c 128,-1,2
 248 25 248 25 231 67 c 2,3,-1
 2 700 l 1,4,-1
 107 700 l 1,5,-1
 310 106 l 2,6,7
 317 89 317 89 323 83 c 128,-1,8
 329 77 329 77 337 77 c 0,9,10
 347 77 347 77 352.5 83 c 128,-1,11
 358 89 358 89 365 106 c 2,12,-1
 572 700 l 1,13,-1
 673 700 l 1,14,-1
 444 67 l 2,15,16
 429 26 429 26 401 7 c 128,-1,17
 373 -12 373 -12 337 -12 c 0,0,1
EndSplineSet
Validated: 1
EndChar

StartChar: W
Encoding: 87 87 57
Width: 1111
GlyphClass: 1
Flags: W
LayerCount: 2
Fore
SplineSet
337 -12 m 0,0,1
 259 -12 259 -12 198.5 20.5 c 128,-1,2
 138 53 138 53 104 113.5 c 128,-1,3
 70 174 70 174 70 257 c 2,4,-1
 70 700 l 1,5,-1
 166 700 l 1,6,-1
 166 251 l 2,7,8
 166 202 166 202 186.5 161.5 c 128,-1,9
 207 121 207 121 245.5 96.5 c 128,-1,10
 284 72 284 72 337 72 c 0,11,12
 389 72 389 72 427.5 96.5 c 128,-1,13
 466 121 466 121 487 161.5 c 128,-1,14
 508 202 508 202 508 251 c 2,15,-1
 508 700 l 1,16,-1
 604 700 l 1,17,-1
 604 251 l 2,18,19
 604 202 604 202 624.5 161.5 c 128,-1,20
 645 121 645 121 683.5 96.5 c 128,-1,21
 722 72 722 72 775 72 c 0,22,23
 827 72 827 72 865.5 96.5 c 128,-1,24
 904 121 904 121 924.5 161.5 c 128,-1,25
 945 202 945 202 945 251 c 2,26,-1
 945 700 l 1,27,-1
 1041 700 l 1,28,-1
 1041 257 l 2,29,30
 1041 174 1041 174 1007 113.5 c 128,-1,31
 973 53 973 53 913 20.5 c 128,-1,32
 853 -12 853 -12 775 -12 c 0,33,34
 728 -12 728 -12 685.5 1.5 c 128,-1,35
 643 15 643 15 610 43.5 c 128,-1,36
 577 72 577 72 556 114 c 1,37,38
 536 72 536 72 502 44 c 128,-1,39
 468 16 468 16 425.5 2 c 128,-1,40
 383 -12 383 -12 337 -12 c 0,0,1
EndSplineSet
Validated: 513
Substitution2: "'ss01' Style Set 1 in Latin lookup 39 subtable" W.ss01
Substitution2: "'aalt' Access All Alternates in Latin lookup 0 subtable" W.ss01
EndChar

StartChar: X
Encoding: 88 88 58
Width: 683
GlyphClass: 1
Flags: W
LayerCount: 2
Fore
SplineSet
59 0 m 1,0,-1
 270 323 l 1,1,2
 216 336 216 336 173.5 368 c 128,-1,3
 131 400 131 400 106 450.5 c 128,-1,4
 81 501 81 501 81 567 c 2,5,-1
 81 700 l 1,6,-1
 176 700 l 1,7,-1
 176 556 l 2,8,9
 176 517 176 517 195.5 481.5 c 128,-1,10
 215 446 215 446 249.5 423.5 c 128,-1,11
 284 401 284 401 328 398 c 1,12,-1
 523 700 l 1,13,-1
 631 700 l 1,14,-1
 428 392 l 1,15,16
 494 382 494 382 540 349 c 128,-1,17
 586 316 586 316 610 265.5 c 128,-1,18
 634 215 634 215 634 152 c 2,19,-1
 634 0 l 1,20,-1
 538 0 l 1,21,-1
 538 159 l 2,22,23
 538 225 538 225 494 268.5 c 128,-1,24
 450 312 450 312 370 313 c 1,25,-1
 167 0 l 1,26,-1
 59 0 l 1,0,-1
EndSplineSet
Validated: 513
Substitution2: "'ss03' Style Set 3 in Latin lookup 41 subtable" X.ss03
Substitution2: "'ss02' Style Set 2 in Latin lookup 40 subtable" X.ss02
Substitution2: "'ss01' Style Set 1 in Latin lookup 39 subtable" X.ss01
AlternateSubs2: "'aalt' Access All Alternates in Latin lookup 1 subtable" X.ss01 X.ss02 X.ss03
EndChar

StartChar: Y
Encoding: 89 89 59
Width: 701
GlyphClass: 1
Flags: W
LayerCount: 2
Fore
SplineSet
302 0 m 1,0,-1
 302 203 l 1,1,2
 229 213 229 213 178 250.5 c 128,-1,3
 127 288 127 288 100 348 c 128,-1,4
 73 408 73 408 73 483 c 2,5,-1
 73 700 l 1,6,-1
 169 700 l 1,7,-1
 169 475 l 2,8,9
 169 423 169 423 190.5 379.5 c 128,-1,10
 212 336 212 336 252.5 309.5 c 128,-1,11
 293 283 293 283 351 283 c 256,12,13
 409 283 409 283 449.5 309.5 c 128,-1,14
 490 336 490 336 511 379.5 c 128,-1,15
 532 423 532 423 532 475 c 2,16,-1
 532 700 l 1,17,-1
 628 700 l 1,18,-1
 628 483 l 2,19,20
 628 408 628 408 601 348 c 128,-1,21
 574 288 574 288 522.5 250 c 128,-1,22
 471 212 471 212 398 203 c 1,23,-1
 398 0 l 1,24,-1
 302 0 l 1,0,-1
EndSplineSet
Validated: 1
EndChar

StartChar: Z
Encoding: 90 90 60
Width: 609
GlyphClass: 1
Flags: W
LayerCount: 2
Fore
SplineSet
188 0 m 2,0,1
 123 0 123 0 85 39.5 c 128,-1,2
 47 79 47 79 47 137 c 0,3,4
 47 174 47 174 62 200 c 128,-1,5
 77 226 77 226 111 254 c 2,6,-1
 428 516 l 2,7,8
 445 529 445 529 452 540 c 128,-1,9
 459 551 459 551 459 567 c 0,10,11
 459 579 459 579 452 590 c 128,-1,12
 445 601 445 601 434.5 608 c 128,-1,13
 424 615 424 615 411 615 c 2,14,-1
 69 615 l 1,15,-1
 69 700 l 1,16,-1
 420 700 l 2,17,18
 463 700 463 700 494.5 682 c 128,-1,19
 526 664 526 664 542.5 633.5 c 128,-1,20
 559 603 559 603 559 565 c 0,21,22
 559 528 559 528 543.5 499.5 c 128,-1,23
 528 471 528 471 496 445 c 2,24,-1
 179 184 l 2,25,26
 167 175 167 175 159.5 168 c 128,-1,27
 152 161 152 161 149.5 153.5 c 128,-1,28
 147 146 147 146 147 134 c 256,29,30
 147 122 147 122 153.5 110.5 c 128,-1,31
 160 99 160 99 171.5 92 c 128,-1,32
 183 85 183 85 198 85 c 2,33,-1
 559 85 l 1,34,-1
 559 0 l 1,35,-1
 188 0 l 2,0,1
EndSplineSet
Validated: 513
Substitution2: "'ss03' Style Set 3 in Latin lookup 41 subtable" Z.ss03
Substitution2: "'ss01' Style Set 1 in Latin lookup 39 subtable" Z.ss01
AlternateSubs2: "'aalt' Access All Alternates in Latin lookup 1 subtable" Z.ss01 Z.ss03
EndChar

StartChar: bracketleft
Encoding: 91 91 61
Width: 333
GlyphClass: 1
Flags: W
LayerCount: 2
Fore
SplineSet
76 -180 m 1,0,-1
 76 730 l 1,1,-1
 315 730 l 1,2,-1
 315 645 l 1,3,-1
 166 645 l 1,4,-1
 166 -95 l 1,5,-1
 315 -95 l 1,6,-1
 315 -180 l 1,7,-1
 76 -180 l 1,0,-1
EndSplineSet
Validated: 1
Substitution2: "'case' Case-Sensitive Forms in Latin lookup 35 subtable" bracketleft.case
Substitution2: "'aalt' Access All Alternates in Latin lookup 0 subtable" bracketleft.case
EndChar

StartChar: backslash
Encoding: 92 92 62
Width: 336
GlyphClass: 1
Flags: W
LayerCount: 2
Fore
SplineSet
279 -100 m 1,0,-1
 -19 730 l 1,1,-1
 69 730 l 1,2,-1
 367 -100 l 1,3,-1
 279 -100 l 1,0,-1
EndSplineSet
Validated: 1
EndChar

StartChar: bracketright
Encoding: 93 93 63
Width: 333
GlyphClass: 1
Flags: W
LayerCount: 2
Fore
SplineSet
18 -180 m 1,0,-1
 18 -95 l 1,1,-1
 167 -95 l 1,2,-1
 167 645 l 1,3,-1
 18 645 l 1,4,-1
 18 730 l 1,5,-1
 257 730 l 1,6,-1
 257 -180 l 1,7,-1
 18 -180 l 1,0,-1
EndSplineSet
Validated: 1
Substitution2: "'case' Case-Sensitive Forms in Latin lookup 35 subtable" bracketright.case
Substitution2: "'aalt' Access All Alternates in Latin lookup 0 subtable" bracketright.case
EndChar

StartChar: asciicircum
Encoding: 94 94 64
Width: 570
GlyphClass: 1
Flags: W
LayerCount: 2
Fore
SplineSet
67 376 m 1,0,-1
 242 730 l 1,1,-1
 328 730 l 1,2,-1
 502 376 l 1,3,-1
 418 376 l 1,4,-1
 284 649 l 1,5,-1
 149 376 l 1,6,-1
 67 376 l 1,0,-1
EndSplineSet
Validated: 1
EndChar

StartChar: underscore
Encoding: 95 95 65
Width: 500
GlyphClass: 1
Flags: W
LayerCount: 2
Fore
SplineSet
0 -99 m 1,0,-1
 0 -32 l 1,1,-1
 500 -32 l 1,2,-1
 500 -99 l 1,3,-1
 0 -99 l 1,0,-1
EndSplineSet
Validated: 1
EndChar

StartChar: grave
Encoding: 96 96 66
Width: 205
GlyphClass: 1
Flags: W
LayerCount: 2
Fore
SplineSet
89 757 m 1,0,-1
 -3 880 l 1,1,-1
 86 880 l 1,2,-1
 178 757 l 1,3,-1
 89 757 l 1,0,-1
EndSplineSet
Validated: 1
EndChar

StartChar: a
Encoding: 97 97 67
Width: 646
GlyphClass: 1
Flags: W
LayerCount: 2
Fore
SplineSet
285 -12 m 0,0,1
 211 -12 211 -12 157 23.5 c 128,-1,2
 103 59 103 59 74 120 c 128,-1,3
 45 181 45 181 45 255 c 0,4,5
 45 330 45 330 77 390.5 c 128,-1,6
 109 451 109 451 169 486.5 c 128,-1,7
 229 522 229 522 313 522 c 0,8,9
 394 522 394 522 452 487 c 128,-1,10
 510 452 510 452 541.5 392 c 128,-1,11
 573 332 573 332 573 258 c 2,12,-1
 573 0 l 1,13,-1
 480 0 l 1,14,-1
 480 104 l 1,15,-1
 478 104 l 1,16,17
 463 75 463 75 437.5 48.5 c 128,-1,18
 412 22 412 22 374 5 c 128,-1,19
 336 -12 336 -12 285 -12 c 0,0,1
309 67 m 0,20,21
 359 67 359 67 397.5 91.5 c 128,-1,22
 436 116 436 116 457.5 159.5 c 128,-1,23
 479 203 479 203 479 257 c 0,24,25
 479 310 479 310 458.5 352 c 128,-1,26
 438 394 438 394 400 418.5 c 128,-1,27
 362 443 362 443 311 443 c 0,28,29
 257 443 257 443 218.5 418 c 128,-1,30
 180 393 180 393 159.5 350.5 c 128,-1,31
 139 308 139 308 139 254 c 0,32,33
 139 202 139 202 159 159.5 c 128,-1,34
 179 117 179 117 217 92 c 128,-1,35
 255 67 255 67 309 67 c 0,20,21
EndSplineSet
Validated: 513
Substitution2: "'ss01' Style Set 1 in Latin lookup 39 subtable" a.ss01
Substitution2: "Single Substitution lookup 29 subtable" ordfeminine
AlternateSubs2: "'aalt' Access All Alternates in Latin lookup 1 subtable" a.ss01 ordfeminine
EndChar

StartChar: b
Encoding: 98 98 68
Width: 639
GlyphClass: 1
Flags: W
LayerCount: 2
Fore
SplineSet
331 -12 m 0,0,1
 257 -12 257 -12 198 20 c 128,-1,2
 139 52 139 52 104.5 112.5 c 128,-1,3
 70 173 70 173 70 258 c 2,4,-1
 70 730 l 1,5,-1
 162 730 l 1,6,-1
 162 419 l 1,7,-1
 164 419 l 1,8,9
 181 450 181 450 208.5 473 c 128,-1,10
 236 496 236 496 271.5 509 c 128,-1,11
 307 522 307 522 346 522 c 0,12,13
 417 522 417 522 473 490 c 128,-1,14
 529 458 529 458 561.5 399.5 c 128,-1,15
 594 341 594 341 594 261 c 0,16,17
 594 198 594 198 574.5 147.5 c 128,-1,18
 555 97 555 97 520 61 c 128,-1,19
 485 25 485 25 437 6.5 c 128,-1,20
 389 -12 389 -12 331 -12 c 0,0,1
331 67 m 0,21,22
 378 67 378 67 416.5 90 c 128,-1,23
 455 113 455 113 478 155 c 128,-1,24
 501 197 501 197 501 255 c 0,25,26
 501 311 501 311 478.5 353 c 128,-1,27
 456 395 456 395 418 419 c 128,-1,28
 380 443 380 443 332 443 c 0,29,30
 285 443 285 443 246.5 420 c 128,-1,31
 208 397 208 397 185.5 354.5 c 128,-1,32
 163 312 163 312 163 254 c 0,33,34
 163 197 163 197 185.5 155 c 128,-1,35
 208 113 208 113 246.5 90 c 128,-1,36
 285 67 285 67 331 67 c 0,21,22
EndSplineSet
Validated: 1
EndChar

StartChar: c
Encoding: 99 99 69
Width: 412
GlyphClass: 1
Flags: W
LayerCount: 2
Fore
SplineSet
320 0 m 2,0,1
 241 0 241 0 179 34 c 128,-1,2
 117 68 117 68 81 125.5 c 128,-1,3
 45 183 45 183 45 255 c 256,4,5
 45 327 45 327 81 384.5 c 128,-1,6
 117 442 117 442 179 476 c 128,-1,7
 241 510 241 510 320 510 c 2,8,-1
 380 510 l 1,9,-1
 380 431 l 1,10,-1
 317 431 l 2,11,12
 266 431 266 431 225.5 407.5 c 128,-1,13
 185 384 185 384 161.5 344 c 128,-1,14
 138 304 138 304 138 255 c 256,15,16
 138 206 138 206 161.5 166 c 128,-1,17
 185 126 185 126 225.5 102.5 c 128,-1,18
 266 79 266 79 317 79 c 2,19,-1
 380 79 l 1,20,-1
 380 0 l 1,21,-1
 320 0 l 2,0,1
EndSplineSet
Validated: 1
EndChar

StartChar: d
Encoding: 100 100 70
Width: 639
GlyphClass: 1
Flags: W
LayerCount: 2
Fore
SplineSet
308 -12 m 0,0,1
 250 -12 250 -12 202 6.5 c 128,-1,2
 154 25 154 25 119 61 c 128,-1,3
 84 97 84 97 64.5 147.5 c 128,-1,4
 45 198 45 198 45 261 c 0,5,6
 45 341 45 341 77.5 399.5 c 128,-1,7
 110 458 110 458 166.5 490 c 128,-1,8
 223 522 223 522 293 522 c 0,9,10
 332 522 332 522 367.5 509 c 128,-1,11
 403 496 403 496 431 473 c 128,-1,12
 459 450 459 450 475 419 c 1,13,-1
 477 419 l 1,14,-1
 477 730 l 1,15,-1
 569 730 l 1,16,-1
 569 258 l 2,17,18
 569 173 569 173 534.5 112.5 c 128,-1,19
 500 52 500 52 441.5 20 c 128,-1,20
 383 -12 383 -12 308 -12 c 0,0,1
308 67 m 256,21,22
 355 67 355 67 393 90 c 128,-1,23
 431 113 431 113 453.5 155 c 128,-1,24
 476 197 476 197 476 254 c 0,25,26
 476 312 476 312 453.5 354.5 c 128,-1,27
 431 397 431 397 393 420 c 128,-1,28
 355 443 355 443 307 443 c 0,29,30
 260 443 260 443 221.5 419 c 128,-1,31
 183 395 183 395 160.5 353 c 128,-1,32
 138 311 138 311 138 255 c 0,33,34
 138 197 138 197 161 155 c 128,-1,35
 184 113 184 113 222.5 90 c 128,-1,36
 261 67 261 67 308 67 c 256,21,22
EndSplineSet
Validated: 1
EndChar

StartChar: e
Encoding: 101 101 71
Width: 570
GlyphClass: 1
Flags: W
LayerCount: 2
Fore
SplineSet
332 0 m 2,0,1
 248 0 248 0 183 31.5 c 128,-1,2
 118 63 118 63 81.5 120.5 c 128,-1,3
 45 178 45 178 45 255 c 0,4,5
 45 331 45 331 76 391.5 c 128,-1,6
 107 452 107 452 162 487 c 128,-1,7
 217 522 217 522 290 522 c 0,8,9
 369 522 369 522 421.5 488 c 128,-1,10
 474 454 474 454 500 396.5 c 128,-1,11
 526 339 526 339 526 268 c 0,12,13
 526 257 526 257 525.5 245 c 128,-1,14
 525 233 525 233 523 224 c 1,15,-1
 143 224 l 1,16,17
 148 177 148 177 174 144.5 c 128,-1,18
 200 112 200 112 240.5 95.5 c 128,-1,19
 281 79 281 79 330 79 c 2,20,-1
 463 79 l 1,21,-1
 463 0 l 1,22,-1
 332 0 l 2,0,1
142 289 m 1,23,-1
 433 289 l 1,24,25
 433 308 433 308 429 329.5 c 128,-1,26
 425 351 425 351 415 371.5 c 128,-1,27
 405 392 405 392 388.5 408.5 c 128,-1,28
 372 425 372 425 347.5 435 c 128,-1,29
 323 445 323 445 290 445 c 0,30,31
 255 445 255 445 228.5 431.5 c 128,-1,32
 202 418 202 418 183 395.5 c 128,-1,33
 164 373 164 373 154 345 c 128,-1,34
 144 317 144 317 142 289 c 1,23,-1
EndSplineSet
Validated: 513
Substitution2: "'ss01' Style Set 1 in Latin lookup 39 subtable" e.ss01
Substitution2: "'aalt' Access All Alternates in Latin lookup 0 subtable" e.ss01
EndChar

StartChar: f
Encoding: 102 102 72
Width: 394
GlyphClass: 1
Flags: W
LayerCount: 2
Fore
SplineSet
103 0 m 1,0,-1
 103 431 l 1,1,-1
 14 431 l 1,2,-1
 14 510 l 1,3,-1
 103 510 l 1,4,-1
 103 585 l 2,5,6
 103 653 103 653 141.5 691.5 c 128,-1,7
 180 730 180 730 248 730 c 2,8,-1
 374 730 l 1,9,-1
 374 651 l 1,10,-1
 266 651 l 2,11,12
 232 651 232 651 214 632 c 128,-1,13
 196 613 196 613 196 579 c 2,14,-1
 196 510 l 1,15,-1
 354 510 l 1,16,-1
 354 431 l 1,17,-1
 196 431 l 1,18,-1
 196 0 l 1,19,-1
 103 0 l 1,0,-1
EndSplineSet
Validated: 1
EndChar

StartChar: g
Encoding: 103 103 73
Width: 640
GlyphClass: 1
Flags: W
LayerCount: 2
Fore
SplineSet
150 -203 m 1,0,-1
 150 -124 l 1,1,-1
 400 -124 l 2,2,3
 437 -124 437 -124 457.5 -102 c 128,-1,4
 478 -80 478 -80 478 -44 c 2,5,-1
 478 96 l 1,6,-1
 476 96 l 1,7,8
 457 67 457 67 430 44 c 128,-1,9
 403 21 403 21 368 7.5 c 128,-1,10
 333 -6 333 -6 289 -6 c 0,11,12
 217 -6 217 -6 162 27.5 c 128,-1,13
 107 61 107 61 76 120.5 c 128,-1,14
 45 180 45 180 45 257 c 0,15,16
 45 332 45 332 76 392 c 128,-1,17
 107 452 107 452 165.5 487 c 128,-1,18
 224 522 224 522 307 522 c 0,19,20
 387 522 387 522 446 488 c 128,-1,21
 505 454 505 454 537.5 393.5 c 128,-1,22
 570 333 570 333 570 252 c 2,23,-1
 570 -50 l 2,24,25
 570 -120 570 -120 529 -161.5 c 128,-1,26
 488 -203 488 -203 417 -203 c 2,27,-1
 150 -203 l 1,0,-1
306 73 m 0,28,29
 357 73 357 73 395.5 97 c 128,-1,30
 434 121 434 121 455.5 162.5 c 128,-1,31
 477 204 477 204 477 256 c 0,32,33
 477 309 477 309 456 351 c 128,-1,34
 435 393 435 393 397 417.5 c 128,-1,35
 359 442 359 442 306 442 c 0,36,37
 254 442 254 442 216.5 417.5 c 128,-1,38
 179 393 179 393 158.5 350.5 c 128,-1,39
 138 308 138 308 138 255 c 0,40,41
 138 205 138 205 158.5 163.5 c 128,-1,42
 179 122 179 122 216.5 97.5 c 128,-1,43
 254 73 254 73 306 73 c 0,28,29
EndSplineSet
Validated: 513
Substitution2: "'ss01' Style Set 1 in Latin lookup 39 subtable" g.ss01
Substitution2: "'aalt' Access All Alternates in Latin lookup 0 subtable" g.ss01
EndChar

StartChar: h
Encoding: 104 104 74
Width: 630
GlyphClass: 1
Flags: W
LayerCount: 2
Fore
SplineSet
73 0 m 1,0,-1
 73 730 l 1,1,-1
 165 730 l 1,2,-1
 165 444 l 1,3,4
 196 484 196 484 240.5 503 c 128,-1,5
 285 522 285 522 333 522 c 0,6,7
 401 522 401 522 451 493.5 c 128,-1,8
 501 465 501 465 529 414 c 128,-1,9
 557 363 557 363 557 295 c 2,10,-1
 557 0 l 1,11,-1
 465 0 l 1,12,-1
 465 294 l 2,13,14
 465 340 465 340 444 373.5 c 128,-1,15
 423 407 423 407 388.5 425 c 128,-1,16
 354 443 354 443 315 443 c 256,17,18
 276 443 276 443 242 425.5 c 128,-1,19
 208 408 208 408 186.5 375 c 128,-1,20
 165 342 165 342 165 296 c 2,21,-1
 165 0 l 1,22,-1
 73 0 l 1,0,-1
EndSplineSet
Validated: 1
EndChar

StartChar: i
Encoding: 105 105 75
Width: 238
GlyphClass: 1
Flags: W
LayerCount: 2
Fore
SplineSet
73 0 m 1
 73 510 l 1
 166 510 l 1
 166 0 l 1
 73 0 l 1
EndSplineSet
Refer: 136 729 N 1 0 0 1 39 -111 2
Validated: 513
Substitution2: "'ss01' Style Set 1 in Latin lookup 39 subtable" i.ss01
Substitution2: "'locl' Localized Forms in Latin lookup 14 subtable" i.loclTRK
Substitution2: "'locl' Localized Forms in Latin lookup 13 subtable" i.loclTRK
Substitution2: "'locl' Localized Forms in Latin lookup 12 subtable" i.loclTRK
Substitution2: "'locl' Localized Forms in Latin lookup 11 subtable" i.loclTRK
Substitution2: "'locl' Localized Forms in Latin lookup 10 subtable" i.loclTRK
Substitution2: "Single Substitution lookup 4 subtable" dotlessi
Substitution2: "Single Substitution lookup 3 subtable" dotlessi
AlternateSubs2: "'aalt' Access All Alternates in Latin lookup 1 subtable" i.loclTRK i.ss01
EndChar

StartChar: j
Encoding: 106 106 76
Width: 238
GlyphClass: 1
Flags: W
LayerCount: 2
Fore
SplineSet
-77 -165 m 1
 -77 -86 l 1
 4 -86 l 2
 38 -86 38 -86 56 -66.5 c 0
 74 -47 74 -47 74 -14 c 2
 74 510 l 1
 166 510 l 1
 166 -20 l 2
 166 -87 166 -87 127 -126 c 0
 88 -165 88 -165 20 -165 c 2
 -77 -165 l 1
EndSplineSet
Refer: 136 729 N 1 0 0 1 38 -110 2
Validated: 513
Substitution2: "Single Substitution lookup 4 subtable" uni0237
Substitution2: "Single Substitution lookup 3 subtable" uni0237
EndChar

StartChar: k
Encoding: 107 107 77
Width: 607
GlyphClass: 1
Flags: W
LayerCount: 2
Fore
SplineSet
73 0 m 1,0,-1
 73 730 l 1,1,-1
 165 730 l 1,2,-1
 165 296 l 1,3,-1
 305 296 l 1,4,-1
 439 510 l 1,5,-1
 541 510 l 1,6,-1
 396 282 l 1,7,8
 468 261 468 261 508.5 203.5 c 128,-1,9
 549 146 549 146 549 70 c 2,10,-1
 549 0 l 1,11,-1
 456 0 l 1,12,-1
 456 70 l 2,13,14
 456 112 456 112 437.5 145 c 128,-1,15
 419 178 419 178 386 197.5 c 128,-1,16
 353 217 353 217 310 217 c 2,17,-1
 165 217 l 1,18,-1
 165 0 l 1,19,-1
 73 0 l 1,0,-1
EndSplineSet
Validated: 513
Substitution2: "'ss01' Style Set 1 in Latin lookup 39 subtable" k.ss01
Substitution2: "'aalt' Access All Alternates in Latin lookup 0 subtable" k.ss01
EndChar

StartChar: l
Encoding: 108 108 78
Width: 238
GlyphClass: 1
Flags: W
LayerCount: 2
Fore
SplineSet
73 0 m 1,0,-1
 73 730 l 1,1,-1
 165 730 l 1,2,-1
 165 0 l 1,3,-1
 73 0 l 1,0,-1
EndSplineSet
Validated: 513
Substitution2: "'ss02' Style Set 2 in Latin lookup 40 subtable" l.ss02
Substitution2: "'ss01' Style Set 1 in Latin lookup 39 subtable" l.ss01
AlternateSubs2: "'aalt' Access All Alternates in Latin lookup 1 subtable" l.ss01 l.ss02
EndChar

StartChar: m
Encoding: 109 109 79
Width: 971
GlyphClass: 1
Flags: W
LayerCount: 2
Fore
SplineSet
73 0 m 1,0,-1
 73 307 l 2,1,2
 73 366 73 366 100 415 c 128,-1,3
 127 464 127 464 178 493 c 128,-1,4
 229 522 229 522 301 522 c 0,5,6
 336 522 336 522 371 512.5 c 128,-1,7
 406 503 406 503 436 480.5 c 128,-1,8
 466 458 466 458 484 420 c 1,9,-1
 485 420 l 1,10,11
 505 458 505 458 535 480.5 c 128,-1,12
 565 503 565 503 600 512.5 c 128,-1,13
 635 522 635 522 671 522 c 0,14,15
 742 522 742 522 793 493 c 128,-1,16
 844 464 844 464 871 415 c 128,-1,17
 898 366 898 366 898 307 c 2,18,-1
 898 0 l 1,19,-1
 806 0 l 1,20,-1
 806 307 l 2,21,22
 806 345 806 345 788 376 c 128,-1,23
 770 407 770 407 739.5 425 c 128,-1,24
 709 443 709 443 670 443 c 0,25,26
 632 443 632 443 600 424.5 c 128,-1,27
 568 406 568 406 549.5 375.5 c 128,-1,28
 531 345 531 345 531 307 c 2,29,-1
 531 0 l 1,30,-1
 439 0 l 1,31,-1
 439 307 l 2,32,33
 439 345 439 345 420.5 375.5 c 128,-1,34
 402 406 402 406 370.5 424.5 c 128,-1,35
 339 443 339 443 300 443 c 0,36,37
 262 443 262 443 231.5 425 c 128,-1,38
 201 407 201 407 183 376 c 128,-1,39
 165 345 165 345 165 307 c 2,40,-1
 165 0 l 1,41,-1
 73 0 l 1,0,-1
EndSplineSet
Validated: 513
Substitution2: "'ss01' Style Set 1 in Latin lookup 39 subtable" m.ss01
Substitution2: "'aalt' Access All Alternates in Latin lookup 0 subtable" m.ss01
EndChar

StartChar: n
Encoding: 110 110 80
Width: 622
GlyphClass: 1
Flags: W
LayerCount: 2
Fore
SplineSet
73 0 m 1,0,-1
 73 295 l 2,1,2
 73 363 73 363 103.5 414 c 128,-1,3
 134 465 134 465 188 493.5 c 128,-1,4
 242 522 242 522 311 522 c 0,5,6
 381 522 381 522 434.5 493.5 c 128,-1,7
 488 465 488 465 518.5 414 c 128,-1,8
 549 363 549 363 549 295 c 2,9,-1
 549 0 l 1,10,-1
 457 0 l 1,11,-1
 457 294 l 2,12,13
 457 340 457 340 436.5 373.5 c 128,-1,14
 416 407 416 407 382.5 425 c 128,-1,15
 349 443 349 443 311 443 c 256,16,17
 273 443 273 443 239.5 425 c 128,-1,18
 206 407 206 407 185.5 373.5 c 128,-1,19
 165 340 165 340 165 294 c 2,20,-1
 165 0 l 1,21,-1
 73 0 l 1,0,-1
EndSplineSet
Validated: 513
Substitution2: "'ss01' Style Set 1 in Latin lookup 39 subtable" n.ss01
Substitution2: "'aalt' Access All Alternates in Latin lookup 0 subtable" n.ss01
EndChar

StartChar: o
Encoding: 111 111 81
Width: 626
GlyphClass: 1
Flags: W
LayerCount: 2
Fore
SplineSet
313 -12 m 256,0,1
 235 -12 235 -12 175 23.5 c 128,-1,2
 115 59 115 59 80 119.5 c 128,-1,3
 45 180 45 180 45 255 c 256,4,5
 45 330 45 330 80 390.5 c 128,-1,6
 115 451 115 451 175 486.5 c 128,-1,7
 235 522 235 522 313 522 c 256,8,9
 391 522 391 522 451.5 486.5 c 128,-1,10
 512 451 512 451 546.5 391 c 128,-1,11
 581 331 581 331 581 255 c 0,12,13
 581 180 581 180 546.5 119.5 c 128,-1,14
 512 59 512 59 451.5 23.5 c 128,-1,15
 391 -12 391 -12 313 -12 c 256,0,1
313 67 m 0,16,17
 366 67 366 67 405 92 c 128,-1,18
 444 117 444 117 466 159.5 c 128,-1,19
 488 202 488 202 488 255 c 256,20,21
 488 308 488 308 466 350.5 c 128,-1,22
 444 393 444 393 405 418 c 128,-1,23
 366 443 366 443 313 443 c 0,24,25
 261 443 261 443 221.5 418 c 128,-1,26
 182 393 182 393 160 350.5 c 128,-1,27
 138 308 138 308 138 255 c 256,28,29
 138 202 138 202 160 159.5 c 128,-1,30
 182 117 182 117 221.5 92 c 128,-1,31
 261 67 261 67 313 67 c 0,16,17
EndSplineSet
Validated: 513
Substitution2: "'ss02' Style Set 2 in Latin lookup 40 subtable" o.ss02
Substitution2: "'ss01' Style Set 1 in Latin lookup 39 subtable" o.ss01
Substitution2: "Single Substitution lookup 29 subtable" ordmasculine
AlternateSubs2: "'aalt' Access All Alternates in Latin lookup 1 subtable" o.ss01 o.ss02 ordmasculine
EndChar

StartChar: p
Encoding: 112 112 82
Width: 639
GlyphClass: 1
Flags: W
LayerCount: 2
Fore
SplineSet
331 522 m 0,0,1
 389 522 389 522 437 503.5 c 128,-1,2
 485 485 485 485 520 449 c 128,-1,3
 555 413 555 413 574.5 362.5 c 128,-1,4
 594 312 594 312 594 249 c 0,5,6
 594 170 594 170 561.5 111 c 128,-1,7
 529 52 529 52 473 20 c 128,-1,8
 417 -12 417 -12 346 -12 c 0,9,10
 307 -12 307 -12 271.5 1 c 128,-1,11
 236 14 236 14 208.5 37.5 c 128,-1,12
 181 61 181 61 164 91 c 1,13,-1
 162 91 l 1,14,-1
 162 -220 l 1,15,-1
 70 -220 l 1,16,-1
 70 252 l 2,17,18
 70 338 70 338 104.5 398 c 128,-1,19
 139 458 139 458 198 490 c 128,-1,20
 257 522 257 522 331 522 c 0,0,1
331 443 m 0,21,22
 285 443 285 443 246.5 420 c 128,-1,23
 208 397 208 397 185.5 355 c 128,-1,24
 163 313 163 313 163 256 c 0,25,26
 163 198 163 198 185.5 155.5 c 128,-1,27
 208 113 208 113 246.5 90 c 128,-1,28
 285 67 285 67 332 67 c 0,29,30
 380 67 380 67 418 91 c 128,-1,31
 456 115 456 115 478.5 157 c 128,-1,32
 501 199 501 199 501 255 c 0,33,34
 501 313 501 313 478 355 c 128,-1,35
 455 397 455 397 416.5 420 c 128,-1,36
 378 443 378 443 331 443 c 0,21,22
EndSplineSet
Validated: 1
EndChar

StartChar: q
Encoding: 113 113 83
Width: 626
GlyphClass: 1
Flags: W
LayerCount: 2
Fore
SplineSet
268 -203 m 1,0,-1
 268 5 l 1,1,-1
 359 5 l 1,2,-1
 359 -203 l 1,3,-1
 268 -203 l 1,0,-1
313 -12 m 256,4,5
 235 -12 235 -12 175 23.5 c 128,-1,6
 115 59 115 59 80 119.5 c 128,-1,7
 45 180 45 180 45 255 c 256,8,9
 45 330 45 330 80 390.5 c 128,-1,10
 115 451 115 451 175 486.5 c 128,-1,11
 235 522 235 522 313 522 c 256,12,13
 391 522 391 522 451.5 486.5 c 128,-1,14
 512 451 512 451 546.5 391 c 128,-1,15
 581 331 581 331 581 255 c 0,16,17
 581 180 581 180 546.5 119.5 c 128,-1,18
 512 59 512 59 451.5 23.5 c 128,-1,19
 391 -12 391 -12 313 -12 c 256,4,5
313 67 m 0,20,21
 366 67 366 67 405 92 c 128,-1,22
 444 117 444 117 466 159.5 c 128,-1,23
 488 202 488 202 488 255 c 256,24,25
 488 308 488 308 466 350.5 c 128,-1,26
 444 393 444 393 405 418 c 128,-1,27
 366 443 366 443 313 443 c 0,28,29
 261 443 261 443 221.5 418 c 128,-1,30
 182 393 182 393 160 350.5 c 128,-1,31
 138 308 138 308 138 255 c 256,32,33
 138 202 138 202 160 159.5 c 128,-1,34
 182 117 182 117 221.5 92 c 128,-1,35
 261 67 261 67 313 67 c 0,20,21
EndSplineSet
Validated: 517
Substitution2: "'ss01' Style Set 1 in Latin lookup 39 subtable" q.ss01
Substitution2: "'aalt' Access All Alternates in Latin lookup 0 subtable" q.ss01
EndChar

StartChar: r
Encoding: 114 114 84
Width: 332
GlyphClass: 1
Flags: W
LayerCount: 2
Fore
SplineSet
70 0 m 1,0,-1
 70 365 l 2,1,2
 70 433 70 433 108.5 471.5 c 128,-1,3
 147 510 147 510 215 510 c 2,4,-1
 320 510 l 1,5,-1
 320 431 l 1,6,-1
 232 431 l 2,7,8
 199 431 199 431 180.5 412 c 128,-1,9
 162 393 162 393 162 359 c 2,10,-1
 162 0 l 1,11,-1
 70 0 l 1,0,-1
EndSplineSet
Validated: 513
Substitution2: "'ss02' Style Set 2 in Latin lookup 40 subtable" r.ss02
Substitution2: "'ss01' Style Set 1 in Latin lookup 39 subtable" r.ss01
AlternateSubs2: "'aalt' Access All Alternates in Latin lookup 1 subtable" r.ss01 r.ss02
EndChar

StartChar: s
Encoding: 115 115 85
Width: 527
GlyphClass: 1
Flags: W
LayerCount: 2
Fore
SplineSet
66 0 m 1,0,-1
 66 79 l 1,1,-1
 310 79 l 2,2,3
 334 79 334 79 351.5 89.5 c 128,-1,4
 369 100 369 100 378 117 c 128,-1,5
 387 134 387 134 387 153 c 0,6,7
 387 171 387 171 379 186.5 c 128,-1,8
 371 202 371 202 354.5 211.5 c 128,-1,9
 338 221 338 221 315 221 c 2,10,-1
 212 221 l 2,11,12
 163 221 163 221 126.5 237.5 c 128,-1,13
 90 254 90 254 69.5 286 c 128,-1,14
 49 318 49 318 49 364 c 0,15,16
 49 403 49 403 68 436 c 128,-1,17
 87 469 87 469 121 489.5 c 128,-1,18
 155 510 155 510 199 510 c 2,19,-1
 434 510 l 1,20,-1
 434 431 l 1,21,-1
 208 431 l 2,22,23
 177 431 177 431 159 412 c 128,-1,24
 141 393 141 393 141 367 c 0,25,26
 141 342 141 342 159.5 323.5 c 128,-1,27
 178 305 178 305 212 305 c 2,28,-1
 310 305 l 2,29,30
 365 305 365 305 402.5 287.5 c 128,-1,31
 440 270 440 270 459.5 237 c 128,-1,32
 479 204 479 204 479 156 c 0,33,34
 479 115 479 115 459 79.5 c 128,-1,35
 439 44 439 44 403.5 22 c 128,-1,36
 368 0 368 0 321 0 c 2,37,-1
 66 0 l 1,0,-1
EndSplineSet
Validated: 1
EndChar

StartChar: t
Encoding: 116 116 86
Width: 407
GlyphClass: 1
Flags: W
LayerCount: 2
Fore
SplineSet
247 0 m 2,0,1
 179 0 179 0 140.5 39 c 128,-1,2
 102 78 102 78 102 145 c 2,3,-1
 102 638 l 1,4,-1
 194 638 l 1,5,-1
 194 151 l 2,6,7
 194 118 194 118 212.5 98.5 c 128,-1,8
 231 79 231 79 264 79 c 2,9,-1
 367 79 l 1,10,-1
 367 0 l 1,11,-1
 247 0 l 2,0,1
14 431 m 1,12,-1
 14 510 l 1,13,-1
 369 510 l 1,14,-1
 369 431 l 1,15,-1
 14 431 l 1,12,-1
EndSplineSet
Validated: 5
EndChar

StartChar: u
Encoding: 117 117 87
Width: 624
GlyphClass: 1
Flags: W
LayerCount: 2
Fore
SplineSet
312 -12 m 256,0,1
 243 -12 243 -12 188.5 16.5 c 128,-1,2
 134 45 134 45 103.5 96 c 128,-1,3
 73 147 73 147 73 215 c 2,4,-1
 73 510 l 1,5,-1
 166 510 l 1,6,-1
 166 216 l 2,7,8
 166 170 166 170 186 136.5 c 128,-1,9
 206 103 206 103 239.5 85 c 128,-1,10
 273 67 273 67 311 67 c 0,11,12
 350 67 350 67 383.5 85 c 128,-1,13
 417 103 417 103 437.5 136.5 c 128,-1,14
 458 170 458 170 458 216 c 2,15,-1
 458 510 l 1,16,-1
 551 510 l 1,17,-1
 551 215 l 2,18,19
 551 147 551 147 520 96 c 128,-1,20
 489 45 489 45 435 16.5 c 128,-1,21
 381 -12 381 -12 312 -12 c 256,0,1
EndSplineSet
Validated: 1
EndChar

StartChar: v
Encoding: 118 118 88
Width: 577
GlyphClass: 1
Flags: W
LayerCount: 2
Fore
SplineSet
288 -12 m 0,0,1
 254 -12 254 -12 226.5 7.5 c 128,-1,2
 199 27 199 27 186 63 c 2,3,-1
 20 510 l 1,4,-1
 121 510 l 1,5,-1
 269 97 l 2,6,7
 273 87 273 87 278 83 c 128,-1,8
 283 79 283 79 289 79 c 0,9,10
 296 79 296 79 300.5 83 c 128,-1,11
 305 87 305 87 309 97 c 2,12,-1
 458 510 l 1,13,-1
 557 510 l 1,14,-1
 391 63 l 2,15,16
 377 27 377 27 350 7.5 c 128,-1,17
 323 -12 323 -12 288 -12 c 0,0,1
EndSplineSet
Validated: 1
EndChar

StartChar: w
Encoding: 119 119 89
Width: 980
GlyphClass: 1
Flags: W
LayerCount: 2
Fore
SplineSet
244 -12 m 0,0,1
 196 -12 196 -12 157.5 6.5 c 128,-1,2
 119 25 119 25 96 64.5 c 128,-1,3
 73 104 73 104 73 166 c 2,4,-1
 73 510 l 1,5,-1
 165 510 l 1,6,-1
 165 150 l 2,7,8
 165 123 165 123 176 104 c 128,-1,9
 187 85 187 85 205 76 c 128,-1,10
 223 67 223 67 243 67 c 256,11,12
 263 67 263 67 281 76.5 c 128,-1,13
 299 86 299 86 310.5 104.5 c 128,-1,14
 322 123 322 123 322 150 c 2,15,-1
 322 348 l 2,16,17
 322 407 322 407 344 445.5 c 128,-1,18
 366 484 366 484 404 503 c 128,-1,19
 442 522 442 522 490 522 c 256,20,21
 538 522 538 522 576 503 c 128,-1,22
 614 484 614 484 636 445.5 c 128,-1,23
 658 407 658 407 658 348 c 2,24,-1
 658 150 l 2,25,26
 658 123 658 123 669 104.5 c 128,-1,27
 680 86 680 86 698 76.5 c 128,-1,28
 716 67 716 67 737 67 c 256,29,30
 758 67 758 67 775 76.5 c 128,-1,31
 792 86 792 86 803 104.5 c 128,-1,32
 814 123 814 123 814 150 c 2,33,-1
 814 510 l 1,34,-1
 907 510 l 1,35,-1
 907 166 l 2,36,37
 907 104 907 104 884 64.5 c 128,-1,38
 861 25 861 25 822.5 6.5 c 128,-1,39
 784 -12 784 -12 737 -12 c 0,40,41
 691 -12 691 -12 652 6.5 c 128,-1,42
 613 25 613 25 589.5 64.5 c 128,-1,43
 566 104 566 104 566 166 c 2,44,-1
 566 362 l 2,45,46
 566 390 566 390 555 408 c 128,-1,47
 544 426 544 426 527 434.5 c 128,-1,48
 510 443 510 443 490 443 c 256,49,50
 470 443 470 443 452.5 434.5 c 128,-1,51
 435 426 435 426 424.5 408 c 128,-1,52
 414 390 414 390 414 362 c 2,53,-1
 414 166 l 2,54,55
 414 104 414 104 390.5 64.5 c 128,-1,56
 367 25 367 25 328.5 6.5 c 128,-1,57
 290 -12 290 -12 244 -12 c 0,0,1
EndSplineSet
Validated: 513
Substitution2: "'ss01' Style Set 1 in Latin lookup 39 subtable" w.ss01
Substitution2: "'aalt' Access All Alternates in Latin lookup 0 subtable" w.ss01
EndChar

StartChar: x
Encoding: 120 120 90
Width: 600
GlyphClass: 1
Flags: W
LayerCount: 2
Fore
SplineSet
43 0 m 1,0,-1
 218 235 l 1,1,2
 171 251 171 251 135.5 281.5 c 128,-1,3
 100 312 100 312 79.5 353.5 c 128,-1,4
 59 395 59 395 59 442 c 2,5,-1
 59 510 l 1,6,-1
 152 510 l 1,7,-1
 152 442 l 2,8,9
 152 405 152 405 171 374 c 128,-1,10
 190 343 190 343 222 324 c 128,-1,11
 254 305 254 305 291 300 c 1,12,-1
 445 510 l 1,13,-1
 547 510 l 1,14,-1
 381 285 l 1,15,16
 433 270 433 270 470.5 238.5 c 128,-1,17
 508 207 508 207 529 163.5 c 128,-1,18
 550 120 550 120 550 69 c 2,19,-1
 550 0 l 1,20,-1
 458 0 l 1,21,-1
 458 69 l 2,22,23
 458 109 458 109 438 141.5 c 128,-1,24
 418 174 418 174 384 194.5 c 128,-1,25
 350 215 350 215 306 219 c 1,26,-1
 146 0 l 1,27,-1
 43 0 l 1,0,-1
EndSplineSet
Validated: 513
Substitution2: "'ss02' Style Set 2 in Latin lookup 40 subtable" x.ss02
Substitution2: "'ss01' Style Set 1 in Latin lookup 39 subtable" x.ss01
AlternateSubs2: "'aalt' Access All Alternates in Latin lookup 1 subtable" x.ss01 x.ss02
EndChar

StartChar: y
Encoding: 121 121 91
Width: 623
GlyphClass: 1
Flags: W
LayerCount: 2
Fore
SplineSet
266 -203 m 1,0,-1
 266 -8 l 1,1,2
 210 0 210 0 166.5 29.5 c 128,-1,3
 123 59 123 59 98 106.5 c 128,-1,4
 73 154 73 154 73 215 c 2,5,-1
 73 510 l 1,6,-1
 166 510 l 1,7,-1
 166 216 l 2,8,9
 166 170 166 170 186 136.5 c 128,-1,10
 206 103 206 103 239.5 85 c 128,-1,11
 273 67 273 67 311 67 c 0,12,13
 350 67 350 67 383.5 85 c 128,-1,14
 417 103 417 103 437.5 136.5 c 128,-1,15
 458 170 458 170 458 216 c 2,16,-1
 458 510 l 1,17,-1
 550 510 l 1,18,-1
 550 215 l 2,19,20
 550 154 550 154 525.5 107 c 128,-1,21
 501 60 501 60 457.5 30.5 c 128,-1,22
 414 1 414 1 358 -8 c 1,23,-1
 358 -203 l 1,24,-1
 266 -203 l 1,0,-1
EndSplineSet
Validated: 513
Substitution2: "'ss01' Style Set 1 in Latin lookup 39 subtable" y.ss01
Substitution2: "'aalt' Access All Alternates in Latin lookup 0 subtable" y.ss01
EndChar

StartChar: z
Encoding: 122 122 92
Width: 511
GlyphClass: 1
Flags: W
LayerCount: 2
Fore
SplineSet
148 0 m 2,0,1
 116 0 116 0 91 15 c 128,-1,2
 66 30 66 30 51.5 55.5 c 128,-1,3
 37 81 37 81 37 111 c 0,4,5
 37 143 37 143 52.5 167.5 c 128,-1,6
 68 192 68 192 98 212 c 2,7,-1
 333 361 l 2,8,9
 348 370 348 370 352.5 379 c 128,-1,10
 357 388 357 388 357 398 c 0,11,12
 357 410 357 410 347 420.5 c 128,-1,13
 337 431 337 431 321 431 c 2,14,-1
 62 431 l 1,15,-1
 62 510 l 1,16,-1
 349 510 l 2,17,18
 380 510 380 510 404.5 495 c 128,-1,19
 429 480 429 480 443.5 454.5 c 128,-1,20
 458 429 458 429 458 399 c 0,21,22
 458 368 458 368 442.5 342.5 c 128,-1,23
 427 317 427 317 398 298 c 2,24,-1
 163 149 l 2,25,26
 148 140 148 140 143.5 131 c 128,-1,27
 139 122 139 122 139 112 c 0,28,29
 139 100 139 100 149 89.5 c 128,-1,30
 159 79 159 79 176 79 c 2,31,-1
 449 79 l 1,32,-1
 449 0 l 1,33,-1
 148 0 l 2,0,1
EndSplineSet
Validated: 513
Substitution2: "'ss01' Style Set 1 in Latin lookup 39 subtable" z.ss01
Substitution2: "'aalt' Access All Alternates in Latin lookup 0 subtable" z.ss01
EndChar

StartChar: braceleft
Encoding: 123 123 93
Width: 368
GlyphClass: 1
Flags: W
LayerCount: 2
Fore
SplineSet
251 -180 m 2,0,1
 191 -180 191 -180 157 -144 c 128,-1,2
 123 -108 123 -108 123 -47 c 2,3,-1
 123 182 l 2,4,5
 123 196 123 196 116 209.5 c 128,-1,6
 109 223 109 223 97 231 c 128,-1,7
 85 239 85 239 69 239 c 2,8,-1
 30 239 l 1,9,-1
 30 324 l 1,10,-1
 69 324 l 2,11,12
 92 324 92 324 107.5 341.5 c 128,-1,13
 123 359 123 359 123 382 c 2,14,-1
 123 601 l 2,15,16
 123 661 123 661 157 695.5 c 128,-1,17
 191 730 191 730 251 730 c 2,18,-1
 350 730 l 1,19,-1
 350 645 l 1,20,-1
 264 645 l 2,21,22
 242 645 242 645 228 630.5 c 128,-1,23
 214 616 214 616 214 593 c 2,24,-1
 214 386 l 2,25,26
 214 368 214 368 207.5 347.5 c 128,-1,27
 201 327 201 327 188 310 c 128,-1,28
 175 293 175 293 154 281 c 1,29,30
 175 271 175 271 188 253.5 c 128,-1,31
 201 236 201 236 207.5 216 c 128,-1,32
 214 196 214 196 214 177 c 2,33,-1
 214 -41 l 2,34,35
 214 -65 214 -65 228 -80 c 128,-1,36
 242 -95 242 -95 264 -95 c 2,37,-1
 350 -95 l 1,38,-1
 350 -180 l 1,39,-1
 251 -180 l 2,0,1
EndSplineSet
Validated: 1
Substitution2: "'case' Case-Sensitive Forms in Latin lookup 35 subtable" braceleft.case
Substitution2: "'aalt' Access All Alternates in Latin lookup 0 subtable" braceleft.case
EndChar

StartChar: bar
Encoding: 124 124 94
Width: 242
GlyphClass: 1
Flags: W
LayerCount: 2
Fore
SplineSet
76 -180 m 1,0,-1
 76 730 l 1,1,-1
 166 730 l 1,2,-1
 166 -180 l 1,3,-1
 76 -180 l 1,0,-1
EndSplineSet
Validated: 1
EndChar

StartChar: braceright
Encoding: 125 125 95
Width: 368
GlyphClass: 1
Flags: W
LayerCount: 2
Fore
SplineSet
18 -180 m 1,0,-1
 18 -95 l 1,1,-1
 104 -95 l 2,2,3
 127 -95 127 -95 140.5 -80 c 128,-1,4
 154 -65 154 -65 154 -41 c 2,5,-1
 154 177 l 2,6,7
 154 196 154 196 160.5 216 c 128,-1,8
 167 236 167 236 180.5 253.5 c 128,-1,9
 194 271 194 271 214 281 c 1,10,11
 194 293 194 293 180.5 310 c 128,-1,12
 167 327 167 327 160.5 347.5 c 128,-1,13
 154 368 154 368 154 386 c 2,14,-1
 154 593 l 2,15,16
 154 617 154 617 140.5 631 c 128,-1,17
 127 645 127 645 104 645 c 2,18,-1
 18 645 l 1,19,-1
 18 730 l 1,20,-1
 117 730 l 2,21,22
 177 730 177 730 211 696 c 128,-1,23
 245 662 245 662 245 601 c 2,24,-1
 245 382 l 2,25,26
 245 359 245 359 260.5 341.5 c 128,-1,27
 276 324 276 324 299 324 c 2,28,-1
 338 324 l 1,29,-1
 338 239 l 1,30,-1
 299 239 l 2,31,32
 284 239 284 239 271.5 230.5 c 128,-1,33
 259 222 259 222 252 209 c 128,-1,34
 245 196 245 196 245 182 c 2,35,-1
 245 -47 l 2,36,37
 245 -109 245 -109 211 -144.5 c 128,-1,38
 177 -180 177 -180 117 -180 c 2,39,-1
 18 -180 l 1,0,-1
EndSplineSet
Validated: 1
Substitution2: "'case' Case-Sensitive Forms in Latin lookup 35 subtable" braceright.case
Substitution2: "'aalt' Access All Alternates in Latin lookup 0 subtable" braceright.case
EndChar

StartChar: asciitilde
Encoding: 126 126 96
Width: 576
GlyphClass: 1
Flags: W
LayerCount: 2
Fore
SplineSet
380 279 m 0,0,1
 349 279 349 279 322.5 288.5 c 128,-1,2
 296 298 296 298 273.5 311.5 c 128,-1,3
 251 325 251 325 228.5 334.5 c 128,-1,4
 206 344 206 344 182 344 c 0,5,6
 156 344 156 344 132 332 c 128,-1,7
 108 320 108 320 79 293 c 1,8,-1
 35 348 l 1,9,10
 73 386 73 386 108.5 405.5 c 128,-1,11
 144 425 144 425 181 425 c 0,12,13
 211 425 211 425 237 415 c 128,-1,14
 263 405 263 405 285.5 392 c 128,-1,15
 308 379 308 379 331 369 c 128,-1,16
 354 359 354 359 380 359 c 0,17,18
 403 359 403 359 422.5 367.5 c 128,-1,19
 442 376 442 376 461 390.5 c 128,-1,20
 480 405 480 405 498 422 c 1,21,-1
 543 367 l 1,22,23
 496 322 496 322 458 300.5 c 128,-1,24
 420 279 420 279 380 279 c 0,0,1
EndSplineSet
Validated: 1
EndChar

StartChar: exclamdown
Encoding: 161 161 98
Width: 260
GlyphClass: 1
Flags: W
LayerCount: 2
Fore
SplineSet
84 -191 m 1,0,-1
 84 284 l 1,1,-1
 176 284 l 1,2,-1
 176 -191 l 1,3,-1
 84 -191 l 1,0,-1
130 520 m 0,4,5
 149 520 149 520 164 511 c 128,-1,6
 179 502 179 502 187.5 487 c 128,-1,7
 196 472 196 472 196 454 c 0,8,9
 196 427 196 427 176.5 407.5 c 128,-1,10
 157 388 157 388 130 388 c 256,11,12
 103 388 103 388 83.5 407.5 c 128,-1,13
 64 427 64 427 64 454 c 256,14,15
 64 481 64 481 83.5 500.5 c 128,-1,16
 103 520 103 520 130 520 c 0,4,5
EndSplineSet
Validated: 1
Substitution2: "'case' Case-Sensitive Forms in Latin lookup 35 subtable" exclamdown.case
Substitution2: "'aalt' Access All Alternates in Latin lookup 0 subtable" exclamdown.case
EndChar

StartChar: cent
Encoding: 162 162 99
Width: 409
GlyphClass: 1
Flags: W
LayerCount: 2
Fore
SplineSet
228 -119 m 1,0,-1
 228 25 l 1,1,-1
 296 15 l 1,2,-1
 296 -119 l 1,3,-1
 228 -119 l 1,0,-1
228 484 m 1,4,-1
 228 629 l 1,5,-1
 296 629 l 1,6,-1
 296 495 l 1,7,-1
 228 484 l 1,4,-1
320 0 m 2,8,9
 241 0 241 0 179 34 c 128,-1,10
 117 68 117 68 81 125.5 c 128,-1,11
 45 183 45 183 45 255 c 256,12,13
 45 327 45 327 81 384.5 c 128,-1,14
 117 442 117 442 179 476 c 128,-1,15
 241 510 241 510 320 510 c 2,16,-1
 380 510 l 1,17,-1
 380 431 l 1,18,-1
 317 431 l 2,19,20
 266 431 266 431 225.5 407.5 c 128,-1,21
 185 384 185 384 161.5 344 c 128,-1,22
 138 304 138 304 138 255 c 256,23,24
 138 206 138 206 161.5 166 c 128,-1,25
 185 126 185 126 225.5 102.5 c 128,-1,26
 266 79 266 79 317 79 c 2,27,-1
 380 79 l 1,28,-1
 380 0 l 1,29,-1
 320 0 l 2,8,9
EndSplineSet
Validated: 5
EndChar

StartChar: sterling
Encoding: 163 163 100
Width: 598
GlyphClass: 1
Flags: W
LayerCount: 2
Fore
SplineSet
70 0 m 1,0,-1
 70 85 l 1,1,-1
 174 85 l 1,2,-1
 174 501 l 2,3,4
 174 558 174 558 198 602.5 c 128,-1,5
 222 647 222 647 266 673.5 c 128,-1,6
 310 700 310 700 367 700 c 2,7,-1
 517 700 l 1,8,-1
 517 615 l 1,9,-1
 367 615 l 2,10,11
 325 615 325 615 297.5 585.5 c 128,-1,12
 270 556 270 556 270 511 c 2,13,-1
 270 85 l 1,14,-1
 553 85 l 1,15,-1
 553 0 l 1,16,-1
 70 0 l 1,0,-1
70 326 m 1,17,-1
 70 410 l 1,18,-1
 447 410 l 1,19,-1
 447 326 l 1,20,-1
 70 326 l 1,17,-1
EndSplineSet
Validated: 5
EndChar

StartChar: currency
Encoding: 164 164 101
Width: 682
GlyphClass: 1
Flags: W
LayerCount: 2
Fore
SplineSet
112 26 m 1,0,-1
 51 88 l 1,1,-1
 132 169 l 1,2,3
 109 200 109 200 95.5 238 c 128,-1,4
 82 276 82 276 82 319 c 0,5,6
 82 361 82 361 95 398 c 128,-1,7
 108 435 108 435 130 466 c 1,8,-1
 53 543 l 1,9,-1
 114 604 l 1,10,-1
 190 526 l 1,11,12
 222 550 222 550 260 562.5 c 128,-1,13
 298 575 298 575 338 575 c 0,14,15
 382 575 382 575 420 562 c 128,-1,16
 458 549 458 549 489 525 c 1,17,-1
 570 605 l 1,18,-1
 631 544 l 1,19,-1
 550 463 l 1,20,21
 596 399 596 399 596 319 c 0,22,23
 596 278 596 278 583.5 240.5 c 128,-1,24
 571 203 571 203 547 171 c 1,25,-1
 631 88 l 1,26,-1
 570 26 l 1,27,-1
 486 111 l 1,28,29
 455 88 455 88 417.5 75.5 c 128,-1,30
 380 63 380 63 338 63 c 0,31,32
 259 63 259 63 194 109 c 1,33,-1
 112 26 l 1,0,-1
338 146 m 0,34,35
 386 146 386 146 426 169 c 128,-1,36
 466 192 466 192 489.5 231.5 c 128,-1,37
 513 271 513 271 513 319 c 256,38,39
 513 367 513 367 489.5 406.5 c 128,-1,40
 466 446 466 446 426 469.5 c 128,-1,41
 386 493 386 493 338 493 c 256,42,43
 290 493 290 493 251 469.5 c 128,-1,44
 212 446 212 446 188.5 406.5 c 128,-1,45
 165 367 165 367 165 319 c 0,46,47
 165 274 165 274 187 234.5 c 128,-1,48
 209 195 209 195 248 170.5 c 128,-1,49
 287 146 287 146 338 146 c 0,34,35
EndSplineSet
Validated: 1
EndChar

StartChar: yen
Encoding: 165 165 102
Width: 740
GlyphClass: 1
Flags: W
LayerCount: 2
Fore
SplineSet
322 0 m 1,0,-1
 322 130 l 1,1,-1
 45 130 l 1,2,-1
 45 197 l 1,3,-1
 322 197 l 1,4,-1
 322 262 l 1,5,6
 295 265 295 265 272 272 c 128,-1,7
 249 279 249 279 229 290 c 1,8,-1
 45 290 l 1,9,-1
 45 358 l 1,10,-1
 152 358 l 1,11,12
 122 394 122 394 107.5 441.5 c 128,-1,13
 93 489 93 489 93 542 c 2,14,-1
 93 700 l 1,15,-1
 189 700 l 1,16,-1
 189 534 l 2,17,18
 189 482 189 482 210 438.5 c 128,-1,19
 231 395 231 395 272 368.5 c 128,-1,20
 313 342 313 342 371 342 c 256,21,22
 429 342 429 342 469 368.5 c 128,-1,23
 509 395 509 395 530.5 438.5 c 128,-1,24
 552 482 552 482 552 534 c 2,25,-1
 552 700 l 1,26,-1
 648 700 l 1,27,-1
 648 542 l 2,28,29
 648 489 648 489 633 441.5 c 128,-1,30
 618 394 618 394 589 358 c 1,31,-1
 696 358 l 1,32,-1
 696 290 l 1,33,-1
 512 290 l 1,34,35
 492 279 492 279 468.5 272 c 128,-1,36
 445 265 445 265 418 262 c 1,37,-1
 418 197 l 1,38,-1
 696 197 l 1,39,-1
 696 130 l 1,40,-1
 418 130 l 1,41,-1
 418 0 l 1,42,-1
 322 0 l 1,0,-1
EndSplineSet
Validated: 1
EndChar

StartChar: brokenbar
Encoding: 166 166 103
Width: 242
GlyphClass: 1
Flags: W
LayerCount: 2
Fore
SplineSet
76 331 m 1,0,-1
 76 730 l 1,1,-1
 166 730 l 1,2,-1
 166 331 l 1,3,-1
 76 331 l 1,0,-1
76 -180 m 1,4,-1
 76 219 l 1,5,-1
 166 219 l 1,6,-1
 166 -180 l 1,7,-1
 76 -180 l 1,4,-1
EndSplineSet
Validated: 1
EndChar

StartChar: section
Encoding: 167 167 104
Width: 632
GlyphClass: 1
Flags: W
LayerCount: 2
Fore
SplineSet
146 -157 m 1,0,-1
 146 -78 l 1,1,-1
 349 -78 l 2,2,3
 380 -78 380 -78 401 -64.5 c 128,-1,4
 422 -51 422 -51 433 -30 c 128,-1,5
 444 -9 444 -9 444 16 c 0,6,7
 444 39 444 39 434 59.5 c 128,-1,8
 424 80 424 80 404 94 c 128,-1,9
 384 108 384 108 355 108 c 2,10,-1
 214 108 l 2,11,12
 161 108 161 108 125 131.5 c 128,-1,13
 89 155 89 155 70 193.5 c 128,-1,14
 51 232 51 232 51 276 c 0,15,16
 51 306 51 306 61.5 333.5 c 128,-1,17
 72 361 72 361 92.5 383.5 c 128,-1,18
 113 406 113 406 144 418 c 1,19,20
 118 438 118 438 105.5 467 c 128,-1,21
 93 496 93 496 93 528 c 0,22,23
 93 574 93 574 112.5 613 c 128,-1,24
 132 652 132 652 171.5 676 c 128,-1,25
 211 700 211 700 269 700 c 2,26,-1
 481 700 l 1,27,-1
 481 621 l 1,28,-1
 277 621 l 2,29,30
 247 621 247 621 226 608 c 128,-1,31
 205 595 205 595 194 573.5 c 128,-1,32
 183 552 183 552 183 526 c 0,33,34
 183 504 183 504 193 483.5 c 128,-1,35
 203 463 203 463 221 450.5 c 128,-1,36
 239 438 239 438 265 438 c 2,37,-1
 418 438 l 2,38,39
 470 438 470 438 506.5 414.5 c 128,-1,40
 543 391 543 391 562 353 c 128,-1,41
 581 315 581 315 581 271 c 0,42,43
 581 240 581 240 569.5 211 c 128,-1,44
 558 182 558 182 536 160 c 128,-1,45
 514 138 514 138 481 126 c 1,46,47
 508 106 508 106 521 76.5 c 128,-1,48
 534 47 534 47 534 14 c 0,49,50
 534 -31 534 -31 514.5 -70 c 128,-1,51
 495 -109 495 -109 455.5 -133 c 128,-1,52
 416 -157 416 -157 358 -157 c 2,53,-1
 146 -157 l 1,0,-1
226 188 m 2,54,-1
 407 188 l 2,55,56
 433 188 433 188 451.5 200 c 128,-1,57
 470 212 470 212 480 231.5 c 128,-1,58
 490 251 490 251 490 273 c 0,59,60
 490 296 490 296 480 315 c 128,-1,61
 470 334 470 334 451 346 c 128,-1,62
 432 358 432 358 405 358 c 2,63,-1
 224 358 l 2,64,65
 198 358 198 358 179.5 346 c 128,-1,66
 161 334 161 334 151.5 315 c 128,-1,67
 142 296 142 296 142 273 c 0,68,69
 142 251 142 251 152 231.5 c 128,-1,70
 162 212 162 212 181 200 c 128,-1,71
 200 188 200 188 226 188 c 2,54,-1
EndSplineSet
Validated: 1
EndChar

StartChar: dieresis
Encoding: 168 168 105
Width: 356
GlyphClass: 1
Flags: W
LayerCount: 2
Fore
SplineSet
272 784 m 0,0,1
 251 784 251 784 235 800 c 128,-1,2
 219 816 219 816 219 837 c 0,3,4
 219 859 219 859 235 874.5 c 128,-1,5
 251 890 251 890 272 890 c 0,6,7
 294 890 294 890 309.5 874.5 c 128,-1,8
 325 859 325 859 325 837 c 0,9,10
 325 816 325 816 309.5 800 c 128,-1,11
 294 784 294 784 272 784 c 0,0,1
83 784 m 0,12,13
 62 784 62 784 46 800 c 128,-1,14
 30 816 30 816 30 837 c 0,15,16
 30 859 30 859 46 874.5 c 128,-1,17
 62 890 62 890 83 890 c 0,18,19
 105 890 105 890 120.5 874.5 c 128,-1,20
 136 859 136 859 136 837 c 0,21,22
 136 816 136 816 120.5 800 c 128,-1,23
 105 784 105 784 83 784 c 0,12,13
EndSplineSet
Validated: 1
EndChar

StartChar: copyright
Encoding: 169 169 106
Width: 842
GlyphClass: 1
Flags: W
LayerCount: 2
Fore
SplineSet
421 -23 m 256,0,1
 344 -23 344 -23 277 5.5 c 128,-1,2
 210 34 210 34 159 85 c 128,-1,3
 108 136 108 136 79.5 203 c 128,-1,4
 51 270 51 270 51 347 c 256,5,6
 51 424 51 424 79.5 491 c 128,-1,7
 108 558 108 558 159 609 c 128,-1,8
 210 660 210 660 277 688.5 c 128,-1,9
 344 717 344 717 421 717 c 256,10,11
 498 717 498 717 565 688.5 c 128,-1,12
 632 660 632 660 682.5 609 c 128,-1,13
 733 558 733 558 762 491 c 128,-1,14
 791 424 791 424 791 347 c 256,15,16
 791 270 791 270 762 203 c 128,-1,17
 733 136 733 136 682.5 85 c 128,-1,18
 632 34 632 34 565 5.5 c 128,-1,19
 498 -23 498 -23 421 -23 c 256,0,1
448 156 m 2,20,21
 389 156 389 156 345 181.5 c 128,-1,22
 301 207 301 207 277 250 c 128,-1,23
 253 293 253 293 253 346 c 0,24,25
 253 398 253 398 277 440.5 c 128,-1,26
 301 483 301 483 345 508.5 c 128,-1,27
 389 534 389 534 448 534 c 2,28,-1
 504 534 l 1,29,-1
 504 472 l 1,30,-1
 446 472 l 2,31,32
 411 472 411 472 382 455.5 c 128,-1,33
 353 439 353 439 335.5 410.5 c 128,-1,34
 318 382 318 382 318 345 c 0,35,36
 318 309 318 309 335.5 280.5 c 128,-1,37
 353 252 353 252 382 235.5 c 128,-1,38
 411 219 411 219 446 219 c 2,39,-1
 504 219 l 1,40,-1
 504 156 l 1,41,-1
 448 156 l 2,20,21
421 28 m 0,42,43
 488 28 488 28 545.5 52.5 c 128,-1,44
 603 77 603 77 646.5 121 c 128,-1,45
 690 165 690 165 715 223 c 128,-1,46
 740 281 740 281 740 347 c 0,47,48
 740 414 740 414 715 472 c 128,-1,49
 690 530 690 530 646.5 573.5 c 128,-1,50
 603 617 603 617 545.5 641.5 c 128,-1,51
 488 666 488 666 421 666 c 0,52,53
 355 666 355 666 296.5 641.5 c 128,-1,54
 238 617 238 617 194.5 573.5 c 128,-1,55
 151 530 151 530 126.5 472 c 128,-1,56
 102 414 102 414 102 348 c 0,57,58
 102 281 102 281 126.5 223 c 128,-1,59
 151 165 151 165 195 121 c 128,-1,60
 239 77 239 77 297 52.5 c 128,-1,61
 355 28 355 28 421 28 c 0,42,43
EndSplineSet
Validated: 1
EndChar

StartChar: ordfeminine
Encoding: 170 170 107
Width: 423
GlyphClass: 1
Flags: W
LayerCount: 2
Fore
SplineSet
197 388 m 0,0,1
 152 388 152 388 119 409.5 c 128,-1,2
 86 431 86 431 68.5 468 c 128,-1,3
 51 505 51 505 51 550 c 0,4,5
 51 596 51 596 70 632.5 c 128,-1,6
 89 669 89 669 125 690.5 c 128,-1,7
 161 712 161 712 212 712 c 0,8,9
 264 712 264 712 299.5 691 c 128,-1,10
 335 670 335 670 353.5 633.5 c 128,-1,11
 372 597 372 597 372 552 c 2,12,-1
 372 394 l 1,13,-1
 308 394 l 1,14,-1
 308 458 l 1,15,-1
 306 458 l 1,16,17
 291 421 291 421 264.5 404.5 c 128,-1,18
 238 388 238 388 197 388 c 0,0,1
212 444 m 0,19,20
 253 444 253 444 279.5 473 c 128,-1,21
 306 502 306 502 306 551 c 0,22,23
 306 595 306 595 281.5 626 c 128,-1,24
 257 657 257 657 212 657 c 256,25,26
 167 657 167 657 141.5 626 c 128,-1,27
 116 595 116 595 116 551 c 0,28,29
 116 506 116 506 141.5 475 c 128,-1,30
 167 444 167 444 212 444 c 0,19,20
EndSplineSet
Validated: 1
EndChar

StartChar: logicalnot
Encoding: 172 172 109
Width: 559
GlyphClass: 1
Flags: W
LayerCount: 2
Fore
SplineSet
434 129 m 1,0,-1
 434 246 l 1,1,-1
 40 246 l 1,2,-1
 40 326 l 1,3,-1
 519 326 l 1,4,-1
 519 129 l 1,5,-1
 434 129 l 1,0,-1
EndSplineSet
Validated: 1
EndChar

StartChar: registered
Encoding: 174 174 111
Width: 842
GlyphClass: 1
Flags: W
LayerCount: 2
Fore
SplineSet
421 -23 m 256,0,1
 344 -23 344 -23 277 5.5 c 128,-1,2
 210 34 210 34 159 85 c 128,-1,3
 108 136 108 136 79.5 203 c 128,-1,4
 51 270 51 270 51 347 c 256,5,6
 51 424 51 424 79.5 491 c 128,-1,7
 108 558 108 558 159 609 c 128,-1,8
 210 660 210 660 277 688.5 c 128,-1,9
 344 717 344 717 421 717 c 256,10,11
 498 717 498 717 565 688.5 c 128,-1,12
 632 660 632 660 682.5 609 c 128,-1,13
 733 558 733 558 762 491 c 128,-1,14
 791 424 791 424 791 347 c 256,15,16
 791 270 791 270 762 203 c 128,-1,17
 733 136 733 136 682.5 85 c 128,-1,18
 632 34 632 34 565 5.5 c 128,-1,19
 498 -23 498 -23 421 -23 c 256,0,1
421 28 m 0,20,21
 488 28 488 28 545.5 52.5 c 128,-1,22
 603 77 603 77 646.5 121 c 128,-1,23
 690 165 690 165 715 223 c 128,-1,24
 740 281 740 281 740 347 c 0,25,26
 740 414 740 414 715 472 c 128,-1,27
 690 530 690 530 646.5 573.5 c 128,-1,28
 603 617 603 617 545.5 641.5 c 128,-1,29
 488 666 488 666 421 666 c 0,30,31
 355 666 355 666 296.5 641.5 c 128,-1,32
 238 617 238 617 194.5 573.5 c 128,-1,33
 151 530 151 530 126.5 472 c 128,-1,34
 102 414 102 414 102 348 c 0,35,36
 102 281 102 281 126.5 223 c 128,-1,37
 151 165 151 165 195 121 c 128,-1,38
 239 77 239 77 297 52.5 c 128,-1,39
 355 28 355 28 421 28 c 0,20,21
282 155 m 1,40,-1
 282 534 l 1,41,-1
 447 534 l 2,42,43
 484 534 484 534 513 518 c 128,-1,44
 542 502 542 502 560 473.5 c 128,-1,45
 578 445 578 445 578 409 c 256,46,47
 578 373 578 373 558.5 342 c 128,-1,48
 539 311 539 311 503 297 c 1,49,-1
 547 220 l 2,50,51
 550 214 550 214 555.5 211 c 128,-1,52
 561 208 561 208 568 208 c 2,53,-1
 597 208 l 1,54,-1
 597 155 l 1,55,-1
 558 155 l 2,56,57
 538 155 538 155 520.5 165 c 128,-1,58
 503 175 503 175 493 192 c 2,59,-1
 444 281 l 1,60,-1
 345 281 l 1,61,-1
 345 155 l 1,62,-1
 282 155 l 1,40,-1
345 338 m 1,63,-1
 441 338 l 2,64,65
 470 338 470 338 492 356.5 c 128,-1,66
 514 375 514 375 514 411 c 0,67,68
 514 440 514 440 492.5 458.5 c 128,-1,69
 471 477 471 477 441 477 c 2,70,-1
 345 477 l 1,71,-1
 345 338 l 1,63,-1
EndSplineSet
Validated: 1
EndChar

StartChar: macron
Encoding: 175 175 112
Width: 310
GlyphClass: 1
Flags: W
LayerCount: 2
Fore
SplineSet
9 591 m 1,0,-1
 9 653 l 1,1,-1
 301 653 l 1,2,-1
 301 591 l 1,3,-1
 9 591 l 1,0,-1
EndSplineSet
Validated: 1
EndChar

StartChar: degree
Encoding: 176 176 113
Width: 417
GlyphClass: 1
Flags: W
LayerCount: 2
Fore
SplineSet
209 391 m 256,0,1
 165 391 165 391 128 413 c 128,-1,2
 91 435 91 435 69.5 471.5 c 128,-1,3
 48 508 48 508 48 552 c 256,4,5
 48 596 48 596 69.5 632.5 c 128,-1,6
 91 669 91 669 128 690.5 c 128,-1,7
 165 712 165 712 208 712 c 0,8,9
 253 712 253 712 289.5 690.5 c 128,-1,10
 326 669 326 669 347.5 632.5 c 128,-1,11
 369 596 369 596 369 552 c 256,12,13
 369 508 369 508 347.5 471.5 c 128,-1,14
 326 435 326 435 289.5 413 c 128,-1,15
 253 391 253 391 209 391 c 256,0,1
209 457 m 256,16,17
 235 457 235 457 256 469.5 c 128,-1,18
 277 482 277 482 289.5 503.5 c 128,-1,19
 302 525 302 525 302 552 c 0,20,21
 302 578 302 578 289 599.5 c 128,-1,22
 276 621 276 621 255 633.5 c 128,-1,23
 234 646 234 646 208 646 c 0,24,25
 183 646 183 646 161.5 633.5 c 128,-1,26
 140 621 140 621 127.5 599.5 c 128,-1,27
 115 578 115 578 115 552 c 0,28,29
 115 525 115 525 127.5 503.5 c 128,-1,30
 140 482 140 482 161.5 469.5 c 128,-1,31
 183 457 183 457 209 457 c 256,16,17
EndSplineSet
Validated: 1
EndChar

StartChar: plusminus
Encoding: 177 177 114
Width: 558
GlyphClass: 1
Flags: W
LayerCount: 2
Fore
SplineSet
235 216 m 1,0,-1
 235 388 l 1,1,-1
 50 388 l 1,2,-1
 50 468 l 1,3,-1
 235 468 l 1,4,-1
 235 640 l 1,5,-1
 322 640 l 1,6,-1
 322 468 l 1,7,-1
 508 468 l 1,8,-1
 508 388 l 1,9,-1
 322 388 l 1,10,-1
 322 216 l 1,11,-1
 235 216 l 1,0,-1
50 18 m 1,12,-1
 50 100 l 1,13,-1
 508 100 l 1,14,-1
 508 18 l 1,15,-1
 50 18 l 1,12,-1
EndSplineSet
Validated: 1
EndChar

StartChar: uni00B2
Encoding: 178 178 115
Width: 434
GlyphClass: 1
Flags: W
LayerCount: 2
Fore
SplineSet
143 263 m 2,0,1
 115 263 115 263 94.5 274 c 128,-1,2
 74 285 74 285 63 302.5 c 128,-1,3
 52 320 52 320 52 341 c 0,4,5
 52 363 52 363 63.5 382.5 c 128,-1,6
 75 402 75 402 94 415 c 2,7,-1
 262 518 l 2,8,9
 280 528 280 528 288.5 544 c 128,-1,10
 297 560 297 560 297 577 c 0,11,12
 297 603 297 603 279 621.5 c 128,-1,13
 261 640 261 640 229 640 c 2,14,-1
 77 640 l 1,15,-1
 77 700 l 1,16,-1
 234 700 l 2,17,18
 274 700 274 700 303.5 683 c 128,-1,19
 333 666 333 666 350 638 c 128,-1,20
 367 610 367 610 367 577 c 0,21,22
 367 543 367 543 352.5 515.5 c 128,-1,23
 338 488 338 488 310 472 c 2,24,-1
 139 370 l 2,25,26
 124 361 124 361 124 347 c 0,27,28
 124 338 124 338 132.5 330.5 c 128,-1,29
 141 323 141 323 154 323 c 2,30,-1
 378 323 l 1,31,-1
 378 263 l 1,32,-1
 143 263 l 2,0,1
EndSplineSet
Validated: 1
EndChar

StartChar: uni00B3
Encoding: 179 179 116
Width: 425
GlyphClass: 1
Flags: W
LayerCount: 2
Fore
SplineSet
54 263 m 1,0,-1
 54 323 l 1,1,-1
 230 323 l 2,2,3
 260 323 260 323 278 341.5 c 128,-1,4
 296 360 296 360 296 387 c 0,5,6
 296 415 296 415 277.5 435 c 128,-1,7
 259 455 259 455 228 455 c 2,8,-1
 78 455 l 1,9,-1
 78 516 l 1,10,-1
 232 516 l 2,11,12
 257 516 257 516 275.5 534 c 128,-1,13
 294 552 294 552 294 578 c 0,14,15
 294 606 294 606 276 623 c 128,-1,16
 258 640 258 640 233 640 c 2,17,-1
 54 640 l 1,18,-1
 54 700 l 1,19,-1
 240 700 l 2,20,21
 276 700 276 700 305 683.5 c 128,-1,22
 334 667 334 667 350.5 640 c 128,-1,23
 367 613 367 613 367 578 c 0,24,25
 367 551 367 551 353.5 526 c 128,-1,26
 340 501 340 501 312 484 c 1,27,28
 340 469 340 469 354.5 443 c 128,-1,29
 369 417 369 417 369 387 c 0,30,31
 369 354 369 354 352.5 325.5 c 128,-1,32
 336 297 336 297 307 280 c 128,-1,33
 278 263 278 263 239 263 c 2,34,-1
 54 263 l 1,0,-1
EndSplineSet
Validated: 1
EndChar

StartChar: acute
Encoding: 180 180 117
Width: 205
GlyphClass: 1
Flags: W
LayerCount: 2
Fore
SplineSet
20 757 m 1,0,-1
 112 880 l 1,1,-1
 201 880 l 1,2,-1
 109 757 l 1,3,-1
 20 757 l 1,0,-1
EndSplineSet
Validated: 1
EndChar

StartChar: uni00B5
Encoding: 181 181 118
Width: 624
GlyphClass: 1
Flags: W
LayerCount: 2
Fore
SplineSet
73 -203 m 1,0,-1
 73 510 l 1,1,-1
 166 510 l 1,2,-1
 166 216 l 2,3,4
 166 170 166 170 186 136.5 c 128,-1,5
 206 103 206 103 239.5 85 c 128,-1,6
 273 67 273 67 311 67 c 0,7,8
 350 67 350 67 383.5 85 c 128,-1,9
 417 103 417 103 437.5 136.5 c 128,-1,10
 458 170 458 170 458 216 c 2,11,-1
 458 510 l 1,12,-1
 551 510 l 1,13,-1
 551 215 l 2,14,15
 551 147 551 147 520.5 96 c 128,-1,16
 490 45 490 45 438 16.5 c 128,-1,17
 386 -12 386 -12 318 -12 c 0,18,19
 288 -12 288 -12 259 -4.5 c 128,-1,20
 230 3 230 3 206 18.5 c 128,-1,21
 182 34 182 34 166 58 c 1,22,-1
 166 -203 l 1,23,-1
 73 -203 l 1,0,-1
EndSplineSet
Validated: 1
EndChar

StartChar: paragraph
Encoding: 182 182 119
Width: 657
GlyphClass: 1
Flags: W
LayerCount: 2
Fore
SplineSet
290 -203 m 1,0,-1
 290 232 l 1,1,2
 211 235 211 235 158 271 c 128,-1,3
 105 307 105 307 78 361 c 128,-1,4
 51 415 51 415 51 473 c 0,5,6
 51 533 51 533 79 584.5 c 128,-1,7
 107 636 107 636 163 668 c 128,-1,8
 219 700 219 700 305 700 c 2,9,-1
 606 700 l 1,10,-1
 606 634 l 1,11,-1
 536 634 l 1,12,-1
 536 -203 l 1,13,-1
 468 -203 l 1,14,-1
 468 634 l 1,15,-1
 358 634 l 1,16,-1
 358 -203 l 1,17,-1
 290 -203 l 1,0,-1
EndSplineSet
Validated: 1
EndChar

StartChar: periodcentered
Encoding: 183 183 120
Width: 266
GlyphClass: 1
Flags: W
LayerCount: 2
Fore
SplineSet
133 248 m 0,0,1
 107 248 107 248 87 267.5 c 128,-1,2
 67 287 67 287 67 314 c 256,3,4
 67 341 67 341 87 360.5 c 128,-1,5
 107 380 107 380 133 380 c 0,6,7
 161 380 161 380 180.5 360.5 c 128,-1,8
 200 341 200 341 200 314 c 256,9,10
 200 287 200 287 180.5 267.5 c 128,-1,11
 161 248 161 248 133 248 c 0,0,1
EndSplineSet
Validated: 1
Substitution2: "Single Substitution lookup 19 subtable" periodcentered.loclCAT.case
Substitution2: "Single Substitution lookup 18 subtable" periodcentered.loclCAT
AlternateSubs2: "'aalt' Access All Alternates in Latin lookup 1 subtable" periodcentered.loclCAT periodcentered.loclCAT.case
EndChar

StartChar: cedilla
Encoding: 184 184 121
Width: 204
GlyphClass: 1
Flags: W
LayerCount: 2
Fore
SplineSet
-1 -203 m 1,0,-1
 93 20 l 1,1,-1
 183 20 l 1,2,-1
 88 -203 l 1,3,-1
 -1 -203 l 1,0,-1
EndSplineSet
Validated: 1
EndChar

StartChar: uni00B9
Encoding: 185 185 122
Width: 375
GlyphClass: 1
Flags: W
LayerCount: 2
Fore
SplineSet
56 263 m 1,0,-1
 56 323 l 1,1,-1
 158 323 l 1,2,-1
 158 640 l 1,3,-1
 64 640 l 1,4,-1
 64 700 l 1,5,-1
 229 700 l 1,6,-1
 229 323 l 1,7,-1
 321 323 l 1,8,-1
 321 263 l 1,9,-1
 56 263 l 1,0,-1
EndSplineSet
Validated: 1
EndChar

StartChar: ordmasculine
Encoding: 186 186 123
Width: 429
GlyphClass: 1
Flags: W
LayerCount: 2
Fore
SplineSet
214 388 m 0,0,1
 167 388 167 388 130 409 c 128,-1,2
 93 430 93 430 72.5 466 c 128,-1,3
 52 502 52 502 52 546 c 256,4,5
 52 590 52 590 72.5 626.5 c 128,-1,6
 93 663 93 663 130 684.5 c 128,-1,7
 167 706 167 706 214 706 c 2,8,-1
 413 706 l 1,9,-1
 413 653 l 1,10,-1
 332 653 l 1,11,12
 356 633 356 633 366.5 605.5 c 128,-1,13
 377 578 377 578 377 546 c 0,14,15
 377 501 377 501 356 465 c 128,-1,16
 335 429 335 429 298.5 408.5 c 128,-1,17
 262 388 262 388 214 388 c 0,0,1
214 443 m 0,18,19
 258 443 258 443 285 472 c 128,-1,20
 312 501 312 501 312 546 c 0,21,22
 312 590 312 590 286 620.5 c 128,-1,23
 260 651 260 651 214 651 c 256,24,25
 168 651 168 651 142 620.5 c 128,-1,26
 116 590 116 590 116 546 c 0,27,28
 116 503 116 503 142 473 c 128,-1,29
 168 443 168 443 214 443 c 0,18,19
EndSplineSet
Validated: 513
Substitution2: "'ss01' Style Set 1 in Latin lookup 39 subtable" ordmasculine.ss01
Substitution2: "'aalt' Access All Alternates in Latin lookup 0 subtable" ordmasculine.ss01
EndChar

StartChar: onequarter
Encoding: 188 188 125
Width: 1010
GlyphClass: 1
Flags: W
LayerCount: 2
Fore
SplineSet
813 0 m 1,0,-1
 813 98 l 1,1,-1
 662 98 l 2,2,3
 626 98 626 98 600.5 121.5 c 128,-1,4
 575 145 575 145 575 178 c 0,5,6
 575 190 575 190 578 202 c 128,-1,7
 581 214 581 214 588 225 c 2,8,-1
 711 437 l 1,9,-1
 790 437 l 1,10,-1
 652 203 l 2,11,12
 646 193 646 193 646 184 c 0,13,14
 646 174 646 174 653.5 166.5 c 128,-1,15
 661 159 661 159 674 159 c 2,16,-1
 813 159 l 1,17,-1
 813 309 l 1,18,-1
 883 309 l 1,19,-1
 883 159 l 1,20,-1
 954 159 l 1,21,-1
 954 98 l 1,22,-1
 883 98 l 1,23,-1
 883 0 l 1,24,-1
 813 0 l 1,0,-1
56 263 m 1,25,-1
 56 323 l 1,26,-1
 158 323 l 1,27,-1
 158 640 l 1,28,-1
 64 640 l 1,29,-1
 64 700 l 1,30,-1
 229 700 l 1,31,-1
 229 323 l 1,32,-1
 321 323 l 1,33,-1
 321 263 l 1,34,-1
 56 263 l 1,25,-1
214 0 m 1,35,-1
 682 700 l 1,36,-1
 758 700 l 1,37,-1
 291 0 l 1,38,-1
 214 0 l 1,35,-1
EndSplineSet
Validated: 1
EndChar

StartChar: threequarters
Encoding: 190 190 127
Width: 1050
GlyphClass: 1
Flags: W
LayerCount: 2
Fore
SplineSet
853 0 m 1,0,-1
 853 98 l 1,1,-1
 703 98 l 2,2,3
 666 98 666 98 640.5 121.5 c 128,-1,4
 615 145 615 145 615 177 c 0,5,6
 615 190 615 190 618.5 202 c 128,-1,7
 622 214 622 214 628 225 c 2,8,-1
 751 437 l 1,9,-1
 830 437 l 1,10,-1
 692 203 l 2,11,12
 686 194 686 194 686 184 c 256,13,14
 686 174 686 174 693.5 166.5 c 128,-1,15
 701 159 701 159 714 159 c 2,16,-1
 853 159 l 1,17,-1
 853 309 l 1,18,-1
 923 309 l 1,19,-1
 923 159 l 1,20,-1
 994 159 l 1,21,-1
 994 98 l 1,22,-1
 923 98 l 1,23,-1
 923 0 l 1,24,-1
 853 0 l 1,0,-1
54 263 m 1,25,-1
 54 323 l 1,26,-1
 230 323 l 2,27,28
 260 323 260 323 278 341.5 c 128,-1,29
 296 360 296 360 296 387 c 0,30,31
 296 415 296 415 277.5 435 c 128,-1,32
 259 455 259 455 228 455 c 2,33,-1
 78 455 l 1,34,-1
 78 516 l 1,35,-1
 232 516 l 2,36,37
 257 516 257 516 275.5 534 c 128,-1,38
 294 552 294 552 294 578 c 0,39,40
 294 606 294 606 276 623 c 128,-1,41
 258 640 258 640 233 640 c 2,42,-1
 54 640 l 1,43,-1
 54 700 l 1,44,-1
 240 700 l 2,45,46
 276 700 276 700 305 683.5 c 128,-1,47
 334 667 334 667 350.5 640 c 128,-1,48
 367 613 367 613 367 578 c 0,49,50
 367 551 367 551 353.5 526 c 128,-1,51
 340 501 340 501 312 484 c 1,52,53
 340 469 340 469 354.5 443 c 128,-1,54
 369 417 369 417 369 387 c 0,55,56
 369 354 369 354 352.5 325.5 c 128,-1,57
 336 297 336 297 307 280 c 128,-1,58
 278 263 278 263 239 263 c 2,59,-1
 54 263 l 1,25,-1
246 0 m 1,60,-1
 714 700 l 1,61,-1
 790 700 l 1,62,-1
 322 0 l 1,63,-1
 246 0 l 1,60,-1
EndSplineSet
Validated: 1
EndChar

StartChar: questiondown
Encoding: 191 191 128
Width: 391
GlyphClass: 1
Flags: W
LayerCount: 2
Fore
SplineSet
292 -190 m 2,0,1
 211 -190 211 -190 152 -157.5 c 128,-1,2
 93 -125 93 -125 60.5 -70.5 c 128,-1,3
 28 -16 28 -16 28 46 c 0,4,5
 28 110 28 110 60 163.5 c 128,-1,6
 92 217 92 217 151.5 249.5 c 128,-1,7
 211 282 211 282 292 282 c 1,8,-1
 292 202 l 1,9,10
 237 202 237 202 199 180 c 128,-1,11
 161 158 161 158 141 122.5 c 128,-1,12
 121 87 121 87 121 46 c 256,13,14
 121 5 121 5 141 -31 c 128,-1,15
 161 -67 161 -67 199 -89 c 128,-1,16
 237 -111 237 -111 292 -111 c 2,17,-1
 346 -111 l 1,18,-1
 346 -190 l 1,19,-1
 292 -190 l 2,0,1
265 520 m 0,20,21
 292 520 292 520 311.5 500.5 c 128,-1,22
 331 481 331 481 331 454 c 256,23,24
 331 427 331 427 311.5 407.5 c 128,-1,25
 292 388 292 388 265 388 c 256,26,27
 238 388 238 388 218.5 407.5 c 128,-1,28
 199 427 199 427 199 454 c 0,29,30
 199 472 199 472 208 487 c 128,-1,31
 217 502 217 502 232 511 c 128,-1,32
 247 520 247 520 265 520 c 0,20,21
EndSplineSet
Validated: 1
Substitution2: "'case' Case-Sensitive Forms in Latin lookup 35 subtable" questiondown.case
Substitution2: "'aalt' Access All Alternates in Latin lookup 0 subtable" questiondown.case
EndChar

StartChar: uni02BC
Encoding: 700 700 131
Width: 232
GlyphClass: 1
Flags: W
LayerCount: 2
Fore
SplineSet
41 407 m 1,0,-1
 104 700 l 1,1,-1
 196 700 l 1,2,-1
 133 407 l 1,3,-1
 41 407 l 1,0,-1
EndSplineSet
Validated: 1
EndChar

StartChar: circumflex
Encoding: 710 710 132
Width: 295
GlyphClass: 1
Flags: W
LayerCount: 2
Fore
SplineSet
5 757 m 1,0,-1
 97 880 l 1,1,-1
 201 880 l 1,2,-1
 293 757 l 1,3,-1
 215 757 l 1,4,-1
 149 842 l 1,5,-1
 83 757 l 1,6,-1
 5 757 l 1,0,-1
EndSplineSet
Validated: 1
EndChar

StartChar: caron
Encoding: 711 711 133
Width: 298
GlyphClass: 1
Flags: W
LayerCount: 2
Fore
SplineSet
97 757 m 1,0,-1
 5 880 l 1,1,-1
 83 880 l 1,2,-1
 149 795 l 1,3,-1
 215 880 l 1,4,-1
 293 880 l 1,5,-1
 201 757 l 1,6,-1
 97 757 l 1,0,-1
EndSplineSet
Validated: 1
EndChar

StartChar: uni02C9
Encoding: 713 713 134
Width: 310
GlyphClass: 1
Flags: W
LayerCount: 2
Fore
SplineSet
-20 605 m 1,0,-1
 -20 673 l 1,1,-1
 330 673 l 1,2,-1
 330 605 l 1,3,-1
 -20 605 l 1,0,-1
EndSplineSet
Validated: 1
EndChar

StartChar: breve
Encoding: 728 728 135
Width: 258
GlyphClass: 1
Flags: W
LayerCount: 2
Fore
SplineSet
130 752 m 0,0,1
 95 752 95 752 67.5 768 c 128,-1,2
 40 784 40 784 24 812.5 c 128,-1,3
 8 841 8 841 8 878 c 1,4,-1
 64 878 l 1,5,6
 64 846 64 846 82.5 826 c 128,-1,7
 101 806 101 806 130 806 c 256,8,9
 159 806 159 806 177 826 c 128,-1,10
 195 846 195 846 195 878 c 1,11,-1
 250 878 l 1,12,13
 250 841 250 841 234 812.5 c 128,-1,14
 218 784 218 784 191 768 c 128,-1,15
 164 752 164 752 130 752 c 0,0,1
EndSplineSet
Validated: 1
EndChar

StartChar: dotaccent
Encoding: 729 729 136
Width: 160
GlyphClass: 1
Flags: W
LayerCount: 2
Fore
SplineSet
81 702 m 256,0,1
 56 702 56 702 37.5 720.5 c 128,-1,2
 19 739 19 739 19 764 c 256,3,4
 19 789 19 789 37.5 807.5 c 128,-1,5
 56 826 56 826 81 826 c 256,6,7
 106 826 106 826 124.5 807.5 c 128,-1,8
 143 789 143 789 143 764 c 256,9,10
 143 739 143 739 124.5 720.5 c 128,-1,11
 106 702 106 702 81 702 c 256,0,1
EndSplineSet
Validated: 1
EndChar

StartChar: ring
Encoding: 730 730 137
Width: 195
GlyphClass: 1
Flags: W
LayerCount: 2
Fore
SplineSet
97 736 m 256,0,1
 57 736 57 736 29.5 763.5 c 128,-1,2
 2 791 2 791 2 831 c 256,3,4
 2 871 2 871 29.5 898.5 c 128,-1,5
 57 926 57 926 97 926 c 256,6,7
 137 926 137 926 164.5 898.5 c 128,-1,8
 192 871 192 871 192 831 c 256,9,10
 192 791 192 791 164.5 763.5 c 128,-1,11
 137 736 137 736 97 736 c 256,0,1
97 778 m 256,12,13
 119 778 119 778 134 793.5 c 128,-1,14
 149 809 149 809 149 831 c 0,15,16
 149 854 149 854 134 869 c 128,-1,17
 119 884 119 884 97 884 c 256,18,19
 75 884 75 884 60 868.5 c 128,-1,20
 45 853 45 853 45 831 c 256,21,22
 45 809 45 809 60 793.5 c 128,-1,23
 75 778 75 778 97 778 c 256,12,13
EndSplineSet
Validated: 1
EndChar

StartChar: ogonek
Encoding: 731 731 138
Width: 193
GlyphClass: 1
Flags: W
LayerCount: 2
Fore
SplineSet
134 -218 m 0,0,1
 80 -218 80 -218 43.5 -190 c 128,-1,2
 7 -162 7 -162 7 -107 c 0,3,4
 7 -78 7 -78 23 -45.5 c 128,-1,5
 39 -13 39 -13 60.5 15.5 c 128,-1,6
 82 44 82 44 99 63.5 c 128,-1,7
 116 83 116 83 119 86 c 1,8,-1
 148 69 l 1,9,10
 145 66 145 66 132.5 49 c 128,-1,11
 120 32 120 32 105 8 c 128,-1,12
 90 -16 90 -16 79 -43 c 128,-1,13
 68 -70 68 -70 68 -93 c 0,14,15
 68 -123 68 -123 88 -140.5 c 128,-1,16
 108 -158 108 -158 139 -158 c 0,17,18
 150 -158 150 -158 162 -156 c 128,-1,19
 174 -154 174 -154 186 -150 c 1,20,-1
 186 -211 l 1,21,22
 178 -213 178 -213 163.5 -215.5 c 128,-1,23
 149 -218 149 -218 134 -218 c 0,0,1
EndSplineSet
Validated: 1
EndChar

StartChar: tilde
Encoding: 732 732 139
Width: 329
GlyphClass: 1
Flags: W
LayerCount: 2
Fore
SplineSet
232 747 m 0,0,1
 205 747 205 747 188 755 c 128,-1,2
 171 763 171 763 160 774.5 c 128,-1,3
 149 786 149 786 139 797 c 0,4,5
 129 809 129 809 119 817.5 c 128,-1,6
 109 826 109 826 94 826 c 0,7,8
 81 826 81 826 70.5 814.5 c 128,-1,9
 60 803 60 803 60 782 c 2,10,-1
 60 757 l 1,11,-1
 0 757 l 1,12,-1
 0 781 l 2,13,14
 0 829 0 829 28.5 858 c 128,-1,15
 57 887 57 887 97 887 c 0,16,17
 132 887 132 887 152 871.5 c 128,-1,18
 172 856 172 856 187 841 c 0,19,20
 197 828 197 828 208 817.5 c 128,-1,21
 219 807 219 807 235 807 c 0,22,23
 249 807 249 807 259 818.5 c 128,-1,24
 269 830 269 830 269 852 c 2,25,-1
 269 877 l 1,26,-1
 329 877 l 1,27,-1
 329 853 l 2,28,29
 329 804 329 804 300.5 775.5 c 128,-1,30
 272 747 272 747 232 747 c 0,0,1
EndSplineSet
Validated: 1
EndChar

StartChar: hungarumlaut
Encoding: 733 733 140
Width: 354
GlyphClass: 1
Flags: W
LayerCount: 2
Fore
SplineSet
171 757 m 1,0,-1
 259 880 l 1,1,-1
 339 880 l 1,2,-1
 251 757 l 1,3,-1
 171 757 l 1,0,-1
8 757 m 1,4,-1
 96 880 l 1,5,-1
 176 880 l 1,6,-1
 88 757 l 1,7,-1
 8 757 l 1,4,-1
EndSplineSet
Validated: 1
EndChar

StartChar: uni0308
Encoding: 776 776 148
Width: 0
GlyphClass: 4
Flags: W
LayerCount: 2
Fore
SplineSet
272 784 m 0,0,1
 251 784 251 784 235 800 c 128,-1,2
 219 816 219 816 219 837 c 0,3,4
 219 859 219 859 235 874.5 c 128,-1,5
 251 890 251 890 272 890 c 0,6,7
 294 890 294 890 309.5 874.5 c 128,-1,8
 325 859 325 859 325 837 c 0,9,10
 325 816 325 816 309.5 800 c 128,-1,11
 294 784 294 784 272 784 c 0,0,1
83 784 m 0,12,13
 62 784 62 784 46 800 c 128,-1,14
 30 816 30 816 30 837 c 0,15,16
 30 859 30 859 46 874.5 c 128,-1,17
 62 890 62 890 83 890 c 0,18,19
 105 890 105 890 120.5 874.5 c 128,-1,20
 136 859 136 859 136 837 c 0,21,22
 136 816 136 816 120.5 800 c 128,-1,23
 105 784 105 784 83 784 c 0,12,13
EndSplineSet
Validated: 513
Substitution2: "'case' Case-Sensitive Forms in Latin lookup 35 subtable" uni0308.case
Substitution2: "Single Substitution lookup 7 subtable" uni0308.case
Substitution2: "Single Substitution lookup 6 subtable" uni0308.case
Substitution2: "Single Substitution lookup 4 subtable" uni0308.case
Substitution2: "Single Substitution lookup 3 subtable" uni0308.case
Substitution2: "'aalt' Access All Alternates in Latin lookup 0 subtable" uni0308.case
EndChar

StartChar: hookabovecomb
Encoding: 777 777 149
Width: 0
GlyphClass: 4
Flags: W
LayerCount: 2
Fore
SplineSet
-146 757 m 1,0,-1
 -146 789 l 1,1,2
 -126 789 -126 789 -106.5 796.5 c 128,-1,3
 -87 804 -87 804 -73.5 817 c 128,-1,4
 -60 830 -60 830 -60 848 c 0,5,6
 -61 864 -61 864 -75 876 c 128,-1,7
 -89 888 -89 888 -125 888 c 0,8,9
 -142 888 -142 888 -155.5 886 c 128,-1,10
 -169 884 -169 884 -179 881 c 1,11,-1
 -179 939 l 1,12,13
 -168 941 -168 941 -151.5 943.5 c 128,-1,14
 -135 946 -135 946 -117 946 c 0,15,16
 -60 946 -60 946 -30 925.5 c 128,-1,17
 0 905 0 905 0 867 c 0,18,19
 0 830 0 830 -24.5 805.5 c 128,-1,20
 -49 781 -49 781 -83 769 c 128,-1,21
 -117 757 -117 757 -146 757 c 1,0,-1
EndSplineSet
Validated: 513
Substitution2: "'case' Case-Sensitive Forms in Latin lookup 35 subtable" hookabovecomb.case
Substitution2: "Single Substitution lookup 7 subtable" hookabovecomb.case
Substitution2: "Single Substitution lookup 6 subtable" hookabovecomb.case
Substitution2: "Single Substitution lookup 4 subtable" hookabovecomb.case
Substitution2: "Single Substitution lookup 3 subtable" hookabovecomb.case
Substitution2: "'aalt' Access All Alternates in Latin lookup 0 subtable" hookabovecomb.case
EndChar

StartChar: uni030F
Encoding: 783 783 153
Width: 0
GlyphClass: 4
Flags: W
LayerCount: 2
Fore
SplineSet
232 757 m 1,0,-1
 131 897 l 1,1,-1
 211 897 l 1,2,-1
 312 757 l 1,3,-1
 232 757 l 1,0,-1
69 757 m 1,4,-1
 -32 897 l 1,5,-1
 48 897 l 1,6,-1
 149 757 l 1,7,-1
 69 757 l 1,4,-1
EndSplineSet
Validated: 513
Substitution2: "'case' Case-Sensitive Forms in Latin lookup 35 subtable" uni030F.case
Substitution2: "Single Substitution lookup 7 subtable" uni030F.case
Substitution2: "Single Substitution lookup 6 subtable" uni030F.case
Substitution2: "Single Substitution lookup 4 subtable" uni030F.case
Substitution2: "Single Substitution lookup 3 subtable" uni030F.case
Substitution2: "'aalt' Access All Alternates in Latin lookup 0 subtable" uni030F.case
EndChar

StartChar: uni0311
Encoding: 785 785 154
Width: 0
GlyphClass: 4
Flags: W
LayerCount: 2
Fore
SplineSet
135 883 m 0,0,1
 170 883 170 883 197 867 c 128,-1,2
 224 851 224 851 240 823 c 128,-1,3
 256 795 256 795 256 757 c 1,4,-1
 201 757 l 1,5,6
 201 790 201 790 182.5 809.5 c 128,-1,7
 164 829 164 829 135 829 c 0,8,9
 107 829 107 829 88.5 809.5 c 128,-1,10
 70 790 70 790 70 757 c 1,11,-1
 14 757 l 1,12,13
 14 795 14 795 30 823 c 128,-1,14
 46 851 46 851 73.5 867 c 128,-1,15
 101 883 101 883 135 883 c 0,0,1
EndSplineSet
Validated: 513
Substitution2: "'case' Case-Sensitive Forms in Latin lookup 35 subtable" uni0311.case
Substitution2: "Single Substitution lookup 7 subtable" uni0311.case
Substitution2: "Single Substitution lookup 6 subtable" uni0311.case
Substitution2: "Single Substitution lookup 4 subtable" uni0311.case
Substitution2: "Single Substitution lookup 3 subtable" uni0311.case
Substitution2: "'aalt' Access All Alternates in Latin lookup 0 subtable" uni0311.case
EndChar

StartChar: uni0312
Encoding: 786 786 155
Width: 0
GlyphClass: 4
Flags: W
LayerCount: 2
Fore
SplineSet
196 973 m 1,0,-1
 159 856 l 1,1,2
 178 851 178 851 187.5 835.5 c 128,-1,3
 197 820 197 820 197 802 c 0,4,5
 197 779 197 779 180.5 763 c 128,-1,6
 164 747 164 747 140 747 c 0,7,8
 114 747 114 747 99 764.5 c 128,-1,9
 84 782 84 782 84 805 c 0,10,11
 84 826 84 826 96 857 c 2,12,-1
 136 973 l 1,13,-1
 196 973 l 1,0,-1
EndSplineSet
Validated: 513
Substitution2: "'case' Case-Sensitive Forms in Latin lookup 35 subtable" uni0312.case
Substitution2: "Single Substitution lookup 7 subtable" uni0312.case
Substitution2: "Single Substitution lookup 6 subtable" uni0312.case
Substitution2: "Single Substitution lookup 4 subtable" uni0312.case
Substitution2: "Single Substitution lookup 3 subtable" uni0312.case
Substitution2: "'aalt' Access All Alternates in Latin lookup 0 subtable" uni0312.case
EndChar

StartChar: uni031B
Encoding: 795 795 156
Width: 0
GlyphClass: 4
Flags: W
LayerCount: 2
Fore
SplineSet
18 440 m 1,0,-1
 18 493 l 1,1,-1
 53 493 l 2,2,3
 75 493 75 493 87.5 507 c 128,-1,4
 100 521 100 521 100 546 c 2,5,-1
 100 577 l 1,6,-1
 177 577 l 1,7,-1
 177 543 l 2,8,9
 177 490 177 490 148.5 465 c 128,-1,10
 120 440 120 440 62 440 c 2,11,-1
 18 440 l 1,0,-1
EndSplineSet
Validated: 513
Substitution2: "'case' Case-Sensitive Forms in Latin lookup 35 subtable" uni031B.case
Substitution2: "Single Substitution lookup 7 subtable" uni031B.case
Substitution2: "Single Substitution lookup 6 subtable" uni031B.case
Substitution2: "Single Substitution lookup 4 subtable" uni031B.case
Substitution2: "Single Substitution lookup 3 subtable" uni031B.case
Substitution2: "'aalt' Access All Alternates in Latin lookup 0 subtable" uni031B.case
EndChar

StartChar: uni0324
Encoding: 804 804 158
Width: 0
GlyphClass: 4
Flags: W
LayerCount: 2
Fore
SplineSet
-248 -154 m 0,0,1
 -269 -154 -269 -154 -285 -138 c 128,-1,2
 -301 -122 -301 -122 -301 -101 c 0,3,4
 -301 -79 -301 -79 -285 -63.5 c 128,-1,5
 -269 -48 -269 -48 -248 -48 c 0,6,7
 -226 -48 -226 -48 -210.5 -63.5 c 128,-1,8
 -195 -79 -195 -79 -195 -101 c 0,9,10
 -195 -122 -195 -122 -210.5 -138 c 128,-1,11
 -226 -154 -226 -154 -248 -154 c 0,0,1
-59 -154 m 0,12,13
 -80 -154 -80 -154 -96 -138 c 128,-1,14
 -112 -122 -112 -122 -112 -101 c 0,15,16
 -112 -79 -112 -79 -96 -63.5 c 128,-1,17
 -80 -48 -80 -48 -59 -48 c 0,18,19
 -37 -48 -37 -48 -21.5 -63.5 c 128,-1,20
 -6 -79 -6 -79 -6 -101 c 0,21,22
 -6 -122 -6 -122 -21.5 -138 c 128,-1,23
 -37 -154 -37 -154 -59 -154 c 0,12,13
EndSplineSet
Validated: 513
Substitution2: "'case' Case-Sensitive Forms in Latin lookup 35 subtable" uni0324.case
Substitution2: "Single Substitution lookup 7 subtable" uni0324.case
Substitution2: "Single Substitution lookup 6 subtable" uni0324.case
Substitution2: "Single Substitution lookup 4 subtable" uni0324.case
Substitution2: "Single Substitution lookup 3 subtable" uni0324.case
Substitution2: "'aalt' Access All Alternates in Latin lookup 0 subtable" uni0324.case
EndChar

StartChar: uni0326
Encoding: 806 806 159
Width: 0
GlyphClass: 4
Flags: W
LayerCount: 2
Fore
SplineSet
-117 -274 m 1,0,-1
 -81 -157 l 1,1,2
 -99 -151 -99 -151 -108.5 -135.5 c 128,-1,3
 -118 -120 -118 -120 -118 -103 c 0,4,5
 -118 -80 -118 -80 -101.5 -64 c 128,-1,6
 -85 -48 -85 -48 -62 -48 c 0,7,8
 -36 -48 -36 -48 -21 -65.5 c 128,-1,9
 -6 -83 -6 -83 -6 -106 c 0,10,11
 -6 -127 -6 -127 -17 -158 c 2,12,-1
 -57 -274 l 1,13,-1
 -117 -274 l 1,0,-1
EndSplineSet
Validated: 513
Substitution2: "'case' Case-Sensitive Forms in Latin lookup 35 subtable" uni0326.case
Substitution2: "Single Substitution lookup 7 subtable" uni0326.case
Substitution2: "Single Substitution lookup 6 subtable" uni0326.case
Substitution2: "Single Substitution lookup 4 subtable" uni0326.case
Substitution2: "Single Substitution lookup 3 subtable" uni0326.case
Substitution2: "'aalt' Access All Alternates in Latin lookup 0 subtable" uni0326.case
EndChar

StartChar: uni0335
Encoding: 821 821 164
Width: 0
GlyphClass: 4
Flags: W
LayerCount: 2
Fore
SplineSet
0 250 m 1,0,-1
 0 307 l 1,1,-1
 500 307 l 1,2,-1
 500 250 l 1,3,-1
 0 250 l 1,0,-1
EndSplineSet
Validated: 1
EndChar

StartChar: uni0394
Encoding: 916 916 165
Width: 731
GlyphClass: 1
Flags: W
LayerCount: 2
Fore
SplineSet
136 0 m 2,0,1
 104 0 104 0 84 12.5 c 128,-1,2
 64 25 64 25 54.5 44.5 c 128,-1,3
 45 64 45 64 45 84 c 0,4,5
 45 98 45 98 51.5 118 c 128,-1,6
 58 138 58 138 65 156 c 128,-1,7
 72 174 72 174 75 181 c 2,8,-1
 274 648 l 2,9,10
 289 682 289 682 312 697 c 128,-1,11
 335 712 335 712 367 712 c 0,12,13
 398 712 398 712 421.5 697 c 128,-1,14
 445 682 445 682 460 648 c 2,15,-1
 656 181 l 2,16,17
 659 174 659 174 666 156 c 128,-1,18
 673 138 673 138 679.5 118 c 128,-1,19
 686 98 686 98 686 84 c 0,20,21
 686 64 686 64 676.5 44.5 c 128,-1,22
 667 25 667 25 647 12.5 c 128,-1,23
 627 0 627 0 595 0 c 2,24,-1
 136 0 l 2,0,1
178 79 m 2,25,-1
 554 79 l 2,26,27
 573 79 573 79 580 91.5 c 128,-1,28
 587 104 587 104 581 119 c 2,29,-1
 395 582 l 2,30,31
 389 598 389 598 383.5 605 c 128,-1,32
 378 612 378 612 367 612 c 0,33,34
 357 612 357 612 352 604.5 c 128,-1,35
 347 597 347 597 340 582 c 2,36,-1
 151 119 l 2,37,38
 144 103 144 103 151.5 91 c 128,-1,39
 159 79 159 79 178 79 c 2,25,-1
EndSplineSet
Validated: 1
EndChar

StartChar: uni03A9
Encoding: 937 937 166
Width: 794
GlyphClass: 1
Flags: W
LayerCount: 2
Fore
SplineSet
30 0 m 1,0,-1
 30 79 l 1,1,-1
 193 79 l 1,2,3
 144 106 144 106 107.5 148 c 128,-1,4
 71 190 71 190 50.5 245 c 128,-1,5
 30 300 30 300 30 362 c 0,6,7
 30 433 30 433 56.5 496.5 c 128,-1,8
 83 560 83 560 131 608.5 c 128,-1,9
 179 657 179 657 246 684.5 c 128,-1,10
 313 712 313 712 395 712 c 256,11,12
 477 712 477 712 543.5 684.5 c 128,-1,13
 610 657 610 657 658 608.5 c 128,-1,14
 706 560 706 560 732.5 496.5 c 128,-1,15
 759 433 759 433 759 362 c 0,16,17
 759 300 759 300 739 245 c 128,-1,18
 719 190 719 190 682.5 148 c 128,-1,19
 646 106 646 106 597 79 c 1,20,-1
 760 79 l 1,21,-1
 760 0 l 1,22,-1
 441 0 l 1,23,-1
 441 80 l 1,24,25
 491 83 491 83 531 105.5 c 128,-1,26
 571 128 571 128 601 166 c 128,-1,27
 631 204 631 204 646.5 252 c 128,-1,28
 662 300 662 300 662 351 c 0,29,30
 662 410 662 410 642.5 460.5 c 128,-1,31
 623 511 623 511 587 548.5 c 128,-1,32
 551 586 551 586 502 607 c 128,-1,33
 453 628 453 628 395 628 c 256,34,35
 337 628 337 628 288 607 c 128,-1,36
 239 586 239 586 202.5 548.5 c 128,-1,37
 166 511 166 511 146.5 460.5 c 128,-1,38
 127 410 127 410 127 351 c 0,39,40
 127 300 127 300 143 252 c 128,-1,41
 159 204 159 204 188.5 166 c 128,-1,42
 218 128 218 128 258.5 105.5 c 128,-1,43
 299 83 299 83 348 80 c 1,44,-1
 348 0 l 1,45,-1
 30 0 l 1,0,-1
EndSplineSet
Validated: 1
EndChar

StartChar: uni03BC
Encoding: 956 956 167
Width: 624
GlyphClass: 1
Flags: W
LayerCount: 2
Fore
SplineSet
73 -203 m 1,0,-1
 73 510 l 1,1,-1
 165 510 l 1,2,-1
 165 216 l 2,3,4
 165 170 165 170 185.5 136.5 c 128,-1,5
 206 103 206 103 239.5 85 c 128,-1,6
 273 67 273 67 311 67 c 0,7,8
 350 67 350 67 383.5 85 c 128,-1,9
 417 103 417 103 437.5 136.5 c 128,-1,10
 458 170 458 170 458 216 c 2,11,-1
 458 510 l 1,12,-1
 551 510 l 1,13,-1
 551 215 l 2,14,15
 551 147 551 147 520.5 96 c 128,-1,16
 490 45 490 45 438 16.5 c 128,-1,17
 386 -12 386 -12 318 -12 c 0,18,19
 271 -12 271 -12 231.5 6 c 128,-1,20
 192 24 192 24 166 58 c 1,21,-1
 165 58 l 1,22,-1
 165 -203 l 1,23,-1
 73 -203 l 1,0,-1
EndSplineSet
Validated: 1
EndChar

StartChar: pi
Encoding: 960 960 168
Width: 684
GlyphClass: 1
Flags: W
LayerCount: 2
Fore
SplineSet
592 0 m 2,0,1
 534 0 534 0 502 27.5 c 128,-1,2
 470 55 470 55 470 115 c 2,3,-1
 470 496 l 1,4,-1
 563 496 l 1,5,-1
 563 138 l 2,6,7
 563 110 563 110 578.5 93 c 128,-1,8
 594 76 594 76 625 76 c 2,9,-1
 656 76 l 1,10,-1
 656 0 l 1,11,-1
 592 0 l 2,0,1
120 0 m 1,12,-1
 120 496 l 1,13,-1
 213 496 l 1,14,-1
 213 0 l 1,15,-1
 120 0 l 1,12,-1
26 431 m 1,16,-1
 26 510 l 1,17,-1
 658 510 l 1,18,-1
 658 431 l 1,19,-1
 26 431 l 1,16,-1
EndSplineSet
Validated: 5
EndChar

StartChar: endash
Encoding: 8211 8211 170
Width: 500
GlyphClass: 1
Flags: W
LayerCount: 2
Fore
SplineSet
0 219 m 1,0,-1
 0 303 l 1,1,-1
 500 303 l 1,2,-1
 500 219 l 1,3,-1
 0 219 l 1,0,-1
EndSplineSet
Validated: 1
EndChar

StartChar: emdash
Encoding: 8212 8212 171
Width: 1000
GlyphClass: 1
Flags: W
LayerCount: 2
Fore
SplineSet
0 219 m 1,0,-1
 0 303 l 1,1,-1
 1000 303 l 1,2,-1
 1000 219 l 1,3,-1
 0 219 l 1,0,-1
EndSplineSet
Validated: 1
EndChar

StartChar: quoteleft
Encoding: 8216 8216 174
Width: 217
GlyphClass: 1
Flags: W
LayerCount: 2
Fore
SplineSet
104 406 m 0,0,1
 74 406 74 406 56 426 c 128,-1,2
 38 446 38 446 38 474 c 0,3,4
 38 493 38 493 41.5 509.5 c 128,-1,5
 45 526 45 526 52 548 c 2,6,-1
 98 700 l 1,7,-1
 176 700 l 1,8,-1
 125 534 l 1,9,10
 147 528 147 528 158.5 509 c 128,-1,11
 170 490 170 490 170 471 c 0,12,13
 170 444 170 444 150.5 425 c 128,-1,14
 131 406 131 406 104 406 c 0,0,1
EndSplineSet
Validated: 1
EndChar

StartChar: quoteright
Encoding: 8217 8217 175
Width: 217
GlyphClass: 1
Flags: W
LayerCount: 2
Fore
SplineSet
41 416 m 1,0,-1
 92 582 l 1,1,2
 70 589 70 589 58.5 607.5 c 128,-1,3
 47 626 47 626 47 646 c 0,4,5
 47 673 47 673 66.5 692 c 128,-1,6
 86 711 86 711 113 711 c 0,7,8
 143 711 143 711 161 690.5 c 128,-1,9
 179 670 179 670 179 642 c 0,10,11
 179 623 179 623 175.5 606.5 c 128,-1,12
 172 590 172 590 165 569 c 2,13,-1
 119 416 l 1,14,-1
 41 416 l 1,0,-1
EndSplineSet
Validated: 1
EndChar

StartChar: quotereversed
Encoding: 8219 8219 177
Width: 211
GlyphClass: 1
Flags: W
LayerCount: 2
Fore
SplineSet
173 416 m 1,0,-1
 95 416 l 1,1,-1
 49 569 l 2,2,3
 43 590 43 590 39 606.5 c 128,-1,4
 35 623 35 623 35 642 c 0,5,6
 35 670 35 670 53.5 690.5 c 128,-1,7
 72 711 72 711 102 711 c 0,8,9
 129 711 129 711 148.5 692 c 128,-1,10
 168 673 168 673 168 646 c 0,11,12
 168 626 168 626 156.5 607.5 c 128,-1,13
 145 589 145 589 123 582 c 1,14,-1
 173 416 l 1,0,-1
EndSplineSet
Validated: 1
EndChar

StartChar: dagger
Encoding: 8224 8224 181
Width: 567
GlyphClass: 1
Flags: W
LayerCount: 2
Fore
SplineSet
239 -190 m 1,0,-1
 239 414 l 1,1,-1
 36 414 l 1,2,-1
 36 498 l 1,3,-1
 239 498 l 1,4,-1
 239 700 l 1,5,-1
 328 700 l 1,6,-1
 328 498 l 1,7,-1
 531 498 l 1,8,-1
 531 414 l 1,9,-1
 328 414 l 1,10,-1
 328 -190 l 1,11,-1
 239 -190 l 1,0,-1
EndSplineSet
Validated: 1
EndChar

StartChar: daggerdbl
Encoding: 8225 8225 182
Width: 567
GlyphClass: 1
Flags: W
LayerCount: 2
Fore
SplineSet
36 12 m 1,0,-1
 36 97 l 1,1,-1
 531 97 l 1,2,-1
 531 12 l 1,3,-1
 36 12 l 1,0,-1
238 -190 m 1,4,-1
 238 414 l 1,5,-1
 36 414 l 1,6,-1
 36 498 l 1,7,-1
 238 498 l 1,8,-1
 238 700 l 1,9,-1
 328 700 l 1,10,-1
 328 498 l 1,11,-1
 531 498 l 1,12,-1
 531 414 l 1,13,-1
 328 414 l 1,14,-1
 328 -190 l 1,15,-1
 238 -190 l 1,4,-1
EndSplineSet
Validated: 5
EndChar

StartChar: bullet
Encoding: 8226 8226 183
Width: 294
GlyphClass: 1
Flags: W
LayerCount: 2
Fore
SplineSet
147 226 m 0,0,1
 125 226 125 226 106.5 237.5 c 128,-1,2
 88 249 88 249 76.5 268 c 128,-1,3
 65 287 65 287 65 309 c 0,4,5
 65 332 65 332 76.5 350.5 c 128,-1,6
 88 369 88 369 106.5 380.5 c 128,-1,7
 125 392 125 392 147 392 c 0,8,9
 170 392 170 392 189 380.5 c 128,-1,10
 208 369 208 369 219 350.5 c 128,-1,11
 230 332 230 332 230 309 c 0,12,13
 230 287 230 287 219 268 c 128,-1,14
 208 249 208 249 189 237.5 c 128,-1,15
 170 226 170 226 147 226 c 0,0,1
EndSplineSet
Validated: 1
EndChar

StartChar: perthousand
Encoding: 8240 8240 185
Width: 1315
GlyphClass: 1
Flags: W
LayerCount: 2
Fore
SplineSet
1097 -12 m 256,0,1
 1052 -12 1052 -12 1014 8 c 128,-1,2
 976 28 976 28 952.5 63 c 128,-1,3
 929 98 929 98 929 144 c 2,4,-1
 929 216 l 2,5,6
 929 262 929 262 952.5 297 c 128,-1,7
 976 332 976 332 1014 352 c 128,-1,8
 1052 372 1052 372 1097 372 c 256,9,10
 1142 372 1142 372 1180 352 c 128,-1,11
 1218 332 1218 332 1241 297 c 128,-1,12
 1264 262 1264 262 1264 216 c 2,13,-1
 1264 144 l 2,14,15
 1264 98 1264 98 1241 63 c 128,-1,16
 1218 28 1218 28 1180 8 c 128,-1,17
 1142 -12 1142 -12 1097 -12 c 256,0,1
1097 55 m 256,18,19
 1122 55 1122 55 1143.5 67 c 128,-1,20
 1165 79 1165 79 1178.5 100.5 c 128,-1,21
 1192 122 1192 122 1192 152 c 2,22,-1
 1192 208 l 2,23,24
 1192 238 1192 238 1178.5 260 c 128,-1,25
 1165 282 1165 282 1143.5 294 c 128,-1,26
 1122 306 1122 306 1097 306 c 256,27,28
 1072 306 1072 306 1050.5 294 c 128,-1,29
 1029 282 1029 282 1015.5 260 c 128,-1,30
 1002 238 1002 238 1002 208 c 2,31,-1
 1002 152 l 2,32,33
 1002 122 1002 122 1015.5 100.5 c 128,-1,34
 1029 79 1029 79 1050.5 67 c 128,-1,35
 1072 55 1072 55 1097 55 c 256,18,19
692 -12 m 256,36,37
 647 -12 647 -12 608.5 8 c 128,-1,38
 570 28 570 28 547 63 c 128,-1,39
 524 98 524 98 524 144 c 2,40,-1
 524 216 l 2,41,42
 524 262 524 262 547 297 c 128,-1,43
 570 332 570 332 608.5 352 c 128,-1,44
 647 372 647 372 692 372 c 256,45,46
 737 372 737 372 775 352 c 128,-1,47
 813 332 813 332 836 297 c 128,-1,48
 859 262 859 262 859 216 c 2,49,-1
 859 144 l 2,50,51
 859 98 859 98 836 63 c 128,-1,52
 813 28 813 28 775 8 c 128,-1,53
 737 -12 737 -12 692 -12 c 256,36,37
218 328 m 0,54,55
 174 328 174 328 135.5 348 c 128,-1,56
 97 368 97 368 74 403.5 c 128,-1,57
 51 439 51 439 51 484 c 2,58,-1
 51 556 l 2,59,60
 51 602 51 602 74 637.5 c 128,-1,61
 97 673 97 673 135.5 692.5 c 128,-1,62
 174 712 174 712 218 712 c 0,63,64
 264 712 264 712 302 692.5 c 128,-1,65
 340 673 340 673 363 637.5 c 128,-1,66
 386 602 386 602 386 556 c 2,67,-1
 386 484 l 2,68,69
 386 439 386 439 363 403.5 c 128,-1,70
 340 368 340 368 302 348 c 128,-1,71
 264 328 264 328 218 328 c 0,54,55
219 395 m 0,72,73
 243 395 243 395 264.5 407 c 128,-1,74
 286 419 286 419 299.5 440.5 c 128,-1,75
 313 462 313 462 313 492 c 2,76,-1
 313 549 l 2,77,78
 313 579 313 579 299.5 600.5 c 128,-1,79
 286 622 286 622 264.5 634 c 128,-1,80
 243 646 243 646 219 646 c 0,81,82
 194 646 194 646 172.5 634 c 128,-1,83
 151 622 151 622 137.5 600.5 c 128,-1,84
 124 579 124 579 124 549 c 2,85,-1
 124 492 l 2,86,87
 124 462 124 462 137.5 440.5 c 128,-1,88
 151 419 151 419 172.5 407 c 128,-1,89
 194 395 194 395 219 395 c 0,72,73
692 55 m 256,90,91
 717 55 717 55 738.5 67 c 128,-1,92
 760 79 760 79 773.5 100.5 c 128,-1,93
 787 122 787 122 787 152 c 2,94,-1
 787 208 l 2,95,96
 787 238 787 238 773.5 260 c 128,-1,97
 760 282 760 282 738.5 294 c 128,-1,98
 717 306 717 306 692 306 c 256,99,100
 667 306 667 306 645.5 294 c 128,-1,101
 624 282 624 282 610.5 260 c 128,-1,102
 597 238 597 238 597 208 c 2,103,-1
 597 152 l 2,104,105
 597 122 597 122 610.5 100.5 c 128,-1,106
 624 79 624 79 645.5 67 c 128,-1,107
 667 55 667 55 692 55 c 256,90,91
175 0 m 1,108,-1
 642 700 l 1,109,-1
 718 700 l 1,110,-1
 251 0 l 1,111,-1
 175 0 l 1,108,-1
EndSplineSet
Validated: 1
EndChar

StartChar: guilsinglleft
Encoding: 8249 8249 188
Width: 309
GlyphClass: 1
Flags: W
LayerCount: 2
Fore
SplineSet
183 119 m 1,0,-1
 36 314 l 1,1,-1
 183 510 l 1,2,-1
 273 510 l 1,3,-1
 128 314 l 1,4,-1
 273 119 l 1,5,-1
 183 119 l 1,0,-1
EndSplineSet
Validated: 1
EndChar

StartChar: guilsinglright
Encoding: 8250 8250 189
Width: 309
GlyphClass: 1
Flags: W
LayerCount: 2
Fore
SplineSet
36 119 m 1,0,-1
 180 314 l 1,1,-1
 36 510 l 1,2,-1
 126 510 l 1,3,-1
 273 314 l 1,4,-1
 126 119 l 1,5,-1
 36 119 l 1,0,-1
EndSplineSet
Validated: 1
EndChar

StartChar: uni203E
Encoding: 8254 8254 191
Width: 350
GlyphClass: 1
Flags: W
LayerCount: 2
Fore
SplineSet
0 638 m 1,0,-1
 0 695 l 1,1,-1
 350 695 l 1,2,-1
 350 638 l 1,3,-1
 0 638 l 1,0,-1
EndSplineSet
Validated: 1
EndChar

StartChar: fraction
Encoding: 8260 8260 192
Width: 340
GlyphClass: 1
Flags: W
LayerCount: 2
Fore
SplineSet
-105 0 m 1,0,-1
 363 700 l 1,1,-1
 439 700 l 1,2,-1
 -28 0 l 1,3,-1
 -105 0 l 1,0,-1
EndSplineSet
Validated: 1
EndChar

StartChar: uni2052
Encoding: 8274 8274 193
Width: 331
GlyphClass: 1
Flags: W
LayerCount: 2
Fore
SplineSet
56 0 m 1,0,-1
 212 700 l 1,1,-1
 274 700 l 1,2,-1
 118 0 l 1,3,-1
 56 0 l 1,0,-1
276 -7 m 256,4,5
 255 -7 255 -7 239.5 8.5 c 128,-1,6
 224 24 224 24 224 45 c 0,7,8
 224 67 224 67 239.5 82 c 128,-1,9
 255 97 255 97 276 97 c 256,10,11
 297 97 297 97 312.5 82 c 128,-1,12
 328 67 328 67 328 45 c 0,13,14
 328 24 328 24 312.5 8.5 c 128,-1,15
 297 -7 297 -7 276 -7 c 256,4,5
56 604 m 256,16,17
 35 604 35 604 19.5 619.5 c 128,-1,18
 4 635 4 635 4 656 c 0,19,20
 4 678 4 678 19.5 693 c 128,-1,21
 35 708 35 708 56 708 c 256,22,23
 77 708 77 708 92.5 693 c 128,-1,24
 108 678 108 678 108 656 c 0,25,26
 108 635 108 635 92.5 619.5 c 128,-1,27
 77 604 77 604 56 604 c 256,16,17
EndSplineSet
Validated: 1
EndChar

StartChar: uni2074
Encoding: 8308 8308 194
Width: 461
GlyphClass: 1
Flags: W
LayerCount: 2
Fore
SplineSet
283 261 m 1,0,-1
 283 359 l 1,1,-1
 133 359 l 2,2,3
 96 359 96 359 70.5 382.5 c 128,-1,4
 45 406 45 406 45 438 c 0,5,6
 45 451 45 451 48.5 463 c 128,-1,7
 52 475 52 475 58 485 c 2,8,-1
 181 698 l 1,9,-1
 260 698 l 1,10,-1
 122 463 l 2,11,12
 116 454 116 454 116 444 c 0,13,14
 116 435 116 435 123.5 427.5 c 128,-1,15
 131 420 131 420 144 420 c 2,16,-1
 283 420 l 1,17,-1
 283 570 l 1,18,-1
 353 570 l 1,19,-1
 353 420 l 1,20,-1
 424 420 l 1,21,-1
 424 359 l 1,22,-1
 353 359 l 1,23,-1
 353 261 l 1,24,-1
 283 261 l 1,0,-1
EndSplineSet
Validated: 1
EndChar

StartChar: arrowleft
Encoding: 8592 8592 199
Width: 718
GlyphClass: 1
Flags: W
LayerCount: 2
Fore
SplineSet
329 11 m 1,0,-1
 83 263 l 2,1,2
 58 288 58 288 45.5 309.5 c 128,-1,3
 33 331 33 331 33 353 c 0,4,5
 33 376 33 376 45.5 396 c 128,-1,6
 58 416 58 416 83 441 c 2,7,-1
 330 693 l 1,8,-1
 389 638 l 1,9,-1
 166 411 l 2,10,11
 159 404 159 404 155.5 400.5 c 128,-1,12
 152 397 152 397 150 394 c 1,13,-1
 683 394 l 1,14,-1
 683 310 l 1,15,-1
 151 310 l 1,16,17
 152 308 152 308 155.5 304 c 128,-1,18
 159 300 159 300 166 294 c 2,19,-1
 391 63 l 1,20,-1
 329 11 l 1,0,-1
EndSplineSet
Validated: 1
EndChar

StartChar: arrowup
Encoding: 8593 8593 200
Width: 775
GlyphClass: 1
Flags: W
LayerCount: 2
Fore
SplineSet
339 0 m 1,0,-1
 339 537 l 1,1,2
 337 536 337 536 333 532 c 128,-1,3
 329 528 329 528 321 521 c 2,4,-1
 100 299 l 1,5,-1
 45 358 l 1,6,-1
 297 605 l 2,7,8
 322 630 322 630 342.5 642.5 c 128,-1,9
 363 655 363 655 385 655 c 0,10,11
 408 655 408 655 429.5 642.5 c 128,-1,12
 451 630 451 630 475 605 c 2,13,-1
 727 358 l 1,14,-1
 674 297 l 1,15,-1
 449 521 l 2,16,17
 443 528 443 528 439 532 c 128,-1,18
 435 536 435 536 432 537 c 1,19,-1
 432 0 l 1,20,-1
 339 0 l 1,0,-1
EndSplineSet
Validated: 1
EndChar

StartChar: arrowright
Encoding: 8594 8594 201
Width: 718
GlyphClass: 1
Flags: W
LayerCount: 2
Fore
SplineSet
389 11 m 1,0,-1
 327 63 l 1,1,-1
 552 294 l 2,2,3
 559 300 559 300 562.5 304 c 128,-1,4
 566 308 566 308 567 310 c 1,5,-1
 35 310 l 1,6,-1
 35 394 l 1,7,-1
 568 394 l 1,8,9
 566 397 566 397 562.5 400.5 c 128,-1,10
 559 404 559 404 552 411 c 2,11,-1
 329 638 l 1,12,-1
 388 693 l 1,13,-1
 635 441 l 2,14,15
 660 416 660 416 672.5 396 c 128,-1,16
 685 376 685 376 685 353 c 0,17,18
 685 331 685 331 672.5 309.5 c 128,-1,19
 660 288 660 288 635 263 c 2,20,-1
 389 11 l 1,0,-1
EndSplineSet
Validated: 1
EndChar

StartChar: arrowdown
Encoding: 8595 8595 202
Width: 773
GlyphClass: 1
Flags: W
LayerCount: 2
Fore
SplineSet
339 636 m 1,0,-1
 432 636 l 1,1,-1
 432 99 l 1,2,3
 435 101 435 101 439 105 c 128,-1,4
 443 109 443 109 449 115 c 2,5,-1
 674 339 l 1,6,-1
 727 278 l 1,7,-1
 475 31 l 2,8,9
 451 7 451 7 429.5 -6 c 128,-1,10
 408 -19 408 -19 385 -19 c 0,11,12
 363 -19 363 -19 342.5 -6 c 128,-1,13
 322 7 322 7 297 31 c 2,14,-1
 45 278 l 1,15,-1
 100 337 l 1,16,-1
 321 115 l 2,17,18
 329 108 329 108 333 104.5 c 128,-1,19
 337 101 337 101 339 99 c 1,20,-1
 339 636 l 1,0,-1
EndSplineSet
Validated: 1
EndChar

StartChar: partialdiff
Encoding: 8706 8706 203
Width: 608
GlyphClass: 1
Flags: W
LayerCount: 2
Fore
SplineSet
296 -13 m 0,0,1
 213 -13 213 -13 154.5 22 c 128,-1,2
 96 57 96 57 65.5 116 c 128,-1,3
 35 175 35 175 35 248 c 0,4,5
 35 326 35 326 66.5 384 c 128,-1,6
 98 442 98 442 150.5 474.5 c 128,-1,7
 203 507 203 507 267 507 c 0,8,9
 315 507 315 507 352.5 491.5 c 128,-1,10
 390 476 390 476 413 453 c 1,11,-1
 415 454 l 1,12,13
 397 493 397 493 366 537 c 128,-1,14
 335 581 335 581 293 629 c 128,-1,15
 251 677 251 677 197 727 c 1,16,-1
 197 730 l 1,17,-1
 310 730 l 1,18,19
 383 660 383 660 431 595.5 c 128,-1,20
 479 531 479 531 506.5 472 c 128,-1,21
 534 413 534 413 545.5 361 c 128,-1,22
 557 309 557 309 557 264 c 0,23,24
 557 176 557 176 524.5 114 c 128,-1,25
 492 52 492 52 433.5 19.5 c 128,-1,26
 375 -13 375 -13 296 -13 c 0,0,1
296 67 m 0,27,28
 374 67 374 67 419 119 c 128,-1,29
 464 171 464 171 464 254 c 0,30,31
 464 308 464 308 442.5 348.5 c 128,-1,32
 421 389 421 389 383.5 411.5 c 128,-1,33
 346 434 346 434 296 434 c 0,34,35
 243 434 243 434 205.5 408.5 c 128,-1,36
 168 383 168 383 148 341 c 128,-1,37
 128 299 128 299 128 250 c 0,38,39
 128 199 128 199 148 157 c 128,-1,40
 168 115 168 115 206 91 c 128,-1,41
 244 67 244 67 296 67 c 0,27,28
EndSplineSet
Validated: 1
EndChar

StartChar: emptyset
Encoding: 8709 8709 204
Width: 812
GlyphClass: 1
Flags: W
LayerCount: 2
Fore
SplineSet
86 -7 m 1,0,-1
 44 35 l 1,1,-1
 719 708 l 1,2,-1
 761 666 l 1,3,-1
 86 -7 l 1,0,-1
406 -13 m 256,4,5
 323 -13 323 -13 256 15.5 c 128,-1,6
 189 44 189 44 141.5 94 c 128,-1,7
 94 144 94 144 68 210 c 128,-1,8
 42 276 42 276 42 351 c 0,9,10
 42 425 42 425 68 491 c 128,-1,11
 94 557 94 557 141.5 607 c 128,-1,12
 189 657 189 657 256 685 c 128,-1,13
 323 713 323 713 406 713 c 256,14,15
 489 713 489 713 556 685 c 128,-1,16
 623 657 623 657 670.5 607 c 128,-1,17
 718 557 718 557 744 491 c 128,-1,18
 770 425 770 425 770 350 c 0,19,20
 770 276 770 276 744 210 c 128,-1,21
 718 144 718 144 670.5 94 c 128,-1,22
 623 44 623 44 556 15.5 c 128,-1,23
 489 -13 489 -13 406 -13 c 256,4,5
406 72 m 0,24,25
 463 72 463 72 512 93 c 128,-1,26
 561 114 561 114 597.5 152 c 128,-1,27
 634 190 634 190 654 240.5 c 128,-1,28
 674 291 674 291 674 351 c 0,29,30
 674 410 674 410 654 461 c 128,-1,31
 634 512 634 512 598 549.5 c 128,-1,32
 562 587 562 587 512.5 607.5 c 128,-1,33
 463 628 463 628 406 628 c 0,34,35
 348 628 348 628 299 607.5 c 128,-1,36
 250 587 250 587 214 549.5 c 128,-1,37
 178 512 178 512 158 461 c 128,-1,38
 138 410 138 410 138 350 c 0,39,40
 138 291 138 291 158 240.5 c 128,-1,41
 178 190 178 190 214 152 c 128,-1,42
 250 114 250 114 299 93 c 128,-1,43
 348 72 348 72 406 72 c 0,24,25
EndSplineSet
Validated: 5
EndChar

StartChar: product
Encoding: 8719 8719 205
Width: 634
GlyphClass: 1
Flags: W
LayerCount: 2
Fore
SplineSet
468 0 m 1,0,-1
 468 681 l 1,1,-1
 561 681 l 1,2,-1
 561 0 l 1,3,-1
 468 0 l 1,0,-1
73 0 m 1,4,-1
 73 681 l 1,5,-1
 166 681 l 1,6,-1
 166 0 l 1,7,-1
 73 0 l 1,4,-1
73 621 m 1,8,-1
 73 700 l 1,9,-1
 561 700 l 1,10,-1
 561 621 l 1,11,-1
 73 621 l 1,8,-1
EndSplineSet
Validated: 5
EndChar

StartChar: summation
Encoding: 8721 8721 206
Width: 587
GlyphClass: 1
Flags: W
LayerCount: 2
Fore
SplineSet
51 0 m 1,0,-1
 51 68 l 1,1,-1
 249 368 l 1,2,-1
 57 633 l 1,3,-1
 57 700 l 1,4,-1
 535 700 l 1,5,-1
 535 620 l 1,6,-1
 169 620 l 1,7,-1
 354 368 l 1,8,-1
 164 79 l 1,9,-1
 536 79 l 1,10,-1
 536 0 l 1,11,-1
 51 0 l 1,0,-1
EndSplineSet
Validated: 1
EndChar

StartChar: minus
Encoding: 8722 8722 207
Width: 586
GlyphClass: 1
Flags: W
LayerCount: 2
Fore
SplineSet
64 307 m 1,0,-1
 64 389 l 1,1,-1
 522 389 l 1,2,-1
 522 307 l 1,3,-1
 64 307 l 1,0,-1
EndSplineSet
Validated: 1
EndChar

StartChar: uni2215
Encoding: 8725 8725 208
Width: 324
GlyphClass: 1
Flags: W
LayerCount: 2
Fore
SplineSet
53 0 m 1,0,-1
 209 700 l 1,1,-1
 271 700 l 1,2,-1
 115 0 l 1,3,-1
 53 0 l 1,0,-1
EndSplineSet
Validated: 1
EndChar

StartChar: uni2219
Encoding: 8729 8729 209
Width: 294
GlyphClass: 1
Flags: W
LayerCount: 2
Fore
SplineSet
147 121 m 0,0,1
 125 121 125 121 106.5 132.5 c 128,-1,2
 88 144 88 144 76.5 163 c 128,-1,3
 65 182 65 182 65 204 c 0,4,5
 65 227 65 227 76.5 245.5 c 128,-1,6
 88 264 88 264 106.5 275.5 c 128,-1,7
 125 287 125 287 147 287 c 0,8,9
 170 287 170 287 189 275.5 c 128,-1,10
 208 264 208 264 219 245.5 c 128,-1,11
 230 227 230 227 230 204 c 0,12,13
 230 182 230 182 219 163 c 128,-1,14
 208 144 208 144 189 132.5 c 128,-1,15
 170 121 170 121 147 121 c 0,0,1
EndSplineSet
Validated: 1
EndChar

StartChar: radical
Encoding: 8730 8730 210
Width: 630
GlyphClass: 1
Flags: W
LayerCount: 2
Fore
SplineSet
314 -120 m 256,0,1
 279 -120 279 -120 257.5 -99 c 128,-1,2
 236 -78 236 -78 223 -45 c 2,3,-1
 131 207 l 1,4,-1
 30 207 l 1,5,-1
 6 275 l 1,6,-1
 202 275 l 1,7,-1
 298 -7 l 2,8,9
 302 -19 302 -19 305.5 -24 c 128,-1,10
 309 -29 309 -29 314 -29 c 0,11,12
 320 -29 320 -29 324 -24 c 128,-1,13
 328 -19 328 -19 331 -7 c 2,14,-1
 542 700 l 1,15,-1
 636 700 l 1,16,-1
 407 -44 l 2,17,18
 395 -78 395 -78 372 -99 c 128,-1,19
 349 -120 349 -120 314 -120 c 256,0,1
EndSplineSet
Validated: 1
EndChar

StartChar: infinity
Encoding: 8734 8734 211
Width: 883
GlyphClass: 1
Flags: W
LayerCount: 2
Fore
SplineSet
256 109 m 0,0,1
 199 109 199 109 152 139.5 c 128,-1,2
 105 170 105 170 77 222.5 c 128,-1,3
 49 275 49 275 49 340 c 256,4,5
 49 405 49 405 76.5 457.5 c 128,-1,6
 104 510 104 510 150.5 541 c 128,-1,7
 197 572 197 572 255 572 c 0,8,9
 319 572 319 572 364 537.5 c 128,-1,10
 409 503 409 503 439 440 c 1,11,12
 469 503 469 503 514 537.5 c 128,-1,13
 559 572 559 572 619 572 c 0,14,15
 680 572 680 572 728.5 541.5 c 128,-1,16
 777 511 777 511 805.5 458.5 c 128,-1,17
 834 406 834 406 834 340 c 0,18,19
 834 276 834 276 805.5 223 c 128,-1,20
 777 170 777 170 729.5 139.5 c 128,-1,21
 682 109 682 109 623 109 c 0,22,23
 558 109 558 109 514 143 c 128,-1,24
 470 177 470 177 442 239 c 1,25,26
 414 178 414 178 369.5 143.5 c 128,-1,27
 325 109 325 109 256 109 c 0,0,1
262 193 m 0,28,29
 295 193 295 193 321 211 c 128,-1,30
 347 229 347 229 367 261.5 c 128,-1,31
 387 294 387 294 399 336 c 1,32,33
 386 380 386 380 367 414.5 c 128,-1,34
 348 449 348 449 322 469 c 128,-1,35
 296 489 296 489 261 489 c 0,36,37
 224 489 224 489 196.5 469 c 128,-1,38
 169 449 169 449 153.5 416 c 128,-1,39
 138 383 138 383 138 341 c 0,40,41
 138 300 138 300 155 266.5 c 128,-1,42
 172 233 172 233 200 213 c 128,-1,43
 228 193 228 193 262 193 c 0,28,29
623 193 m 0,44,45
 660 193 660 193 687.5 213 c 128,-1,46
 715 233 715 233 730 266.5 c 128,-1,47
 745 300 745 300 745 341 c 0,48,49
 745 383 745 383 728.5 416 c 128,-1,50
 712 449 712 449 684 469 c 128,-1,51
 656 489 656 489 622 489 c 0,52,53
 589 489 589 489 561 471 c 128,-1,54
 533 453 533 453 512.5 421 c 128,-1,55
 492 389 492 389 478 346 c 1,56,57
 493 304 493 304 513 268.5 c 128,-1,58
 533 233 533 233 560.5 213 c 128,-1,59
 588 193 588 193 623 193 c 0,44,45
EndSplineSet
Validated: 1
EndChar

StartChar: integral
Encoding: 8747 8747 212
Width: 376
GlyphClass: 1
Flags: W
LayerCount: 2
Fore
SplineSet
19 -203 m 1,0,-1
 19 -118 l 1,1,-1
 91 -118 l 2,2,3
 114 -118 114 -118 128 -104 c 128,-1,4
 142 -90 142 -90 142 -66 c 2,5,-1
 142 601 l 2,6,7
 142 662 142 662 176.5 696 c 128,-1,8
 211 730 211 730 272 730 c 2,9,-1
 357 730 l 1,10,-1
 357 645 l 1,11,-1
 286 645 l 2,12,13
 262 645 262 645 247.5 631 c 128,-1,14
 233 617 233 617 233 593 c 2,15,-1
 233 -74 l 2,16,17
 233 -134 233 -134 199 -168.5 c 128,-1,18
 165 -203 165 -203 104 -203 c 2,19,-1
 19 -203 l 1,0,-1
EndSplineSet
Validated: 1
EndChar

StartChar: notequal
Encoding: 8800 8800 214
Width: 586
GlyphClass: 1
Flags: W
LayerCount: 2
Fore
SplineSet
39 70 m 1,0,-1
 452 633 l 1,1,-1
 540 633 l 1,2,-1
 127 70 l 1,3,-1
 39 70 l 1,0,-1
64 422 m 1,4,-1
 64 504 l 1,5,-1
 521 504 l 1,6,-1
 521 422 l 1,7,-1
 64 422 l 1,4,-1
64 194 m 1,8,-1
 64 276 l 1,9,-1
 522 276 l 1,10,-1
 522 194 l 1,11,-1
 64 194 l 1,8,-1
EndSplineSet
Validated: 5
EndChar

StartChar: equivalence
Encoding: 8801 8801 215
Width: 593
GlyphClass: 1
Flags: W
LayerCount: 2
Fore
SplineSet
70 383 m 1,0,-1
 70 452 l 1,1,-1
 523 452 l 1,2,-1
 523 383 l 1,3,-1
 70 383 l 1,0,-1
70 57 m 1,4,-1
 70 126 l 1,5,-1
 523 125 l 1,6,-1
 523 57 l 1,7,-1
 70 57 l 1,4,-1
70 220 m 1,8,-1
 70 289 l 1,9,-1
 523 289 l 1,10,-1
 523 220 l 1,11,-1
 70 220 l 1,8,-1
EndSplineSet
Validated: 1
EndChar

StartChar: lessequal
Encoding: 8804 8804 216
Width: 568
GlyphClass: 1
Flags: W
LayerCount: 2
Fore
SplineSet
518 162 m 1,0,-1
 50 361 l 1,1,-1
 50 452 l 1,2,-1
 518 651 l 1,3,-1
 518 565 l 1,4,-1
 145 406 l 1,5,-1
 518 249 l 1,6,-1
 518 162 l 1,0,-1
50 18 m 1,7,-1
 50 100 l 1,8,-1
 518 100 l 1,9,-1
 518 18 l 1,10,-1
 50 18 l 1,7,-1
EndSplineSet
Validated: 1
EndChar

StartChar: greaterequal
Encoding: 8805 8805 217
Width: 568
GlyphClass: 1
Flags: W
LayerCount: 2
Fore
SplineSet
50 162 m 1,0,-1
 50 249 l 1,1,-1
 423 406 l 1,2,-1
 50 565 l 1,3,-1
 50 651 l 1,4,-1
 518 452 l 1,5,-1
 518 361 l 1,6,-1
 50 162 l 1,0,-1
50 18 m 1,7,-1
 50 100 l 1,8,-1
 518 100 l 1,9,-1
 518 18 l 1,10,-1
 50 18 l 1,7,-1
EndSplineSet
Validated: 1
EndChar

StartChar: lozenge
Encoding: 9674 9674 218
Width: 609
GlyphClass: 1
Flags: W
LayerCount: 2
Fore
SplineSet
258 0 m 1,0,-1
 67 356 l 1,1,-1
 258 712 l 1,2,-1
 352 712 l 1,3,-1
 543 356 l 1,4,-1
 352 0 l 1,5,-1
 258 0 l 1,0,-1
307 94 m 1,6,-1
 447 356 l 1,7,-1
 307 618 l 1,8,-1
 163 356 l 1,9,-1
 307 94 l 1,6,-1
EndSplineSet
Validated: 1
EndChar

StartChar: uni27E8
Encoding: 10216 10216 219
Width: 292
GlyphClass: 1
Flags: W
LayerCount: 2
Fore
SplineSet
158 -99 m 1,0,-1
 30 316 l 1,1,-1
 158 730 l 1,2,-1
 249 730 l 1,3,-1
 120 316 l 1,4,-1
 249 -99 l 1,5,-1
 158 -99 l 1,0,-1
EndSplineSet
Validated: 1
EndChar

StartChar: uni27E9
Encoding: 10217 10217 220
Width: 292
GlyphClass: 1
Flags: W
LayerCount: 2
Fore
SplineSet
36 -99 m 1,0,-1
 165 316 l 1,1,-1
 36 730 l 1,2,-1
 127 730 l 1,3,-1
 255 316 l 1,4,-1
 127 -99 l 1,5,-1
 36 -99 l 1,0,-1
EndSplineSet
Validated: 1
EndChar

StartChar: uniE0FF
Encoding: 57599 57599 221
Width: 837
GlyphClass: 1
Flags: W
LayerCount: 2
Fore
SplineSet
70 0 m 1,0,-1
 70 698 l 1,1,-1
 767 698 l 1,2,-1
 767 0 l 1,3,-1
 70 0 l 1,0,-1
420 135 m 256,4,5
 482 135 482 135 526 159.5 c 128,-1,6
 570 184 570 184 593 225 c 128,-1,7
 616 266 616 266 616 316 c 2,8,-1
 616 382 l 2,9,10
 616 432 616 432 593 473 c 128,-1,11
 570 514 570 514 526 538.5 c 128,-1,12
 482 563 482 563 420 563 c 256,13,14
 358 563 358 563 313.5 538.5 c 128,-1,15
 269 514 269 514 245.5 473 c 128,-1,16
 222 432 222 432 222 382 c 2,17,-1
 222 316 l 2,18,19
 222 266 222 266 245.5 225 c 128,-1,20
 269 184 269 184 313.5 159.5 c 128,-1,21
 358 135 358 135 420 135 c 256,4,5
420 230 m 256,22,23
 394 230 394 230 376 247.5 c 128,-1,24
 358 265 358 265 358 290 c 2,25,-1
 358 408 l 2,26,27
 358 433 358 433 376 450.5 c 128,-1,28
 394 468 394 468 420 468 c 256,29,30
 446 468 446 468 463.5 450.5 c 128,-1,31
 481 433 481 433 481 408 c 2,32,-1
 481 290 l 2,33,34
 481 265 481 265 463.5 247.5 c 128,-1,35
 446 230 446 230 420 230 c 256,22,23
EndSplineSet
Validated: 1
EndChar

StartChar: uniE900
Encoding: 59648 59648 222
Width: 1024
GlyphClass: 1
Flags: W
LayerCount: 2
Fore
SplineSet
1024 704 m 256,0,1
 1024 738 1024 738 1003 764 c 128,-1,2
 982 790 982 790 950 798 c 2,3,-1
 533 894 l 2,4,5
 528 895 528 895 522.5 895.5 c 128,-1,6
 517 896 517 896 512 896 c 256,7,8
 507 896 507 896 501.5 895.5 c 128,-1,9
 496 895 496 895 490 894 c 2,10,-1
 74 798 l 2,11,12
 42 790 42 790 21 764 c 128,-1,13
 0 738 0 738 0 704 c 256,14,15
 0 670 0 670 21 644 c 128,-1,16
 42 618 42 618 74 610 c 2,17,-1
 160 591 l 1,18,-1
 160 320 l 2,19,20
 160 288 160 288 179 259 c 256,21,22
 198 230 198 230 240.5 208 c 128,-1,23
 283 186 283 186 350 173 c 0,24,25
 416 160 416 160 512 160 c 256,26,27
 608 160 608 160 674 173 c 0,28,29
 741 186 741 186 783.5 208 c 128,-1,30
 826 230 826 230 845 259 c 256,31,32
 864 288 864 288 864 320 c 2,33,-1
 864 591 l 1,34,-1
 950 610 l 2,35,36
 982 618 982 618 1003 644 c 128,-1,37
 1024 670 1024 670 1024 704 c 256,0,1
800 320 m 2,38,39
 800 293 800 293 728 258.5 c 128,-1,40
 656 224 656 224 512 224 c 256,41,42
 368 224 368 224 296 258.5 c 128,-1,43
 224 293 224 293 224 320 c 2,44,-1
 224 576 l 1,45,-1
 491 514 l 2,46,47
 496 513 496 513 501.5 512.5 c 128,-1,48
 507 512 507 512 512 512 c 256,49,50
 517 512 517 512 522.5 512.5 c 128,-1,51
 528 513 528 513 534 514 c 2,52,-1
 800 576 l 1,53,-1
 800 320 l 2,38,39
519 577 m 2,54,55
 517 576 517 576 515.5 576 c 128,-1,56
 514 576 514 576 512 576 c 256,57,58
 510 576 510 576 508.5 576 c 128,-1,59
 507 576 507 576 505 577 c 2,60,-1
 89 673 l 2,61,62
 78 675 78 675 71 684 c 128,-1,63
 64 693 64 693 64 704 c 256,64,65
 64 715 64 715 71 724 c 128,-1,66
 78 733 78 733 89 735 c 2,67,-1
 505 831 l 2,68,69
 507 832 507 832 508.5 832 c 128,-1,70
 510 832 510 832 512 832 c 256,71,72
 514 832 514 832 515.5 832 c 128,-1,73
 517 832 517 832 519 831 c 2,74,-1
 935 735 l 2,75,76
 946 733 946 733 953 724 c 128,-1,77
 960 715 960 715 960 704 c 256,78,79
 960 693 960 693 953 684 c 128,-1,80
 946 675 946 675 935 673 c 2,81,-1
 519 577 l 2,54,55
928 544 m 2,82,83
 928 557 928 557 937.5 566.5 c 128,-1,84
 947 576 947 576 960 576 c 256,85,86
 973 576 973 576 982.5 566.5 c 128,-1,87
 992 557 992 557 992 544 c 2,88,-1
 992 256 l 2,89,90
 992 243 992 243 982.5 233.5 c 128,-1,91
 973 224 973 224 960 224 c 256,92,93
 947 224 947 224 937.5 233.5 c 128,-1,94
 928 243 928 243 928 256 c 2,95,-1
 928 544 l 2,82,83
960 192 m 0,96,97
 986 192 986 192 1005 141 c 128,-1,98
 1024 90 1024 90 1024 64 c 256,99,100
 1024 38 1024 38 1005 19 c 128,-1,101
 986 0 986 0 960 0 c 0,102,103
 933 0 933 0 914.5 19 c 128,-1,104
 896 38 896 38 896 64 c 256,105,106
 896 90 896 90 914.5 141 c 128,-1,107
 933 192 933 192 960 192 c 0,96,97
EndSplineSet
Validated: 9
EndChar

StartChar: uniE901
Encoding: 59649 59649 223
Width: 967
GlyphClass: 1
Flags: W
LayerCount: 2
Fore
SplineSet
823 695 m 256,0,1
 823 718 823 718 807 734 c 128,-1,2
 791 750 791 750 768 750 c 256,3,4
 745 750 745 750 729 734 c 128,-1,5
 713 718 713 718 713 695 c 256,6,7
 713 672 713 672 729 656 c 128,-1,8
 745 640 745 640 768 640 c 256,9,10
 791 640 791 640 807 656 c 128,-1,11
 823 672 823 672 823 695 c 256,0,1
951 859 m 1,12,13
 951 788 951 788 941 728 c 0,14,15
 930 667 930 667 907.5 613 c 128,-1,16
 885 559 885 559 849 509 c 0,17,18
 814 458 814 458 763 407 c 0,19,20
 738 383 738 383 710 358 c 128,-1,21
 682 333 682 333 651 307 c 1,22,-1
 640 90 l 2,23,24
 640 86 640 86 637.5 82 c 128,-1,25
 635 78 635 78 631 75 c 2,26,-1
 411 -53 l 2,27,28
 409 -54 409 -54 407 -54.5 c 128,-1,29
 405 -55 405 -55 402 -55 c 256,30,31
 399 -55 399 -55 395.5 -53.5 c 128,-1,32
 392 -52 392 -52 389 -50 c 2,33,-1
 353 -13 l 2,34,35
 349 -9 349 -9 348 -4.5 c 128,-1,36
 347 0 347 0 348 5 c 2,37,-1
 397 163 l 1,38,-1
 236 323 l 1,39,-1
 78 275 l 2,40,41
 77 274 77 274 75.5 274 c 128,-1,42
 74 274 74 274 73 274 c 0,43,44
 70 274 70 274 66.5 275.5 c 128,-1,45
 63 277 63 277 60 279 c 2,46,-1
 23 316 l 2,47,48
 19 321 19 321 18.5 327 c 128,-1,49
 18 333 18 333 21 338 c 2,50,-1
 149 558 l 2,51,52
 151 562 151 562 155 564 c 128,-1,53
 159 566 159 566 163 567 c 2,54,-1
 380 578 l 1,55,56
 406 609 406 609 431 637 c 128,-1,57
 456 665 456 665 481 690 c 0,58,59
 534 743 534 743 583 779 c 256,60,61
 632 815 632 815 684.5 837 c 128,-1,62
 737 859 737 859 797 868 c 0,63,64
 857 878 857 878 931 878 c 0,65,66
 939 878 939 878 945 872.5 c 128,-1,67
 951 867 951 867 951 859 c 1,68,-1
 951 859 l 1,12,13
EndSplineSet
Validated: 1
EndChar

StartChar: uniE902
Encoding: 59650 59650 224
Width: 878
GlyphClass: 1
Flags: W
LayerCount: 2
Fore
SplineSet
878 439 m 256,0,1
 878 348 878 348 843 268 c 0,2,3
 809 188 809 188 749.5 128.5 c 128,-1,4
 690 69 690 69 610 35 c 0,5,6
 530 0 530 0 439 0 c 256,7,8
 348 0 348 0 268 35 c 0,9,10
 188 69 188 69 128.5 128.5 c 128,-1,11
 69 188 69 188 34 268 c 0,12,13
 0 348 0 348 0 439 c 256,14,15
 0 530 0 530 34 610 c 0,16,17
 69 690 69 690 128.5 749.5 c 128,-1,18
 188 809 188 809 268 843 c 0,19,20
 348 878 348 878 439 878 c 256,21,22
 530 878 530 878 610 843 c 0,23,24
 690 809 690 809 749.5 749.5 c 128,-1,25
 809 690 809 690 843 610 c 0,26,27
 878 530 878 530 878 439 c 256,0,1
EndSplineSet
Validated: 1
EndChar

StartChar: uniE903
Encoding: 59651 59651 225
Width: 585
GlyphClass: 1
Flags: W
LayerCount: 2
Fore
SplineSet
421 622 m 1,0,1
 421 614 421 614 415.5 608.5 c 128,-1,2
 410 603 410 603 402 603 c 0,3,4
 395 603 395 603 389.5 608.5 c 128,-1,5
 384 614 384 614 384 622 c 0,6,7
 384 651 384 651 349.5 664 c 128,-1,8
 315 677 315 677 293 677 c 0,9,10
 285 677 285 677 279.5 682.5 c 128,-1,11
 274 688 274 688 274 695 c 256,12,13
 274 702 274 702 279.5 707.5 c 128,-1,14
 285 713 285 713 293 713 c 0,15,16
 332 713 332 713 376.5 691 c 128,-1,17
 421 669 421 669 421 622 c 1,18,-1
 421 622 l 1,0,1
512 622 m 1,19,20
 512 665 512 665 492 698 c 0,21,22
 473 732 473 732 441.5 756 c 128,-1,23
 410 780 410 780 370 792 c 0,24,25
 331 805 331 805 293 805 c 0,26,27
 254 805 254 805 215 792 c 0,28,29
 176 780 176 780 144.5 756 c 128,-1,30
 113 732 113 732 93 698 c 0,31,32
 73 665 73 665 73 622 c 0,33,34
 73 594 73 594 83.5 567 c 128,-1,35
 94 540 94 540 112 519 c 0,36,37
 120 509 120 509 129 500 c 128,-1,38
 138 491 138 491 147 481 c 0,39,40
 177 445 177 445 200 402 c 128,-1,41
 223 359 223 359 227 311 c 1,42,-1
 358 311 l 1,43,44
 362 359 362 359 385 402 c 128,-1,45
 408 445 408 445 438 481 c 0,46,47
 447 491 447 491 456 500 c 128,-1,48
 465 509 465 509 473 519 c 0,49,50
 491 540 491 540 501.5 567 c 128,-1,51
 512 594 512 594 512 622 c 1,52,-1
 512 622 l 1,19,20
585 622 m 0,53,54
 585 578 585 578 570.5 539.5 c 128,-1,55
 556 501 556 501 526 469 c 0,56,57
 497 436 497 436 465.5 392.5 c 128,-1,58
 434 349 434 349 430 303 c 1,59,60
 443 296 443 296 450 283 c 128,-1,61
 457 270 457 270 457 256 c 0,62,63
 457 246 457 246 453.5 236.5 c 128,-1,64
 450 227 450 227 443 219 c 1,65,66
 450 212 450 212 453.5 202.5 c 128,-1,67
 457 193 457 193 457 183 c 0,68,69
 457 169 457 169 450 156.5 c 128,-1,70
 443 144 443 144 431 137 c 1,71,72
 435 131 435 131 437 124 c 128,-1,73
 439 117 439 117 439 110 c 0,74,75
 439 82 439 82 420 68.5 c 128,-1,76
 401 55 401 55 377 55 c 1,77,78
 365 30 365 30 342.5 15 c 128,-1,79
 320 0 320 0 293 0 c 256,80,81
 266 0 266 0 243 15 c 128,-1,82
 220 30 220 30 209 55 c 1,83,84
 184 55 184 55 165 68.5 c 128,-1,85
 146 82 146 82 146 110 c 0,86,87
 146 117 146 117 148 124 c 128,-1,88
 150 131 150 131 154 137 c 1,89,90
 142 144 142 144 135 156.5 c 128,-1,91
 128 169 128 169 128 183 c 0,92,93
 128 193 128 193 131.5 202.5 c 128,-1,94
 135 212 135 212 142 219 c 1,95,96
 135 227 135 227 131.5 236.5 c 128,-1,97
 128 246 128 246 128 256 c 0,98,99
 128 270 128 270 135 283 c 128,-1,100
 142 296 142 296 155 303 c 1,101,102
 151 349 151 349 119.5 392.5 c 128,-1,103
 88 436 88 436 59 469 c 0,104,105
 29 501 29 501 14.5 539.5 c 128,-1,106
 0 578 0 578 0 622 c 0,107,108
 0 680 0 680 25 727 c 0,109,110
 51 775 51 775 92 808 c 128,-1,111
 133 841 133 841 186 860 c 0,112,113
 238 878 238 878 293 878 c 0,114,115
 347 878 347 878 399 860 c 0,116,117
 452 841 452 841 493 808 c 128,-1,118
 534 775 534 775 560 727 c 0,119,120
 585 680 585 680 585 622 c 0,53,54
EndSplineSet
Validated: 5
EndChar

StartChar: uniE904
Encoding: 59652 59652 226
Width: 878
GlyphClass: 1
Flags: W
LayerCount: 2
Fore
SplineSet
677 439 m 1,0,1
 677 432 677 432 674 425 c 128,-1,2
 671 418 671 418 666 413 c 2,3,-1
 355 102 l 2,4,5
 350 97 350 97 343 94 c 128,-1,6
 336 91 336 91 329 91 c 0,7,8
 314 91 314 91 303.5 102 c 128,-1,9
 293 113 293 113 293 128 c 2,10,-1
 293 293 l 1,11,-1
 37 293 l 2,12,13
 22 293 22 293 11 303.5 c 128,-1,14
 0 314 0 314 0 329 c 2,15,-1
 0 549 l 2,16,17
 0 564 0 564 11 574.5 c 128,-1,18
 22 585 22 585 37 585 c 2,19,-1
 293 585 l 1,20,-1
 293 750 l 2,21,22
 293 765 293 765 303.5 775.5 c 128,-1,23
 314 786 314 786 329 786 c 0,24,25
 336 786 336 786 343 783.5 c 128,-1,26
 350 781 350 781 355 775 c 2,27,-1
 666 465 l 2,28,29
 671 459 671 459 674 452.5 c 128,-1,30
 677 446 677 446 677 439 c 1,31,-1
 677 439 l 1,0,1
878 640 m 1,32,-1
 878 238 l 2,33,34
 878 170 878 170 829.5 121.5 c 128,-1,35
 781 73 781 73 713 73 c 2,36,-1
 530 73 l 2,37,38
 523 73 523 73 517.5 78.5 c 128,-1,39
 512 84 512 84 512 91 c 0,40,41
 512 103 512 103 511.5 124.5 c 128,-1,42
 511 146 511 146 530 146 c 2,43,-1
 713 146 l 2,44,45
 751 146 751 146 778 173 c 128,-1,46
 805 200 805 200 805 238 c 2,47,-1
 805 640 l 2,48,49
 805 678 805 678 778 704.5 c 128,-1,50
 751 731 751 731 713 731 c 2,51,-1
 549 731 l 2,52,53
 538 731 538 731 525 732.5 c 128,-1,54
 512 734 512 734 512 750 c 0,55,56
 512 762 512 762 511.5 783.5 c 128,-1,57
 511 805 511 805 530 805 c 2,58,-1
 713 805 l 2,59,60
 781 805 781 805 829.5 756.5 c 128,-1,61
 878 708 878 708 878 640 c 1,62,-1
 878 640 l 1,32,-1
EndSplineSet
Validated: 5
EndChar

StartChar: uniE905
Encoding: 59653 59653 227
Width: 896
GlyphClass: 1
Flags: W
LayerCount: 2
Fore
SplineSet
366 128 m 1,0,1
 366 116 366 116 366.5 94.5 c 128,-1,2
 367 73 367 73 347 73 c 2,3,-1
 165 73 l 2,4,5
 96 73 96 73 48 121.5 c 128,-1,6
 0 170 0 170 0 238 c 2,7,-1
 0 640 l 2,8,9
 0 708 0 708 48 756.5 c 128,-1,10
 96 805 96 805 165 805 c 2,11,-1
 347 805 l 2,12,13
 355 805 355 805 360.5 799.5 c 128,-1,14
 366 794 366 794 366 786 c 0,15,16
 366 774 366 774 366.5 752.5 c 128,-1,17
 367 731 367 731 347 731 c 2,18,-1
 165 731 l 2,19,20
 127 731 127 731 100 704.5 c 128,-1,21
 73 678 73 678 73 640 c 2,22,-1
 73 238 l 2,23,24
 73 200 73 200 100 173 c 128,-1,25
 127 146 127 146 165 146 c 2,26,-1
 329 146 l 2,27,28
 340 146 340 146 353 145 c 128,-1,29
 366 144 366 144 366 128 c 1,30,-1
 366 128 l 1,0,1
896 439 m 1,31,32
 896 432 896 432 893 425 c 128,-1,33
 890 418 890 418 885 413 c 2,34,-1
 574 102 l 2,35,36
 569 97 569 97 562.5 94 c 128,-1,37
 556 91 556 91 549 91 c 0,38,39
 534 91 534 91 523 102 c 128,-1,40
 512 113 512 113 512 128 c 2,41,-1
 512 293 l 1,42,-1
 256 293 l 2,43,44
 241 293 241 293 230 303.5 c 128,-1,45
 219 314 219 314 219 329 c 2,46,-1
 219 549 l 2,47,48
 219 564 219 564 230 574.5 c 128,-1,49
 241 585 241 585 256 585 c 2,50,-1
 512 585 l 1,51,-1
 512 750 l 2,52,53
 512 765 512 765 523 775.5 c 128,-1,54
 534 786 534 786 549 786 c 0,55,56
 556 786 556 786 562.5 783.5 c 128,-1,57
 569 781 569 781 574 775 c 2,58,-1
 885 465 l 2,59,60
 890 459 890 459 893 452.5 c 128,-1,61
 896 446 896 446 896 439 c 1,62,-1
 896 439 l 1,31,32
EndSplineSet
Validated: 5
EndChar

StartChar: uniE906
Encoding: 59654 59654 228
Width: 1024
GlyphClass: 1
Flags: W
LayerCount: 2
Fore
SplineSet
962 489 m 1,0,-1
 538 66 l 2,1,2
 527 55 527 55 512 55 c 128,-1,3
 497 55 497 55 486 66 c 2,4,-1
 62 489 l 2,5,6
 52 500 52 500 52 515 c 128,-1,7
 52 530 52 530 62 541 c 2,8,-1
 157 635 l 2,9,10
 168 646 168 646 183 646 c 128,-1,11
 198 646 198 646 209 635 c 2,12,-1
 512 332 l 1,13,-1
 815 635 l 2,14,15
 826 646 826 646 841 646 c 128,-1,16
 856 646 856 646 867 635 c 2,17,-1
 962 541 l 2,18,19
 972 530 972 530 972 515 c 128,-1,20
 972 500 972 500 962 489 c 1,21,-1
 962 489 l 1,0,-1
EndSplineSet
Validated: 5
EndChar

StartChar: uniE907
Encoding: 59655 59655 229
Width: 1024
GlyphClass: 1
Flags: W
LayerCount: 2
Fore
SplineSet
962 190 m 1,0,-1
 867 96 l 2,1,2
 856 85 856 85 841 85 c 128,-1,3
 826 85 826 85 815 96 c 2,4,-1
 512 399 l 1,5,-1
 209 96 l 2,6,7
 198 85 198 85 183 85 c 128,-1,8
 168 85 168 85 157 96 c 2,9,-1
 62 190 l 2,10,11
 52 201 52 201 52 216.5 c 128,-1,12
 52 232 52 232 62 242 c 2,13,-1
 486 666 l 2,14,15
 497 676 497 676 512 676 c 128,-1,16
 527 676 527 676 538 666 c 2,17,-1
 962 242 l 2,18,19
 972 232 972 232 972 216.5 c 128,-1,20
 972 201 972 201 962 190 c 1,21,-1
 962 190 l 1,0,-1
EndSplineSet
Validated: 5
EndChar

StartChar: uniE908
Encoding: 59656 59656 230
Width: 695
GlyphClass: 1
Flags: W
LayerCount: 2
Fore
SplineSet
633 450 m 1,0,-1
 209 26 l 2,1,2
 198 15 198 15 183 15 c 128,-1,3
 168 15 168 15 157 26 c 2,4,-1
 62 121 l 2,5,6
 52 131 52 131 52 146 c 128,-1,7
 52 161 52 161 62 172 c 2,8,-1
 366 475 l 1,9,-1
 62 779 l 2,10,11
 52 790 52 790 52 805 c 128,-1,12
 52 820 52 820 62 830 c 2,13,-1
 157 925 l 2,14,15
 168 936 168 936 183 936 c 128,-1,16
 198 936 198 936 209 925 c 2,17,-1
 633 501 l 2,18,19
 643 490 643 490 643 475 c 128,-1,20
 643 460 643 460 633 450 c 1,21,-1
 633 450 l 1,0,-1
EndSplineSet
Validated: 5
EndChar

StartChar: uniE909
Encoding: 59657 59657 231
Width: 768
GlyphClass: 1
Flags: W
LayerCount: 2
Fore
SplineSet
669 779 m 1,0,-1
 366 475 l 1,1,-1
 669 172 l 2,2,3
 680 161 680 161 680 146 c 128,-1,4
 680 131 680 131 669 121 c 2,5,-1
 574 26 l 2,6,7
 564 15 564 15 549 15 c 128,-1,8
 534 15 534 15 523 26 c 2,9,-1
 99 450 l 2,10,11
 88 460 88 460 88 475 c 128,-1,12
 88 490 88 490 99 501 c 2,13,-1
 523 925 l 2,14,15
 534 936 534 936 549 936 c 128,-1,16
 564 936 564 936 574 925 c 2,17,-1
 669 830 l 2,18,19
 680 820 680 820 680 805 c 128,-1,20
 680 790 680 790 669 779 c 1,21,-1
 669 779 l 1,0,-1
EndSplineSet
Validated: 5
EndChar

StartChar: uniE90A
Encoding: 59658 59658 232
Width: 1024
GlyphClass: 1
Flags: W
LayerCount: 2
Fore
SplineSet
951 91 m 1,0,-1
 951 530 l 1,1,2
 942 520 942 520 932 510.5 c 128,-1,3
 922 501 922 501 911 493 c 0,4,5
 850 445 850 445 789 397 c 128,-1,6
 728 349 728 349 668 299 c 0,7,8
 636 272 636 272 596.5 245.5 c 128,-1,9
 557 219 557 219 513 219 c 2,10,-1
 511 219 l 2,11,12
 467 219 467 219 427.5 245.5 c 128,-1,13
 388 272 388 272 356 299 c 0,14,15
 296 349 296 349 235 397 c 128,-1,16
 174 445 174 445 113 493 c 0,17,18
 102 501 102 501 92 510.5 c 128,-1,19
 82 520 82 520 73 530 c 1,20,-1
 73 91 l 2,21,22
 73 84 73 84 78.5 78.5 c 128,-1,23
 84 73 84 73 91 73 c 2,24,-1
 933 73 l 2,25,26
 940 73 940 73 945.5 78.5 c 128,-1,27
 951 84 951 84 951 91 c 1,28,-1
 951 91 l 1,0,-1
951 692 m 1,29,30
 951 703 951 703 950 717 c 128,-1,31
 949 731 949 731 933 731 c 2,32,-1
 91 731 l 2,33,34
 84 731 84 731 78.5 725.5 c 128,-1,35
 73 720 73 720 73 713 c 0,36,37
 73 664 73 664 96 622.5 c 128,-1,38
 119 581 119 581 157 551 c 0,39,40
 215 506 215 506 272 460.5 c 128,-1,41
 329 415 329 415 386 370 c 0,42,43
 409 351 409 351 445 322 c 128,-1,44
 481 293 481 293 511 293 c 2,45,-1
 513 293 l 2,46,47
 543 293 543 293 579 322 c 128,-1,48
 615 351 615 351 638 370 c 0,49,50
 695 415 695 415 752 460.5 c 128,-1,51
 809 506 809 506 867 551 c 0,52,53
 895 573 895 573 923 614.5 c 128,-1,54
 951 656 951 656 951 692 c 1,55,-1
 951 692 l 1,29,30
1024 713 m 2,56,-1
 1024 91 l 2,57,58
 1024 54 1024 54 997 27 c 128,-1,59
 970 0 970 0 933 0 c 2,60,-1
 91 0 l 2,61,62
 54 0 54 0 27 27 c 128,-1,63
 0 54 0 54 0 91 c 2,64,-1
 0 713 l 2,65,66
 0 751 0 751 27 778 c 128,-1,67
 54 805 54 805 91 805 c 2,68,-1
 933 805 l 2,69,70
 970 805 970 805 997 778 c 128,-1,71
 1024 751 1024 751 1024 713 c 2,56,-1
EndSplineSet
Validated: 5
EndChar

StartChar: uniE90B
Encoding: 59659 59659 233
Width: 1024
GlyphClass: 1
Flags: W
LayerCount: 2
Fore
SplineSet
597 427 m 0,0,1
 597 444 597 444 590.5 459.5 c 128,-1,2
 584 475 584 475 572 487 c 0,3,4
 561 499 561 499 545.5 505.5 c 128,-1,5
 530 512 530 512 512 512 c 256,6,7
 494 512 494 512 478.5 505.5 c 128,-1,8
 463 499 463 499 452 487 c 0,9,10
 440 475 440 475 433.5 459.5 c 128,-1,11
 427 444 427 444 427 427 c 0,12,13
 427 409 427 409 433.5 393.5 c 128,-1,14
 440 378 440 378 452 366 c 0,15,16
 463 355 463 355 478.5 348 c 128,-1,17
 494 341 494 341 512 341 c 256,18,19
 530 341 530 341 545.5 348 c 128,-1,20
 561 355 561 355 572 366 c 0,21,22
 584 378 584 378 590.5 393.5 c 128,-1,23
 597 409 597 409 597 427 c 0,0,1
597 725 m 0,24,25
 597 743 597 743 590.5 758.5 c 128,-1,26
 584 774 584 774 572 786 c 0,27,28
 561 797 561 797 545.5 804 c 128,-1,29
 530 811 530 811 512 811 c 256,30,31
 494 811 494 811 478.5 804 c 128,-1,32
 463 797 463 797 452 786 c 0,33,34
 440 774 440 774 433.5 758.5 c 128,-1,35
 427 743 427 743 427 725 c 0,36,37
 427 708 427 708 433.5 692.5 c 128,-1,38
 440 677 440 677 452 665 c 0,39,40
 463 653 463 653 478.5 646.5 c 128,-1,41
 494 640 494 640 512 640 c 256,42,43
 530 640 530 640 545.5 646.5 c 128,-1,44
 561 653 561 653 572 665 c 0,45,46
 584 677 584 677 590.5 692.5 c 128,-1,47
 597 708 597 708 597 725 c 0,24,25
597 128 m 256,48,49
 597 146 597 146 590.5 161.5 c 128,-1,50
 584 177 584 177 572 188 c 0,51,52
 561 200 561 200 545.5 206.5 c 128,-1,53
 530 213 530 213 512 213 c 256,54,55
 494 213 494 213 478.5 206.5 c 128,-1,56
 463 200 463 200 452 188 c 0,57,58
 440 177 440 177 433.5 161.5 c 128,-1,59
 427 146 427 146 427 128 c 256,60,61
 427 110 427 110 433.5 94.5 c 128,-1,62
 440 79 440 79 452 68 c 0,63,64
 463 56 463 56 478.5 49.5 c 128,-1,65
 494 43 494 43 512 43 c 256,66,67
 530 43 530 43 545.5 49.5 c 128,-1,68
 561 56 561 56 572 68 c 0,69,70
 584 79 584 79 590.5 94.5 c 128,-1,71
 597 110 597 110 597 128 c 256,48,49
EndSplineSet
Validated: 9
EndChar

StartChar: uniE90C
Encoding: 59660 59660 234
Width: 1024
GlyphClass: 1
Flags: W
LayerCount: 2
Fore
SplineSet
1024 370 m 1,0,-1
 512 767 l 1,1,-1
 0 370 l 1,2,-1
 0 532 l 1,3,-1
 512 929 l 1,4,-1
 1024 532 l 1,5,-1
 1024 370 l 1,0,-1
896 384 m 1,6,-1
 896 0 l 1,7,-1
 640 0 l 1,8,-1
 640 256 l 1,9,-1
 384 256 l 1,10,-1
 384 0 l 1,11,-1
 128 0 l 1,12,-1
 128 384 l 1,13,-1
 512 672 l 1,14,-1
 896 384 l 1,6,-1
EndSplineSet
Validated: 1
EndChar

StartChar: uniE90D
Encoding: 59661 59661 235
Width: 1024
GlyphClass: 1
Flags: W
LayerCount: 2
Fore
SplineSet
864 960 m 0,0,1
 930 960 930 960 977 913 c 128,-1,2
 1024 866 1024 866 1024 800 c 0,3,4
 1024 773 1024 773 1015.5 748.5 c 128,-1,5
 1007 724 1007 724 992 704 c 2,6,-1
 928 640 l 1,7,-1
 704 864 l 1,8,-1
 768 928 l 2,9,10
 788 943 788 943 812.5 951.5 c 128,-1,11
 837 960 837 960 864 960 c 0,0,1
64 224 m 1,12,-1
 0 -64 l 1,13,-1
 288 0 l 1,14,-1
 880 592 l 1,15,-1
 656 816 l 1,16,-1
 64 224 l 1,12,-1
716 596 m 1,17,-1
 268 148 l 1,18,-1
 212 204 l 1,19,-1
 660 652 l 1,20,-1
 716 596 l 1,17,-1
EndSplineSet
Validated: 9
EndChar

StartChar: uniE90E
Encoding: 59662 59662 236
Width: 1024
GlyphClass: 1
Flags: W
LayerCount: 2
Fore
SplineSet
960 832 m 1,0,1
 960 832 960 832 960 832 c 129,-1,2
 960 832 960 832 960 832 c 1,3,-1
 960 64 l 1,4,5
 960 64 960 64 960 64 c 129,-1,6
 960 64 960 64 960 64 c 1,7,-1
 64 64 l 1,8,9
 64 64 64 64 64 64 c 129,-1,10
 64 64 64 64 64 64 c 1,11,-1
 64 832 l 1,12,13
 64 832 64 832 64 832 c 129,-1,14
 64 832 64 832 64 832 c 1,15,-1
 960 832 l 1,16,-1
 960 832 l 1,0,1
960 896 m 1,17,-1
 64 896 l 2,18,19
 38 896 38 896 19 877 c 128,-1,20
 0 858 0 858 0 832 c 2,21,-1
 0 64 l 2,22,23
 0 38 0 38 19 19 c 128,-1,24
 38 0 38 0 64 0 c 2,25,-1
 960 0 l 2,26,27
 986 0 986 0 1005 19 c 128,-1,28
 1024 38 1024 38 1024 64 c 2,29,-1
 1024 832 l 2,30,31
 1024 858 1024 858 1005 877 c 128,-1,32
 986 896 986 896 960 896 c 1,33,-1
 960 896 l 1,17,-1
832 672 m 256,34,35
 832 632 832 632 804 604 c 128,-1,36
 776 576 776 576 736 576 c 256,37,38
 696 576 696 576 668 604 c 128,-1,39
 640 632 640 632 640 672 c 256,40,41
 640 712 640 712 668 740 c 128,-1,42
 696 768 696 768 736 768 c 256,43,44
 776 768 776 768 804 740 c 128,-1,45
 832 712 832 712 832 672 c 256,34,35
896 128 m 1,46,-1
 128 128 l 1,47,-1
 128 256 l 1,48,-1
 352 640 l 1,49,-1
 608 320 l 1,50,-1
 672 320 l 1,51,-1
 896 512 l 1,52,-1
 896 128 l 1,46,-1
EndSplineSet
Validated: 5
EndChar

StartChar: uniE911
Encoding: 59665 59665 237
Width: 1024
GlyphClass: 1
Flags: W
LayerCount: 2
Fore
SplineSet
960 960 m 1,0,-1
 1024 960 l 1,1,-1
 1024 224 l 2,2,3
 1024 191 1024 191 1006 162 c 0,4,5
 989 133 989 133 958.5 111 c 128,-1,6
 928 89 928 89 887 77 c 0,7,8
 846 64 846 64 800 64 c 256,9,10
 754 64 754 64 713 77 c 0,11,12
 672 89 672 89 641.5 111 c 128,-1,13
 611 133 611 133 594 162 c 0,14,15
 576 191 576 191 576 224 c 256,16,17
 576 257 576 257 594 286 c 0,18,19
 611 315 611 315 641.5 337 c 128,-1,20
 672 359 672 359 713 371 c 0,21,22
 754 384 754 384 800 384 c 0,23,24
 847 384 847 384 888.5 371 c 128,-1,25
 930 358 930 358 960 336 c 1,26,-1
 960 704 l 1,27,-1
 448 590 l 1,28,-1
 448 96 l 2,29,30
 448 63 448 63 430 34 c 0,31,32
 413 5 413 5 382.5 -17 c 128,-1,33
 352 -39 352 -39 311 -51 c 0,34,35
 270 -64 270 -64 224 -64 c 256,36,37
 178 -64 178 -64 137 -51 c 0,38,39
 96 -39 96 -39 65.5 -17 c 128,-1,40
 35 5 35 5 18 34 c 0,41,42
 0 63 0 63 0 96 c 256,43,44
 0 129 0 129 18 158 c 0,45,46
 35 187 35 187 65.5 209 c 128,-1,47
 96 231 96 231 137 243 c 0,48,49
 178 256 178 256 224 256 c 0,50,51
 271 256 271 256 312.5 243 c 128,-1,52
 354 230 354 230 384 208 c 1,53,-1
 384 832 l 1,54,-1
 960 960 l 1,0,-1
EndSplineSet
Validated: 1
EndChar

StartChar: uniE91E
Encoding: 59678 59678 238
Width: 1024
GlyphClass: 1
Flags: W
LayerCount: 2
Fore
SplineSet
480 256 m 256,0,1
 546 256 546 256 593 303 c 128,-1,2
 640 350 640 350 640 416 c 2,3,-1
 640 800 l 2,4,5
 640 866 640 866 593 913 c 128,-1,6
 546 960 546 960 480 960 c 256,7,8
 414 960 414 960 367 913 c 128,-1,9
 320 866 320 866 320 800 c 2,10,-1
 320 416 l 2,11,12
 320 350 320 350 367 303 c 128,-1,13
 414 256 414 256 480 256 c 256,0,1
704 512 m 1,14,-1
 704 416 l 2,15,16
 704 370 704 370 686 329 c 0,17,18
 669 288 669 288 638.5 257.5 c 128,-1,19
 608 227 608 227 567 210 c 0,20,21
 526 192 526 192 480 192 c 256,22,23
 434 192 434 192 393 210 c 0,24,25
 352 227 352 227 321.5 257.5 c 128,-1,26
 291 288 291 288 274 329 c 0,27,28
 256 370 256 370 256 416 c 2,29,-1
 256 512 l 1,30,-1
 192 512 l 1,31,-1
 192 416 l 2,32,33
 192 360 192 360 212 311 c 256,34,35
 232 262 232 262 266.5 223.5 c 128,-1,36
 301 185 301 185 347 160 c 0,37,38
 394 136 394 136 448 130 c 1,39,-1
 448 0 l 1,40,-1
 320 0 l 1,41,-1
 320 -64 l 1,42,-1
 640 -64 l 1,43,-1
 640 0 l 1,44,-1
 512 0 l 1,45,-1
 512 130 l 1,46,47
 566 136 566 136 613 160 c 0,48,49
 659 185 659 185 693.5 223.5 c 128,-1,50
 728 262 728 262 748 311 c 256,51,52
 768 360 768 360 768 416 c 2,53,-1
 768 512 l 1,54,-1
 704 512 l 1,14,-1
EndSplineSet
Validated: 9
EndChar

StartChar: uniE921
Encoding: 59681 59681 239
Width: 1088
GlyphClass: 1
Flags: W
LayerCount: 2
Fore
SplineSet
1024 0 m 1,0,-1
 1024 64 l 1,1,-1
 960 64 l 1,2,-1
 960 448 l 1,3,-1
 1024 448 l 1,4,-1
 1024 512 l 1,5,-1
 832 512 l 1,6,-1
 832 448 l 1,7,-1
 896 448 l 1,8,-1
 896 64 l 1,9,-1
 704 64 l 1,10,-1
 704 448 l 1,11,-1
 768 448 l 1,12,-1
 768 512 l 1,13,-1
 576 512 l 1,14,-1
 576 448 l 1,15,-1
 640 448 l 1,16,-1
 640 64 l 1,17,-1
 448 64 l 1,18,-1
 448 448 l 1,19,-1
 512 448 l 1,20,-1
 512 512 l 1,21,-1
 320 512 l 1,22,-1
 320 448 l 1,23,-1
 384 448 l 1,24,-1
 384 64 l 1,25,-1
 192 64 l 1,26,-1
 192 448 l 1,27,-1
 256 448 l 1,28,-1
 256 512 l 1,29,-1
 64 512 l 1,30,-1
 64 448 l 1,31,-1
 128 448 l 1,32,-1
 128 64 l 1,33,-1
 64 64 l 1,34,-1
 64 0 l 1,35,-1
 0 0 l 1,36,-1
 0 -64 l 1,37,-1
 1088 -64 l 1,38,-1
 1088 0 l 1,39,-1
 1024 0 l 1,0,-1
512 960 m 1,40,-1
 576 960 l 1,41,-1
 1088 640 l 1,42,-1
 1088 576 l 1,43,-1
 0 576 l 1,44,-1
 0 640 l 1,45,-1
 512 960 l 1,40,-1
EndSplineSet
Validated: 9
EndChar

StartChar: uniE92C
Encoding: 59692 59692 240
Width: 1024
GlyphClass: 1
Flags: W
LayerCount: 2
Fore
SplineSet
640 704 m 1,0,-1
 640 960 l 1,1,-1
 192 960 l 1,2,-1
 0 768 l 1,3,-1
 0 192 l 1,4,-1
 384 192 l 1,5,-1
 384 -64 l 1,6,-1
 1024 -64 l 1,7,-1
 1024 704 l 1,8,-1
 640 704 l 1,0,-1
192 869 m 1,9,-1
 192 768 l 1,10,-1
 91 768 l 1,11,-1
 192 869 l 1,9,-1
64 256 m 1,12,-1
 64 704 l 1,13,-1
 256 704 l 1,14,-1
 256 896 l 1,15,-1
 576 896 l 1,16,-1
 576 704 l 1,17,-1
 384 512 l 1,18,-1
 384 256 l 1,19,-1
 64 256 l 1,12,-1
576 613 m 1,20,-1
 576 512 l 1,21,-1
 475 512 l 1,22,-1
 576 613 l 1,20,-1
960 0 m 1,23,-1
 448 0 l 1,24,-1
 448 448 l 1,25,-1
 640 448 l 1,26,-1
 640 640 l 1,27,-1
 960 640 l 1,28,-1
 960 0 l 1,23,-1
EndSplineSet
Validated: 9
EndChar

StartChar: uniE930
Encoding: 59696 59696 241
Width: 1024
GlyphClass: 1
Flags: W
LayerCount: 2
Fore
SplineSet
832 0 m 1,0,-1
 1024 512 l 1,1,-1
 192 512 l 1,2,-1
 0 0 l 1,3,-1
 832 0 l 1,0,-1
128 576 m 1,4,-1
 0 0 l 1,5,-1
 0 832 l 1,6,-1
 288 832 l 1,7,-1
 416 704 l 1,8,-1
 832 704 l 1,9,-1
 832 576 l 1,10,-1
 128 576 l 1,4,-1
EndSplineSet
Validated: 5
EndChar

StartChar: uniE931
Encoding: 59697 59697 242
Width: 1024
GlyphClass: 1
Flags: W
LayerCount: 2
Fore
SplineSet
576 704 m 1,0,-1
 448 832 l 1,1,-1
 0 832 l 1,2,-1
 0 0 l 1,3,-1
 1024 0 l 1,4,-1
 1024 704 l 1,5,-1
 576 704 l 1,0,-1
704 256 m 1,6,-1
 576 256 l 1,7,-1
 576 128 l 1,8,-1
 448 128 l 1,9,-1
 448 256 l 1,10,-1
 320 256 l 1,11,-1
 320 384 l 1,12,-1
 448 384 l 1,13,-1
 448 512 l 1,14,-1
 576 512 l 1,15,-1
 576 384 l 1,16,-1
 704 384 l 1,17,-1
 704 256 l 1,6,-1
EndSplineSet
Validated: 9
EndChar

StartChar: uniE93A
Encoding: 59706 59706 243
Width: 1024
GlyphClass: 1
Flags: W
LayerCount: 2
Fore
SplineSet
384 32 m 256,0,1
 384 -8 384 -8 356 -36 c 128,-1,2
 328 -64 328 -64 288 -64 c 256,3,4
 248 -64 248 -64 220 -36 c 128,-1,5
 192 -8 192 -8 192 32 c 256,6,7
 192 72 192 72 220 100 c 128,-1,8
 248 128 248 128 288 128 c 256,9,10
 328 128 328 128 356 100 c 128,-1,11
 384 72 384 72 384 32 c 256,0,1
1024 32 m 256,12,13
 1024 -8 1024 -8 996 -36 c 128,-1,14
 968 -64 968 -64 928 -64 c 256,15,16
 888 -64 888 -64 860 -36 c 128,-1,17
 832 -8 832 -8 832 32 c 256,18,19
 832 72 832 72 860 100 c 128,-1,20
 888 128 888 128 928 128 c 256,21,22
 968 128 968 128 996 100 c 128,-1,23
 1024 72 1024 72 1024 32 c 256,12,13
1024 448 m 1,24,-1
 1024 832 l 1,25,-1
 256 832 l 1,26,27
 256 859 256 859 237.5 877.5 c 128,-1,28
 219 896 219 896 192 896 c 2,29,-1
 0 896 l 1,30,-1
 0 832 l 1,31,-1
 128 832 l 1,32,-1
 176 420 l 1,33,34
 154 402 154 402 141 376 c 128,-1,35
 128 350 128 350 128 320 c 0,36,37
 128 267 128 267 165.5 229.5 c 128,-1,38
 203 192 203 192 256 192 c 2,39,-1
 1024 192 l 1,40,-1
 1024 256 l 1,41,-1
 256 256 l 2,42,43
 229 256 229 256 210.5 274.5 c 128,-1,44
 192 293 192 293 192 320 c 1,45,46
 192 320 192 320 192 320 c 129,-1,47
 192 320 192 320 192 321 c 2,48,-1
 1024 448 l 1,24,-1
EndSplineSet
Validated: 5
EndChar

StartChar: uniE93B
Encoding: 59707 59707 244
Width: 1024
GlyphClass: 1
Flags: W
LayerCount: 2
Fore
SplineSet
480 896 m 256,0,1
 381 896 381 896 293 858 c 0,2,3
 206 821 206 821 140.5 755.5 c 128,-1,4
 75 690 75 690 38 603 c 0,5,6
 0 515 0 515 0 416 c 256,7,8
 0 317 0 317 38 229 c 0,9,10
 75 142 75 142 140.5 76.5 c 128,-1,11
 206 11 206 11 293 -26 c 0,12,13
 381 -64 381 -64 480 -64 c 256,14,15
 579 -64 579 -64 667 -26 c 0,16,17
 754 11 754 11 819.5 76.5 c 128,-1,18
 885 142 885 142 922 229 c 0,19,20
 960 317 960 317 960 416 c 256,21,22
 960 515 960 515 922 603 c 0,23,24
 885 690 885 690 819.5 755.5 c 128,-1,25
 754 821 754 821 667 858 c 0,26,27
 579 896 579 896 480 896 c 256,0,1
480 32 m 256,28,29
 400 32 400 32 331 62 c 0,30,31
 261 92 261 92 208.5 144.5 c 128,-1,32
 156 197 156 197 126 267 c 0,33,34
 96 336 96 336 96 416 c 256,35,36
 96 496 96 496 126 565 c 0,37,38
 156 635 156 635 208.5 687.5 c 128,-1,39
 261 740 261 740 331 770 c 0,40,41
 400 800 400 800 480 800 c 256,42,43
 560 800 560 800 629 770 c 0,44,45
 699 740 699 740 751.5 687.5 c 128,-1,46
 804 635 804 635 834 565 c 0,47,48
 864 496 864 496 864 416 c 256,49,50
 864 336 864 336 834 267 c 0,51,52
 804 197 804 197 751.5 144.5 c 128,-1,53
 699 92 699 92 629 62 c 0,54,55
 560 32 560 32 480 32 c 256,28,29
512 448 m 1,56,-1
 512 576 l 1,57,-1
 640 576 l 1,58,-1
 640 640 l 1,59,-1
 512 640 l 1,60,-1
 512 704 l 1,61,-1
 448 704 l 1,62,-1
 448 640 l 1,63,-1
 320 640 l 1,64,-1
 320 384 l 1,65,-1
 448 384 l 1,66,-1
 448 256 l 1,67,-1
 320 256 l 1,68,-1
 320 192 l 1,69,-1
 448 192 l 1,70,-1
 448 128 l 1,71,-1
 512 128 l 1,72,-1
 512 192 l 1,73,-1
 640 192 l 1,74,-1
 640 448 l 1,75,-1
 512 448 l 1,56,-1
448 448 m 1,76,-1
 384 448 l 1,77,-1
 384 576 l 1,78,-1
 448 576 l 1,79,-1
 448 448 l 1,76,-1
576 256 m 1,80,-1
 512 256 l 1,81,-1
 512 384 l 1,82,-1
 576 384 l 1,83,-1
 576 256 l 1,80,-1
EndSplineSet
Validated: 9
EndChar

StartChar: uniE93F
Encoding: 59711 59711 245
Width: 1024
GlyphClass: 1
Flags: W
LayerCount: 2
Fore
SplineSet
928 832 m 2,0,-1
 96 832 l 2,1,2
 56 832 56 832 28 804 c 128,-1,3
 0 776 0 776 0 736 c 2,4,-1
 0 160 l 2,5,6
 0 120 0 120 28 92 c 128,-1,7
 56 64 56 64 96 64 c 2,8,-1
 928 64 l 2,9,10
 968 64 968 64 996 92 c 128,-1,11
 1024 120 1024 120 1024 160 c 2,12,-1
 1024 736 l 2,13,14
 1024 776 1024 776 996 804 c 128,-1,15
 968 832 968 832 928 832 c 2,0,-1
96 768 m 2,16,-1
 928 768 l 2,17,18
 941 768 941 768 950.5 758.5 c 128,-1,19
 960 749 960 749 960 736 c 2,20,-1
 960 640 l 1,21,-1
 64 640 l 1,22,-1
 64 736 l 2,23,24
 64 749 64 749 73.5 758.5 c 128,-1,25
 83 768 83 768 96 768 c 2,16,-1
928 128 m 2,26,-1
 96 128 l 2,27,28
 83 128 83 128 73.5 137.5 c 128,-1,29
 64 147 64 147 64 160 c 2,30,-1
 64 448 l 1,31,-1
 960 448 l 1,32,-1
 960 160 l 2,33,34
 960 147 960 147 950.5 137.5 c 128,-1,35
 941 128 941 128 928 128 c 2,26,-1
128 320 m 1,36,-1
 192 320 l 1,37,-1
 192 192 l 1,38,-1
 128 192 l 1,39,-1
 128 320 l 1,36,-1
256 320 m 1,40,-1
 320 320 l 1,41,-1
 320 192 l 1,42,-1
 256 192 l 1,43,-1
 256 320 l 1,40,-1
384 320 m 1,44,-1
 448 320 l 1,45,-1
 448 192 l 1,46,-1
 384 192 l 1,47,-1
 384 320 l 1,44,-1
EndSplineSet
Validated: 9
EndChar

StartChar: uniE940
Encoding: 59712 59712 246
Width: 1024
GlyphClass: 1
Flags: W
LayerCount: 2
Fore
SplineSet
384 896 m 2,0,-1
 64 896 l 2,1,2
 38 896 38 896 19 877 c 128,-1,3
 0 858 0 858 0 832 c 2,4,-1
 0 512 l 2,5,6
 0 486 0 486 19 467 c 128,-1,7
 38 448 38 448 64 448 c 2,8,-1
 384 448 l 2,9,10
 410 448 410 448 429 467 c 128,-1,11
 448 486 448 486 448 512 c 2,12,-1
 448 832 l 2,13,14
 448 858 448 858 429 877 c 128,-1,15
 410 896 410 896 384 896 c 2,0,-1
384 640 m 1,16,-1
 64 640 l 1,17,-1
 64 704 l 1,18,-1
 384 704 l 1,19,-1
 384 640 l 1,16,-1
896 896 m 2,20,-1
 576 896 l 2,21,22
 550 896 550 896 531 877 c 128,-1,23
 512 858 512 858 512 832 c 2,24,-1
 512 0 l 2,25,26
 512 -26 512 -26 531 -45 c 128,-1,27
 550 -64 550 -64 576 -64 c 2,28,-1
 896 -64 l 2,29,30
 922 -64 922 -64 941 -45 c 128,-1,31
 960 -26 960 -26 960 0 c 2,32,-1
 960 832 l 2,33,34
 960 858 960 858 941 877 c 128,-1,35
 922 896 922 896 896 896 c 2,20,-1
896 320 m 1,36,-1
 576 320 l 1,37,-1
 576 384 l 1,38,-1
 896 384 l 1,39,-1
 896 320 l 1,36,-1
896 512 m 1,40,-1
 576 512 l 1,41,-1
 576 576 l 1,42,-1
 896 576 l 1,43,-1
 896 512 l 1,40,-1
384 384 m 2,44,-1
 64 384 l 2,45,46
 38 384 38 384 19 365 c 128,-1,47
 0 346 0 346 0 320 c 2,48,-1
 0 0 l 2,49,50
 0 -26 0 -26 19 -45 c 128,-1,51
 38 -64 38 -64 64 -64 c 2,52,-1
 384 -64 l 2,53,54
 410 -64 410 -64 429 -45 c 128,-1,55
 448 -26 448 -26 448 0 c 2,56,-1
 448 320 l 2,57,58
 448 346 448 346 429 365 c 128,-1,59
 410 384 410 384 384 384 c 2,44,-1
384 128 m 1,60,-1
 256 128 l 1,61,-1
 256 0 l 1,62,-1
 192 0 l 1,63,-1
 192 128 l 1,64,-1
 64 128 l 1,65,-1
 64 192 l 1,66,-1
 192 192 l 1,67,-1
 192 320 l 1,68,-1
 256 320 l 1,69,-1
 256 192 l 1,70,-1
 384 192 l 1,71,-1
 384 128 l 1,60,-1
EndSplineSet
Validated: 9
EndChar

StartChar: uniE944
Encoding: 59716 59716 247
Width: 1024
GlyphClass: 1
Flags: W
LayerCount: 2
Fore
SplineSet
192 960 m 1,0,-1
 192 -64 l 1,1,-1
 960 -64 l 1,2,-1
 960 960 l 1,3,-1
 192 960 l 1,0,-1
576 704 m 1,4,5
 629 704 629 704 666.5 666.5 c 128,-1,6
 704 629 704 629 704 576 c 256,7,8
 704 523 704 523 666.5 485.5 c 128,-1,9
 629 448 629 448 576 448 c 256,10,11
 523 448 523 448 485.5 485.5 c 128,-1,12
 448 523 448 523 448 576 c 256,13,14
 448 629 448 629 485.5 666.5 c 128,-1,15
 523 704 523 704 576 704 c 1,16,-1
 576 704 l 1,4,5
768 192 m 1,17,-1
 384 192 l 1,18,-1
 384 256 l 2,19,20
 384 309 384 309 421.5 346.5 c 128,-1,21
 459 384 459 384 512 384 c 1,22,-1
 512 384 l 1,23,-1
 640 384 l 2,24,25
 693 384 693 384 730.5 346.5 c 128,-1,26
 768 309 768 309 768 256 c 2,27,-1
 768 192 l 1,17,-1
64 896 m 1,28,-1
 160 896 l 1,29,-1
 160 704 l 1,30,-1
 64 704 l 1,31,-1
 64 896 l 1,28,-1
64 640 m 1,32,-1
 160 640 l 1,33,-1
 160 448 l 1,34,-1
 64 448 l 1,35,-1
 64 640 l 1,32,-1
64 384 m 1,36,-1
 160 384 l 1,37,-1
 160 192 l 1,38,-1
 64 192 l 1,39,-1
 64 384 l 1,36,-1
64 128 m 1,40,-1
 160 128 l 1,41,-1
 160 -64 l 1,42,-1
 64 -64 l 1,43,-1
 64 128 l 1,40,-1
EndSplineSet
Validated: 5
EndChar

StartChar: uniE94E
Encoding: 59726 59726 248
Width: 1024
GlyphClass: 1
Flags: W
LayerCount: 2
Fore
SplineSet
659 211 m 1,0,-1
 448 421 l 1,1,-1
 448 704 l 1,2,-1
 576 704 l 1,3,-1
 576 475 l 1,4,-1
 749 301 l 1,5,-1
 659 211 l 1,0,-1
512 960 m 256,6,7
 406 960 406 960 313 920 c 0,8,9
 219 880 219 880 149.5 810.5 c 128,-1,10
 80 741 80 741 40 647 c 0,11,12
 0 554 0 554 0 448 c 256,13,14
 0 342 0 342 40 249 c 0,15,16
 80 155 80 155 149.5 85.5 c 128,-1,17
 219 16 219 16 313 -24 c 0,18,19
 406 -64 406 -64 512 -64 c 256,20,21
 618 -64 618 -64 711 -24 c 0,22,23
 805 16 805 16 874.5 85.5 c 128,-1,24
 944 155 944 155 984 249 c 0,25,26
 1024 342 1024 342 1024 448 c 256,27,28
 1024 554 1024 554 984 647 c 0,29,30
 944 741 944 741 874.5 810.5 c 128,-1,31
 805 880 805 880 711 920 c 0,32,33
 618 960 618 960 512 960 c 256,6,7
512 64 m 256,34,35
 432 64 432 64 363 94 c 0,36,37
 293 124 293 124 240.5 176.5 c 128,-1,38
 188 229 188 229 158 299 c 0,39,40
 128 368 128 368 128 448 c 256,41,42
 128 528 128 528 158 597 c 0,43,44
 188 667 188 667 240.5 719.5 c 128,-1,45
 293 772 293 772 363 802 c 0,46,47
 432 832 432 832 512 832 c 256,48,49
 592 832 592 832 661 802 c 0,50,51
 731 772 731 772 783.5 719.5 c 128,-1,52
 836 667 836 667 866 597 c 0,53,54
 896 528 896 528 896 448 c 256,55,56
 896 368 896 368 866 299 c 0,57,58
 836 229 836 229 783.5 176.5 c 128,-1,59
 731 124 731 124 661 94 c 0,60,61
 592 64 592 64 512 64 c 256,34,35
EndSplineSet
Validated: 9
EndChar

StartChar: uniE951
Encoding: 59729 59729 249
Width: 1024
GlyphClass: 1
Flags: W
LayerCount: 2
Fore
SplineSet
1025 160 m 1,0,1
 1025 268 1025 268 986 320 c 0,2,3
 946 372 946 372 898 408 c 128,-1,4
 850 444 850 444 810 484 c 256,5,6
 770 524 770 524 770 608 c 0,7,8
 770 622 770 622 768.5 634 c 128,-1,9
 767 646 767 646 764 656 c 0,10,11
 758 698 758 698 741 736 c 0,12,13
 725 773 725 773 700 803.5 c 128,-1,14
 675 834 675 834 643 855 c 0,15,16
 611 877 611 877 575 887 c 0,17,18
 575 890 575 890 575.5 893 c 128,-1,19
 576 896 576 896 576 899 c 0,20,21
 576 924 576 924 557 942 c 128,-1,22
 538 960 538 960 512 960 c 256,23,24
 486 960 486 960 467 942 c 128,-1,25
 448 924 448 924 448 900 c 0,26,27
 448 896 448 896 448.5 893 c 128,-1,28
 449 890 449 890 449 887 c 0,29,30
 408 876 408 876 373 850 c 256,31,32
 338 824 338 824 312.5 788.5 c 128,-1,33
 287 753 287 753 272 708 c 256,34,35
 257 663 257 663 256 614 c 0,36,37
 256 612 256 612 256 610.5 c 128,-1,38
 256 609 256 609 256 608 c 0,39,40
 256 524 256 524 216 484 c 256,41,42
 176 444 176 444 128 408 c 128,-1,43
 80 372 80 372 40 320 c 256,44,45
 0 268 0 268 0 160 c 0,46,47
 0 131 0 131 30 106 c 0,48,49
 60 80 60 80 113.5 59.5 c 128,-1,50
 167 39 167 39 240 24 c 0,51,52
 313 10 313 10 399 4 c 1,53,54
 415 -26 415 -26 445 -45 c 128,-1,55
 475 -64 475 -64 512 -64 c 256,56,57
 549 -64 549 -64 579 -45 c 128,-1,58
 609 -26 609 -26 625 4 c 1,59,60
 711 10 711 10 784 24 c 0,61,62
 857 39 857 39 910.5 59.5 c 128,-1,63
 964 80 964 80 994 106 c 0,64,65
 1024 131 1024 131 1024 160 c 2,66,67
 1024 160 1024 160 1024 160.5 c 128,-1,68
 1024 161 1024 161 1024 161 c 1,69,-1
 1026 160 l 1,70,-1
 1025 160 l 1,0,1
826 106 m 1,71,72
 786 95 786 95 738.5 87.5 c 128,-1,73
 691 80 691 80 639 75 c 1,74,75
 635 124 635 124 598.5 158 c 128,-1,76
 562 192 562 192 512 192 c 256,77,78
 462 192 462 192 425.5 158 c 128,-1,79
 389 124 389 124 385 75 c 1,80,81
 333 80 333 80 285.5 87.5 c 128,-1,82
 238 95 238 95 198 106 c 0,83,84
 142 121 142 121 113 136 c 128,-1,85
 84 151 84 151 74 160 c 1,86,87
 84 169 84 169 113 184 c 128,-1,88
 142 199 142 199 198 214 c 0,89,90
 230 223 230 223 267 229 c 0,91,92
 304 236 304 236 344 240.5 c 128,-1,93
 384 245 384 245 426 248 c 0,94,95
 469 250 469 250 512 250 c 256,96,97
 555 250 555 250 598 248 c 0,98,99
 640 245 640 245 680 240.5 c 128,-1,100
 720 236 720 236 757 229 c 0,101,102
 794 223 794 223 826 214 c 0,103,104
 882 199 882 199 911 184 c 128,-1,105
 940 169 940 169 950 160 c 1,106,107
 940 151 940 151 911 136 c 128,-1,108
 882 121 882 121 826 106 c 1,109,-1
 826 106 l 1,71,72
EndSplineSet
Validated: 5
EndChar

StartChar: uniE952
Encoding: 59730 59730 250
Width: 1024
GlyphClass: 1
Flags: W
LayerCount: 2
Fore
SplineSet
512 767 m 1,0,-1
 512 832 l 1,1,-1
 640 832 l 1,2,-1
 640 896 l 2,3,4
 640 923 640 923 621.5 941.5 c 128,-1,5
 603 960 603 960 576 960 c 2,6,-1
 384 960 l 2,7,8
 357 960 357 960 338.5 941.5 c 128,-1,9
 320 923 320 923 320 896 c 2,10,-1
 320 832 l 1,11,-1
 448 832 l 1,12,-1
 448 767 l 1,13,14
 367 761 367 761 297 726 c 256,15,16
 227 691 227 691 175.5 635.5 c 128,-1,17
 124 580 124 580 94 507 c 256,18,19
 64 434 64 434 64 352 c 0,20,21
 64 266 64 266 97 190 c 0,22,23
 129 114 129 114 185.5 57.5 c 128,-1,24
 242 1 242 1 318 -31 c 0,25,26
 394 -64 394 -64 480 -64 c 256,27,28
 566 -64 566 -64 642 -31 c 0,29,30
 718 1 718 1 774.5 57.5 c 128,-1,31
 831 114 831 114 863 190 c 0,32,33
 896 266 896 266 896 352 c 0,34,35
 896 434 896 434 866 507 c 256,36,37
 836 580 836 580 784.5 635.5 c 128,-1,38
 733 691 733 691 663 726 c 256,39,40
 593 761 593 761 512 767 c 1,0,-1
706 126 m 1,41,42
 661 80 661 80 602.5 56 c 128,-1,43
 544 32 544 32 480 32 c 256,44,45
 416 32 416 32 357.5 56 c 128,-1,46
 299 80 299 80 254 126 c 0,47,48
 208 171 208 171 184 229.5 c 128,-1,49
 160 288 160 288 160 352 c 256,50,51
 160 416 160 416 184 474.5 c 128,-1,52
 208 533 208 533 254 578 c 0,53,54
 297 622 297 622 353 646 c 128,-1,55
 409 670 409 670 470 672 c 1,56,-1
 448 358 l 2,57,58
 447 338 447 338 456 329 c 128,-1,59
 465 320 465 320 480 320 c 256,60,61
 495 320 495 320 504 329 c 128,-1,62
 513 338 513 338 512 358 c 2,63,-1
 490 672 l 1,64,65
 551 670 551 670 607 646 c 128,-1,66
 663 622 663 622 706 578 c 0,67,68
 752 533 752 533 776 474.5 c 128,-1,69
 800 416 800 416 800 352 c 256,70,71
 800 288 800 288 776 229.5 c 128,-1,72
 752 171 752 171 706 126 c 1,73,-1
 706 126 l 1,41,42
EndSplineSet
Validated: 9
EndChar

StartChar: uniE953
Encoding: 59731 59731 251
Width: 1024
GlyphClass: 1
Flags: W
LayerCount: 2
Fore
SplineSet
320 576 m 1,0,-1
 448 576 l 1,1,-1
 448 448 l 1,2,-1
 320 448 l 1,3,-1
 320 576 l 1,0,-1
512 576 m 1,4,-1
 640 576 l 1,5,-1
 640 448 l 1,6,-1
 512 448 l 1,7,-1
 512 576 l 1,4,-1
704 576 m 1,8,-1
 832 576 l 1,9,-1
 832 448 l 1,10,-1
 704 448 l 1,11,-1
 704 576 l 1,8,-1
128 192 m 1,12,-1
 256 192 l 1,13,-1
 256 64 l 1,14,-1
 128 64 l 1,15,-1
 128 192 l 1,12,-1
320 192 m 1,16,-1
 448 192 l 1,17,-1
 448 64 l 1,18,-1
 320 64 l 1,19,-1
 320 192 l 1,16,-1
512 192 m 1,20,-1
 640 192 l 1,21,-1
 640 64 l 1,22,-1
 512 64 l 1,23,-1
 512 192 l 1,20,-1
320 384 m 1,24,-1
 448 384 l 1,25,-1
 448 256 l 1,26,-1
 320 256 l 1,27,-1
 320 384 l 1,24,-1
512 384 m 1,28,-1
 640 384 l 1,29,-1
 640 256 l 1,30,-1
 512 256 l 1,31,-1
 512 384 l 1,28,-1
704 384 m 1,32,-1
 832 384 l 1,33,-1
 832 256 l 1,34,-1
 704 256 l 1,35,-1
 704 384 l 1,32,-1
128 384 m 1,36,-1
 256 384 l 1,37,-1
 256 256 l 1,38,-1
 128 256 l 1,39,-1
 128 384 l 1,36,-1
832 960 m 1,40,-1
 832 896 l 1,41,-1
 704 896 l 1,42,-1
 704 960 l 1,43,-1
 256 960 l 1,44,-1
 256 896 l 1,45,-1
 128 896 l 1,46,-1
 128 960 l 1,47,-1
 0 960 l 1,48,-1
 0 -64 l 1,49,-1
 960 -64 l 1,50,-1
 960 960 l 1,51,-1
 832 960 l 1,40,-1
896 0 m 1,52,-1
 64 0 l 1,53,-1
 64 704 l 1,54,-1
 896 704 l 1,55,-1
 896 0 l 1,52,-1
EndSplineSet
Validated: 9
EndChar

StartChar: uniE956
Encoding: 59734 59734 252
Width: 1024
GlyphClass: 1
Flags: W
LayerCount: 2
Fore
SplineSet
0 896 m 1,0,-1
 0 256 l 1,1,-1
 1024 256 l 1,2,-1
 1024 896 l 1,3,-1
 0 896 l 1,0,-1
960 320 m 1,4,-1
 64 320 l 1,5,-1
 64 832 l 1,6,-1
 960 832 l 1,7,-1
 960 320 l 1,4,-1
672 192 m 1,8,-1
 352 192 l 1,9,-1
 320 64 l 1,10,-1
 256 0 l 1,11,-1
 768 0 l 1,12,-1
 704 64 l 1,13,-1
 672 192 l 1,8,-1
EndSplineSet
Validated: 9
EndChar

StartChar: uniE958
Encoding: 59736 59736 253
Width: 1024
GlyphClass: 1
Flags: W
LayerCount: 2
Fore
SplineSet
736 960 m 2,0,-1
 288 960 l 2,1,2
 248 960 248 960 220 932 c 128,-1,3
 192 904 192 904 192 864 c 2,4,-1
 192 32 l 2,5,6
 192 -8 192 -8 220 -36 c 128,-1,7
 248 -64 248 -64 288 -64 c 2,8,-1
 736 -64 l 2,9,10
 776 -64 776 -64 804 -36 c 128,-1,11
 832 -8 832 -8 832 32 c 2,12,-1
 832 864 l 2,13,14
 832 904 832 904 804 932 c 128,-1,15
 776 960 776 960 736 960 c 2,0,-1
384 912 m 1,16,-1
 640 912 l 1,17,-1
 640 880 l 1,18,-1
 384 880 l 1,19,-1
 384 912 l 1,16,-1
512 0 m 256,20,21
 485 0 485 0 466.5 18.5 c 128,-1,22
 448 37 448 37 448 64 c 256,23,24
 448 91 448 91 466.5 109.5 c 128,-1,25
 485 128 485 128 512 128 c 256,26,27
 539 128 539 128 557.5 109.5 c 128,-1,28
 576 91 576 91 576 64 c 256,29,30
 576 37 576 37 557.5 18.5 c 128,-1,31
 539 0 539 0 512 0 c 256,20,21
768 192 m 1,32,-1
 256 192 l 1,33,-1
 256 832 l 1,34,-1
 768 832 l 1,35,-1
 768 192 l 1,32,-1
EndSplineSet
Validated: 9
EndChar

StartChar: uniE967
Encoding: 59751 59751 254
Width: 1024
GlyphClass: 1
Flags: W
LayerCount: 2
Fore
SplineSet
762 -64 m 1,0,1
 805 13 805 13 824 104 c 256,2,3
 843 195 843 195 815 272 c 128,-1,4
 787 349 787 349 702 400 c 0,5,6
 616 450 616 450 448 446 c 1,7,-1
 448 192 l 1,8,-1
 64 576 l 1,9,-1
 448 960 l 1,10,-1
 448 712 l 1,11,12
 649 717 649 717 762 639 c 0,13,14
 876 561 876 561 911 443 c 128,-1,15
 946 325 946 325 906 187 c 0,16,17
 867 50 867 50 762 -64 c 1,0,1
EndSplineSet
Validated: 33
EndChar

StartChar: uniE968
Encoding: 59752 59752 255
Width: 1024
GlyphClass: 1
Flags: W
LayerCount: 2
Fore
SplineSet
576 712 m 1,0,-1
 576 960 l 1,1,-1
 960 576 l 1,2,-1
 576 192 l 1,3,-1
 576 446 l 1,4,5
 408 450 408 450 322 400 c 0,6,7
 237 349 237 349 209 272 c 128,-1,8
 181 195 181 195 200 104 c 256,9,10
 219 13 219 13 262 -64 c 1,11,12
 157 50 157 50 118 187 c 0,13,14
 78 325 78 325 113 443 c 128,-1,15
 148 561 148 561 262 639 c 0,16,17
 375 717 375 717 576 712 c 1,18,-1
 576 712 l 1,0,-1
EndSplineSet
Validated: 37
EndChar

